<svg xmlns="http://www.w3.org/2000/svg" xmlns:xlink="http://www.w3.org/1999/xlink" viewBox="0 0 312 312"><defs><style>.cls-1,.cls-7{fill:#61853a;}.cls-1,.cls-11,.cls-2,.cls-6,.cls-8{stroke:#000;stroke-miterlimit:10;}.cls-1,.cls-6{stroke-width:1.75px;}.cls-11,.cls-2{stroke-width:2px;}.cls-2{fill:url(#linear-gradient);}.cls-3{fill:#262d1c;}.cls-4{fill:#723c07;}.cls-5{fill:#b2d37b;}.cls-6{fill:#165e22;}.cls-8,.cls-9{fill:#426a32;}.cls-10{fill:url(#linear-gradient-2);}.cls-11{fill:url(#linear-gradient-3);}.cls-12{fill:#4d7c39;}.cls-13{fill:url(#linear-gradient-4);}</style><linearGradient id="linear-gradient" x1="127.3" y1="191.42" x2="127.3" y2="291.12" gradientUnits="userSpaceOnUse"><stop offset="0" stop-color="#323534"/><stop offset="0.06" stop-color="#484f4e"/><stop offset="0.18" stop-color="#738382"/><stop offset="0.3" stop-color="#95abab"/><stop offset="0.4" stop-color="#adc8c8"/><stop offset="0.49" stop-color="#bcdada"/><stop offset="0.56" stop-color="#c1e0e0"/><stop offset="0.64" stop-color="#bddbdc"/><stop offset="0.73" stop-color="#b0cecf"/><stop offset="0.82" stop-color="#9bb7b9"/><stop offset="0.92" stop-color="#7e989b"/><stop offset="1" stop-color="#60787c"/></linearGradient><linearGradient id="linear-gradient-2" x1="97.95" y1="208.52" x2="166.64" y2="211.87" gradientUnits="userSpaceOnUse"><stop offset="0" stop-color="#fff" stop-opacity="0.5"/><stop offset="1" stop-color="#c0dfdf" stop-opacity="0"/></linearGradient><linearGradient id="linear-gradient-3" x1="207.05" y1="224.8" x2="207.05" y2="295.81" xlink:href="#linear-gradient"/><linearGradient id="linear-gradient-4" x1="186.15" y1="236.98" x2="235.08" y2="239.37" xlink:href="#linear-gradient-2"/></defs><g id="Tumbuhan"><path d="M209.63,157.88a1.81,1.81,0,0,0,.75.16,1.93,1.93,0,0,0,.82-.19h-1.63Z"/><path d="M209.52,157.85h0l0,0Z"/><path class="cls-1" d="M192.08,97.35c-3.88,1-5.76,1.37-6.11.16-.45-1.54,5.84-4.27,11.12-4.81s15.28-3.12,15.28-3.12-1.19-6.76-6.92-10.47c-2.41-1.56-12.63-2.72-18-1.74s-12.12,8.46-13.67,9.56-4.08-.28-2.52-2.57c5.48-8.06,22.41-11.64,22.41-11.64s1.56-3-2.86-5.32c-2.26-1.18-18.23-9.57-32-2.56C148.34,70.13,155.91,92,155.91,92c.92,2.29,3.53,5.71-6.15,9s-16.26,10.75-17.18,17.43,6.85,11.09,6.85,11.09c6.7-3.61,9.32-13.14,10.66-16.35s3.84,1,2.59,4.13-11.56,11.43-10.41,15.27,17.61,10.7,18.55,7.28c1.08-3.9,2.87-10.57,2.55-15.21-.27-4,2.75-4.81,4.36-1.52s-3.38,6.88-5,16,29.92,7.69,28.1,5.1-2.25-5.4-3.71-7.47-7.41-19.51-2.61-16.79c3.61,2,4.44,7.7,6.15,16.64,1.29,6.79,7,7.84,9.3,7.33,2.89-.65,12.86-3.18,12.31-3.64s-9.84-10.44-9.94-13.56,5.46,3.26,5.87,4.6,5,5.21,7.82,5.61,13.48-4.13,13.13-5.28-.84-8-2.15-11.7c-.64-1.82-3.64-7.23-7.51-7.75-2.2-.3-18.41,1.29-19.39-2s20.6.17,20.89-1-1.39-12.5-4.92-15.57S194.25,96.78,192.08,97.35Zm-22.51,11.57c0,1.5-.35,4.91-1.48,6.24-2.22,2.35-3.5-.59-3.11-2.68.23-2.47,1.79-5,2.74-7.17l0,0C169.8,100.48,169.67,106.49,169.57,108.92Zm12.22-.76a11.47,11.47,0,0,1,.55,2.82c.25,1.37.82,5.34-.45,6.23-2.12,1.46-3.73-1.86-3.53-3.46.29-1.88.84-5.61,2.1-7v0C181.12,106.25,181.45,107.09,181.79,108.16Zm4.65-17.81c3.37,2.18-3.17,4.16-4.6,4.22C179.1,94.37,184.3,88.93,186.44,90.35Zm11.35,25.57c.34,1.17-.62,1.75-1.64,1.24-1.5-.75-2.12-4.73-.05-3.55A10.74,10.74,0,0,1,197.79,115.92Zm4-9.13a16.28,16.28,0,0,1-4.18.77c-1.71-.32-1.7-1.43-.38-2.41C199.12,103.73,204.6,104.92,201.75,106.79Z"/><path class="cls-2" d="M127.26,181s66.72.15,66,18.57S173.29,287.28,163,293.51c-11.56,7-35.62,7-35.67,7-20.12.17-30.61-3.88-35.73-6.8-10.46-6-29.49-75.54-30.24-93.95S127.26,181,127.26,181Z"/><path class="cls-3" d="M188.2,200.75c0-6.89-27.15-13.62-60.66-13.63h-.06c-33.5,0-60.65,6.74-60.65,13.63S94,213.22,127.48,213.23h.06C161.05,213.22,188.2,207.64,188.2,200.75Z"/><path class="cls-4" d="M73.82,201.42s20.49-9.74,31.24-5.75c0,0,8-3,8.74,1,0,0,13.74-6.74,26.49,3.5,0,0,9.24-6.67,13.24-2.21,0,0,14.74-5.21,14.74,0,0,0,7.25-1.78,9.5,2.21,0,0,3.5-2.74,3.25,0,0,0-3.25,7.75-49.73,9.5S73.82,201.42,73.82,201.42Z"/><path class="cls-5" d="M162.08,95.91l-.09-.14a3.57,3.57,0,0,1-.25-.43,5.83,5.83,0,0,1-.32-.73,6.61,6.61,0,0,1-.29-1c0-.09,0-.18,0-.28s0-.19,0-.29,0-.39-.06-.6a11.27,11.27,0,0,1,0-1.3c0-.45.08-.91.15-1.37s.15-.92.24-1.38c.19-.92.41-1.83.6-2.68.09-.42.18-.84.26-1.23s.14-.76.2-1.1c0-.18,0-.34.07-.5s0-.31.05-.45,0-.53.06-.73,0-.36,0-.47v0c0,.11,0,.27,0,.47s0,.45,0,.74,0,.29,0,.45,0,.33,0,.5c0,.35-.07.73-.13,1.13s-.11.82-.18,1.25c-.14.86-.3,1.78-.42,2.7-.07.46-.12.92-.16,1.37s-.06.89-.06,1.32a11.59,11.59,0,0,0,.07,1.21c0,.19.05.38.09.55l.06.26c0,.08,0,.17.06.24a7.28,7.28,0,0,0,.3.84,4.56,4.56,0,0,0,.32.6,4,4,0,0,0,.24.37l.1.14Z"/><path class="cls-5" d="M164.82,96.39l-.24.16-.29.19-.36.26c-.14.1-.29.23-.44.35s-.34.29-.52.45-.37.33-.57.52-.4.39-.61.61l-1.39,1.39a22.2,22.2,0,0,1-1.65,1.5,12.77,12.77,0,0,1-2,1.35c-.71.38-1.43.75-2.15,1.12-1.45.75-2.88,1.49-4.2,2.25a31.71,31.71,0,0,0-3.47,2.27,10.79,10.79,0,0,0-2.07,2.06,4.1,4.1,0,0,0-.25.4,3.48,3.48,0,0,0-.17.31l-.12.26.11-.27c0-.09.1-.19.16-.31s.15-.26.24-.41a10.24,10.24,0,0,1,2-2.15,29.07,29.07,0,0,1,3.41-2.41c1.29-.81,2.71-1.61,4.12-2.41.71-.4,1.42-.79,2.11-1.2a11.94,11.94,0,0,0,1.84-1.35c.56-.49,1.07-1,1.54-1.51l1.34-1.44.61-.64.56-.57c.19-.17.36-.34.53-.48s.31-.28.46-.4l.4-.31.28-.2.24-.17Z"/><path class="cls-5" d="M168.64,97l-.88,1.4c-.27.44-.63,1-1,1.58l-1.35,2c-.49.75-1,1.56-1.58,2.42-.28.43-.57.87-.85,1.33l-.85,1.41c-.29.48-.56,1-.85,1.47L161,109c-.06.13-.13.25-.2.38l-.39.78c-.07.13-.14.26-.2.39l-.1.2-.09.2c-.13.27-.25.54-.37.81l-.75,1.63c-.24.54-.49,1.09-.74,1.63l-.37.81c-.12.27-.24.54-.35.81-.48,1.08-.94,2.14-1.39,3.17l-.33.76c0,.13-.11.25-.16.38l-.08.18-.08.19c-.09.25-.19.5-.27.75l-.12.37-.1.37a23.76,23.76,0,0,0-.58,2.83c-.14.88-.23,1.7-.29,2.42s-.11,1.36-.13,1.88,0,.94,0,1.22v.43s0-.15,0-.43,0-.69,0-1.22,0-1.16.08-1.88.12-1.55.23-2.44a28.11,28.11,0,0,1,.52-2.86c0-.13.06-.25.1-.38s.07-.26.11-.38.16-.51.25-.77l.07-.19.08-.19c.05-.13.1-.26.16-.38s.2-.52.31-.78c.42-1,.86-2.11,1.31-3.2l.33-.82c.12-.28.24-.55.35-.82l.71-1.65.7-1.65c.12-.27.23-.55.35-.82l.09-.2c0-.08.06-.14.09-.21s.13-.27.2-.4.25-.54.38-.8.13-.26.19-.4l.21-.38c.27-.51.54-1,.81-1.51l.83-1.44c.27-.47.55-.92.82-1.36.53-.89,1.05-1.7,1.53-2.47s.91-1.45,1.29-2.07.72-1.15,1-1.6c.54-.9.84-1.42.84-1.42Z"/><path class="cls-5" d="M177.84,99.88s-.3.57-.81,1.57-1.22,2.44-2,4.21c-.38.88-.76,1.84-1.1,2.88a24.91,24.91,0,0,0-.88,3.33,25.29,25.29,0,0,0-.44,3.65c0,.63,0,1.27,0,1.9,0,.32,0,.64,0,1l.07,1c.11,1.28.25,2.56.42,3.81s.35,2.49.56,3.68c.1.6.22,1.18.32,1.75s.23,1.13.34,1.67c.23,1.08.46,2.1.7,3s.47,1.79.69,2.54c.12.38.23.73.32,1.06l.3.88c.17.54.33.95.44,1.24s.16.43.16.43l-.17-.43c-.11-.28-.29-.69-.47-1.22-.09-.27-.21-.56-.32-.88s-.22-.68-.34-1c-.24-.75-.49-1.6-.75-2.53s-.52-2-.77-3c-.13-.54-.25-1.1-.38-1.67s-.25-1.15-.36-1.75c-.24-1.18-.45-2.42-.65-3.67s-.37-2.54-.5-3.83a29.5,29.5,0,0,1-.19-3.87,24.2,24.2,0,0,1,.36-3.76,26.32,26.32,0,0,1,.82-3.42c.33-1.08.7-2.07,1.06-3,.73-1.81,1.42-3.27,1.91-4.29l.77-1.6Z"/><path class="cls-5" d="M173.06,97.33l.27-.26c.17-.16.43-.4.74-.71s.71-.68,1.15-1.12l1.49-1.46c.56-.53,1.16-1.11,1.83-1.69.33-.3.69-.58,1-.88s.74-.58,1.15-.86.81-.54,1.23-.81.86-.52,1.32-.74l.34-.17.17-.09.18-.08.7-.31.72-.28.72-.27,1.44-.5c.48-.17,1-.32,1.45-.47l.72-.23.71-.21,1.4-.41,2.65-.76,1.23-.35,1.14-.33,1.06-.32.94-.3.83-.26.7-.24,1.32-.47-1.31.51-.69.26-.83.28-.93.33-1,.35c-.37.11-.75.24-1.14.37l-1.22.38-2.62.83-1.39.45-.7.23-.71.25c-.47.17-.94.32-1.42.5l-1.43.55-.7.28c-.23.1-.47.19-.69.3l-.68.32L184,89l-.16.09-.33.18c-.44.23-.85.5-1.26.75s-.8.54-1.18.83-.73.58-1.08.87-.68.58-1,.88c-.64.59-1.21,1.18-1.75,1.72l-1.45,1.5c-.43.45-.8.84-1.12,1.16l-.73.74-.26.26Z"/><path class="cls-5" d="M165.05,95.86s0-.11,0-.32,0-.51.05-.91.07-.88.13-1.43c0-.28.07-.57.12-.87s.1-.63.16-1,.13-.68.22-1c0-.17.08-.35.13-.54s.09-.37.14-.55c.09-.38.21-.76.32-1.15.06-.2.13-.39.19-.59s.13-.4.2-.6c.27-.8.6-1.6.95-2.42s.75-1.62,1.18-2.41.9-1.55,1.4-2.28a24,24,0,0,1,1.56-2.08l.2-.24.21-.23.41-.46.42-.43.2-.21a2.09,2.09,0,0,0,.22-.2l.41-.39.42-.36c.27-.24.55-.45.82-.66l.4-.29.38-.27.73-.46a13.57,13.57,0,0,1,1.25-.67,8.33,8.33,0,0,1,.83-.36l.29-.13-.29.14a8.76,8.76,0,0,0-.82.39c-.34.17-.75.41-1.21.7-.22.15-.47.31-.71.49l-.38.28c-.12.1-.26.19-.38.3s-.53.43-.79.68l-.4.37c-.13.13-.27.26-.4.4l-.2.2-.2.22-.4.43-.39.47c-.07.08-.13.16-.2.23s-.13.17-.19.25A25.05,25.05,0,0,0,170.57,80c-.47.74-.9,1.51-1.3,2.3s-.76,1.6-1.09,2.41-.61,1.61-.85,2.4c-.07.2-.13.4-.18.59s-.11.39-.16.58c-.1.39-.21.77-.28,1.14-.05.18-.08.36-.13.54s-.07.36-.1.54c-.07.35-.12.69-.18,1s-.08.64-.13.94-.06.58-.09.85c0,.53-.07,1-.08,1.37s0,.69,0,.9v.32Z"/><path class="cls-5" d="M159.64,96.35a21.41,21.41,0,0,1,4-.12,31.81,31.81,0,0,1,5.14.84,51.73,51.73,0,0,1,5.92,1.82c1,.4,2.07.83,3.12,1.32l1.59.75c.52.25,1,.55,1.55.85,2.07,1.21,4.16,2.61,6.26,4s4.24,2.91,6.36,4.39c4.24,3,8.47,6,12.47,8.72s7.76,5.29,11.06,7.36a66.06,66.06,0,0,0,8.2,4.57,10.32,10.32,0,0,0,2.5.8c.3,0,.53.09.69.1h0c-.16,0-.39-.07-.69-.1a10.47,10.47,0,0,1-2.47-.85,64.85,64.85,0,0,1-8.11-4.71c-3.25-2.12-7-4.71-10.91-7.54s-8.12-5.9-12.31-8.94c-2.1-1.53-4.2-3-6.28-4.52-1.05-.73-2.09-1.46-3.13-2.16s-2.07-1.38-3.12-2c-.53-.31-1.06-.62-1.61-.9s-1.07-.53-1.61-.78q-1.6-.73-3.18-1.35A41.83,41.83,0,0,0,169,96a33.47,33.47,0,0,0-5.33-.78,30.07,30.07,0,0,0-4.38-.08c-1.13.14-1.69.13-2.36.23a8.65,8.65,0,0,1-.45,1.57c.13,0,.46-.13.66-.17A17,17,0,0,1,159.64,96.35Z"/><path class="cls-6" d="M46.84,45.14c-3.52,3.07-5.2,14.43-4.91,15.57s21.87-2.31,20.89,1-17.2,1.68-19.39,2c-3.88.52-6.88,5.93-7.52,7.75-1.3,3.7-1.8,10.55-2.15,11.7s10.29,5.68,13.13,5.28,7.42-4.27,7.83-5.61,6-7.71,5.86-4.6-9.38,13.1-9.93,13.56,9.41,3,12.3,3.64c2.29.51,8-.54,9.3-7.33,1.71-9,2.54-14.6,6.15-16.64,4.81-2.72-1.14,14.71-2.6,16.78s-1.89,4.88-3.71,7.48,29.77,4,28.1-5.1-6.66-12.68-5-16,4.63-2.45,4.36,1.52c-.32,4.64,1.48,11.32,2.55,15.22.94,3.42,17.4-3.44,18.55-7.28s-9.15-12.18-10.41-15.27,1.26-7.34,2.6-4.13,4,12.74,10.65,16.35c0,0,7.78-4.41,6.85-11.09s-7.49-14.1-17.17-17.43-7.08-6.74-6.16-9c0,0,7.57-21.9-2.86-27.19-13.82-7-29.78,1.39-32,2.56-4.42,2.3-2.86,5.32-2.86,5.32s16.93,3.59,22.42,11.65c1.55,2.29-1,3.66-2.52,2.56s-8.32-8.57-13.68-9.55-15.58.17-18,1.74C51.7,34.25,50.5,41,50.5,41s10,2.58,15.28,3.12,11.57,3.27,11.12,4.8c-.35,1.22-2.23.88-6.11-.15C68.62,48.21,50.5,42,46.84,45.14ZM95.13,56.7l0,0c1,2.15,2.51,4.69,2.75,7.17.39,2.09-.9,5-3.12,2.67-1.13-1.33-1.45-4.73-1.47-6.23C93.2,57.92,93.08,51.91,95.13,56.7ZM82.4,58.2l0,0c1.26,1.34,1.81,5.08,2.1,7,.2,1.6-1.41,4.92-3.54,3.46-1.27-.89-.7-4.86-.44-6.23a10.68,10.68,0,0,1,.55-2.83C81.43,58.52,81.76,57.68,82.4,58.2ZM81,46c-1.42-.06-8-2-4.6-4.23C78.57,40.35,83.77,45.79,81,46ZM66.78,65c2.06-1.18,1.44,2.79-.06,3.55-1,.51-2-.08-1.64-1.24A10.54,10.54,0,0,1,66.78,65Zm-1.1-8.46c1.32,1,1.33,2.09-.37,2.41a16.28,16.28,0,0,1-4.19-.77C58.27,56.34,63.75,55.15,65.68,56.58Z"/><path class="cls-5" d="M100.79,47.34l.09-.14c.06-.1.14-.22.25-.43a6.47,6.47,0,0,0,.33-.73,8.19,8.19,0,0,0,.28-1c0-.09,0-.18.05-.28a2.54,2.54,0,0,0,0-.29,3.93,3.93,0,0,0,.06-.6,11.27,11.27,0,0,0,0-1.3,13,13,0,0,0-.15-1.37c-.06-.46-.15-.92-.24-1.38-.19-.92-.4-1.83-.59-2.68q-.15-.64-.27-1.23c-.07-.39-.14-.76-.19-1.11,0-.17,0-.33-.07-.49s0-.31-.06-.45,0-.53-.06-.73,0-.36,0-.47v-.17a1.15,1.15,0,0,0,0,.17c0,.1,0,.26,0,.47s0,.45,0,.74,0,.29,0,.45,0,.33,0,.5c0,.35.08.73.13,1.13s.12.81.19,1.25c.13.86.29,1.78.42,2.7.06.45.11.91.15,1.36s.06.9.06,1.32a11.63,11.63,0,0,1-.07,1.22c0,.19-.05.37-.09.55a2.38,2.38,0,0,0,0,.26,2.17,2.17,0,0,0-.07.24,5.79,5.79,0,0,1-.3.84,5.08,5.08,0,0,1-.31.59c-.09.15-.19.29-.25.38l-.1.14Z"/><path class="cls-5" d="M98.05,47.82l.24.15.3.2.35.26a5.6,5.6,0,0,1,.45.35l.51.44.57.53.62.6,1.38,1.4c.5.49,1,1,1.65,1.5a12.4,12.4,0,0,0,2,1.35l2.15,1.12c1.44.74,2.88,1.49,4.19,2.25a30.31,30.31,0,0,1,3.47,2.27A10.23,10.23,0,0,1,118,62.3c.1.15.19.28.26.4l.16.3.12.27-.11-.27c0-.09-.09-.19-.15-.32s-.15-.25-.25-.4a10.49,10.49,0,0,0-2-2.16,32.48,32.48,0,0,0-3.4-2.41c-1.3-.8-2.72-1.61-4.13-2.4-.71-.4-1.42-.8-2.1-1.2a12,12,0,0,1-1.85-1.35c-.56-.49-1.07-1-1.54-1.51s-.92-1-1.34-1.44c-.2-.23-.41-.44-.6-.65l-.57-.56c-.19-.17-.35-.34-.52-.48l-.47-.4-.39-.31-.29-.2L98.57,47Z"/><path class="cls-5" d="M94.23,48.38l.88,1.39c.28.45.63,1,1,1.59l1.35,2c.49.75,1,1.55,1.58,2.42.28.43.57.87.85,1.33l.86,1.4c.28.49.55,1,.84,1.48l.21.37.2.39c.13.26.26.52.4.78s.13.26.2.39a1.63,1.63,0,0,1,.09.19l.1.2c.12.28.24.55.37.82.24.54.49,1.08.74,1.63s.5,1.08.74,1.63c.13.27.25.54.37.81l.36.81,1.38,3.17.33.76c.06.13.11.25.17.37l.08.19.07.19a7.51,7.51,0,0,1,.27.75l.12.37.1.37a25.91,25.91,0,0,1,.59,2.82c.13.89.22,1.7.29,2.43s.1,1.36.12,1.88,0,.94,0,1.22,0,.43,0,.43,0-.15,0-.43,0-.7,0-1.22,0-1.16-.08-1.89-.11-1.55-.23-2.44a26.45,26.45,0,0,0-.52-2.86l-.09-.38-.12-.38c-.07-.26-.16-.51-.25-.76l-.07-.19-.08-.19-.15-.39c-.11-.25-.21-.51-.32-.77l-1.3-3.2c-.12-.28-.23-.55-.34-.83s-.23-.54-.35-.82c-.23-.54-.47-1.09-.7-1.64s-.47-1.11-.71-1.65c-.11-.28-.23-.55-.35-.82l-.08-.21-.1-.2c-.06-.14-.13-.27-.19-.4l-.39-.8c-.06-.14-.12-.27-.19-.4l-.2-.38-.82-1.52-.83-1.43c-.27-.47-.55-.92-.82-1.36-.53-.89-1.05-1.71-1.52-2.47s-.91-1.46-1.3-2.07-.72-1.15-1-1.6L95,47.89Z"/><path class="cls-5" d="M85,51.3l.8,1.58c.51,1,1.23,2.44,2,4.2.38.88.76,1.85,1.11,2.89a27.84,27.84,0,0,1,.88,3.33A25.3,25.3,0,0,1,90.24,67c0,.63,0,1.26,0,1.9,0,.32,0,.63,0,1l-.07,1c-.11,1.28-.25,2.55-.41,3.81s-.36,2.49-.57,3.68c-.1.59-.21,1.18-.32,1.75s-.23,1.12-.33,1.67c-.24,1.08-.47,2.1-.71,3s-.47,1.79-.69,2.54c-.11.38-.22.73-.32,1s-.21.62-.29.89c-.18.54-.34,1-.44,1.23s-.16.44-.16.44l.17-.43c.11-.28.28-.69.46-1.22.1-.27.21-.56.32-.89s.22-.67.34-1c.24-.75.5-1.6.75-2.54s.52-2,.78-3c.12-.54.24-1.09.37-1.66s.25-1.15.36-1.75c.24-1.19.45-2.42.65-3.68s.37-2.54.5-3.82a29.74,29.74,0,0,0,.19-3.88,25.49,25.49,0,0,0-.35-3.75,27.77,27.77,0,0,0-.83-3.43c-.33-1.07-.69-2.06-1.06-3-.72-1.81-1.42-3.27-1.91-4.29l-.77-1.61Z"/><path class="cls-5" d="M89.81,48.75l-.26-.25-.75-.71-1.15-1.12L86.16,45.2c-.56-.53-1.16-1.11-1.83-1.69-.32-.29-.68-.57-1-.87s-.74-.59-1.14-.86-.81-.54-1.23-.82-.87-.51-1.33-.73a3.59,3.59,0,0,0-.34-.17L79.08,40l-.17-.08-.71-.31c-.23-.11-.48-.19-.72-.28L76.76,39l-1.44-.51-1.45-.46-.72-.23-.71-.21L71,37.2l-2.65-.75-1.23-.35L66,35.76l-1-.31-1-.3-.82-.26-.7-.25-1.33-.46,1.31.5.7.27.82.28.93.33,1,.34,1.13.37,1.22.39,2.63.83,1.38.45.7.23.71.25c.47.17,1,.32,1.42.5l1.43.55.7.28c.23.1.47.19.7.3l.67.32.17.08.17.09.32.18c.44.23.85.5,1.27.75s.8.54,1.17.83.73.58,1.09.86.68.59,1,.89c.64.59,1.22,1.17,1.75,1.71l1.45,1.5,1.12,1.17.73.73.26.26Z"/><path class="cls-5" d="M97.82,47.29s0-.11,0-.32,0-.51,0-.91-.07-.89-.14-1.43c0-.28-.07-.57-.12-.88s-.09-.62-.16-1-.13-.67-.22-1L97,41.22c-.05-.18-.1-.37-.14-.56-.1-.37-.22-.75-.33-1.14-.06-.2-.12-.39-.19-.59s-.12-.4-.2-.6c-.26-.8-.6-1.61-.94-2.42S94.45,34.29,94,33.5s-.9-1.56-1.4-2.29a23.81,23.81,0,0,0-1.56-2.07l-.2-.24-.21-.23-.41-.46-.42-.43-.2-.21-.21-.2L89,27l-.42-.36c-.27-.24-.55-.45-.81-.66l-.4-.29L87,25.4l-.73-.47c-.47-.27-.89-.5-1.24-.66s-.64-.28-.83-.37l-.3-.12.29.13c.19.09.48.21.82.4a13.27,13.27,0,0,1,1.21.7l.72.48.37.29q.19.13.39.3c.25.21.52.43.78.68l.41.37.39.4.21.2.19.21.4.44.39.47a2.2,2.2,0,0,1,.2.23,2.35,2.35,0,0,1,.19.25,25.13,25.13,0,0,1,1.48,2.09c.46.74.89,1.51,1.3,2.3s.76,1.6,1.08,2.41.62,1.61.86,2.4c.06.2.12.4.17.59s.11.39.17.58c.09.39.2.76.28,1.14l.12.54c0,.18.07.36.1.54.07.34.13.68.18,1s.09.64.13.94.06.58.09.84c0,.54.07,1,.08,1.38s0,.69,0,.9,0,.32,0,.32Z"/><path class="cls-5" d="M103.23,47.78a22.19,22.19,0,0,0-4-.13,31.91,31.91,0,0,0-5.14.85,53,53,0,0,0-5.92,1.82c-1,.39-2.07.83-3.12,1.31-.53.24-1.06.5-1.59.76s-1,.55-1.55.85c-2.07,1.21-4.15,2.6-6.26,4s-4.23,2.91-6.35,4.39c-4.25,3-8.48,6-12.48,8.72s-7.76,5.29-11,7.36a67.4,67.4,0,0,1-8.21,4.57,10.06,10.06,0,0,1-2.5.8c-.3,0-.53.09-.68.1h0c.15,0,.38-.07.68-.11a10.1,10.1,0,0,0,2.48-.84,66.9,66.9,0,0,0,8.1-4.71c3.25-2.12,7-4.72,10.91-7.55s8.12-5.89,12.31-8.94c2.1-1.52,4.2-3,6.29-4.51,1-.73,2.08-1.46,3.12-2.16s2.07-1.38,3.13-2c.52-.32,1-.62,1.6-.9l1.61-.78q1.6-.75,3.18-1.35a40.37,40.37,0,0,1,6-1.92,32.11,32.11,0,0,1,5.32-.78,30.09,30.09,0,0,1,4.38-.08c1.14.13,1.7.13,2.36.23a9.54,9.54,0,0,0,.45,1.57l-.65-.18A17.4,17.4,0,0,0,103.23,47.78Z"/><path class="cls-7" d="M135.89,150.55c.54,4.08,1.21,8.15,1.93,12.13s1.53,7.88,2.29,11.66,1.52,7.42,2.13,10.89a95.86,95.86,0,0,1,1.32,9.83,38.47,38.47,0,0,1,.09,4.39c0,.7-.07,1.38-.15,2s-.16,1.24-.28,1.82h.41c.12-.57.23-1.16.3-1.77s.14-1.35.18-2.06a41.55,41.55,0,0,0-.06-4.44,92.74,92.74,0,0,0-1.23-9.9c-.58-3.49-1.3-7.14-2-10.93-1.46-7.55-3-15.62-4-23.76-.51-4.07-.9-8.15-1.11-12.18s-.27-8-.15-11.82a42.64,42.64,0,0,1,1.79-10.78,35.07,35.07,0,0,1,4.06-8.86,25.46,25.46,0,0,1,5.41-6.09c.48-.38.95-.72,1.42-1s.94-.59,1.39-.85a19.51,19.51,0,0,1,2.61-1.19,18,18,0,0,1,3.88-.94l.6-.07.45,0a.65.65,0,0,0,.28-.06.37.37,0,0,0,.09-.06l-.1-1.34-.1,0a.59.59,0,0,0-.28,0l-.47,0c-.19,0-.42,0-.67.08a19.6,19.6,0,0,0-7,2.38c-.49.27-1,.58-1.48.92s-1,.72-1.51,1.12a26.94,26.94,0,0,0-5.65,6.48,36.66,36.66,0,0,0-4.1,9.22,44,44,0,0,0-1.71,11.09c-.09,3.87,0,7.87.24,11.92S135.35,146.47,135.89,150.55Z"/><path class="cls-8" d="M136.12,150.81c.54,4.08,1.21,8.14,1.93,12.12s1.52,7.89,2.29,11.66,1.51,7.42,2.13,10.89a96.23,96.23,0,0,1,1.32,9.83,41,41,0,0,1,.09,4.4c0,.69-.08,1.37-.15,2s-.14,1.06-.23,1.56h.41c.1-.49.19-1,.25-1.52s.14-1.35.17-2.05a39.18,39.18,0,0,0-.05-4.45,98.19,98.19,0,0,0-1.23-9.9c-.58-3.48-1.3-7.14-2-10.92-1.47-7.56-3-15.63-4-23.77-.51-4.07-.89-8.15-1.1-12.17s-.27-8-.15-11.83a42.27,42.27,0,0,1,1.79-10.78,35.57,35.57,0,0,1,4.05-8.86A25.49,25.49,0,0,1,147,101c.47-.38,1-.72,1.42-1a16.24,16.24,0,0,1,1.39-.85,18.76,18.76,0,0,1,2.6-1.19,17.6,17.6,0,0,1,3.89-1l.6-.06.45,0a.49.49,0,0,0,.27-.06.34.34,0,0,0,.1-.06l-.1-1.33a.24.24,0,0,0-.1,0,.59.59,0,0,0-.28,0l-.48.05c-.19,0-.42,0-.66.08a19.28,19.28,0,0,0-4.2,1.06,20.21,20.21,0,0,0-2.79,1.31c-.49.28-1,.59-1.49.92s-1,.72-1.5,1.13a26.48,26.48,0,0,0-5.65,6.47,36.38,36.38,0,0,0-4.1,9.23,43.39,43.39,0,0,0-1.71,11.09c-.09,3.87,0,7.86.24,11.91S135.57,146.72,136.12,150.81Z"/><path class="cls-7" d="M127,102c-.54,4.08-1.2,8.14-1.93,12.13s-1.52,7.88-2.29,11.66-7.3,48.35-7.92,51.83a98.33,98.33,0,0,0-1.32,9.83,43.63,43.63,0,0,0-.09,4.39c0,.69.08,1.37.15,2s.16,1.24.28,1.82h-.41q-.18-.85-.3-1.77c-.08-.67-.14-1.36-.17-2.06a41.65,41.65,0,0,1,0-4.45,97.66,97.66,0,0,1,1.23-9.89c.59-3.49,7.09-48.09,7.82-51.87,1.47-7.56,3-15.63,4-23.76.51-4.07.89-8.15,1.1-12.18s.27-8,.15-11.83a42.12,42.12,0,0,0-1.79-10.77,35.41,35.41,0,0,0-4-8.86,25.35,25.35,0,0,0-5.42-6.1c-.47-.37-1-.72-1.42-1s-.93-.6-1.39-.85a19.42,19.42,0,0,0-2.6-1.19,18,18,0,0,0-3.89-.94c-.23,0-.42,0-.6-.07l-.45,0a.62.62,0,0,1-.27,0,.21.21,0,0,1-.09-.06l.09-1.34.1-.05a.61.61,0,0,1,.28,0l.48,0c.19,0,.42,0,.66.08a18.84,18.84,0,0,1,4.2,1.07A20.08,20.08,0,0,1,114,49c.49.28,1,.59,1.49.93s1,.71,1.5,1.12a26.67,26.67,0,0,1,5.65,6.47,36.38,36.38,0,0,1,4.1,9.23,43.46,43.46,0,0,1,1.71,11.09c.09,3.87,0,7.87-.24,11.92S127.53,97.9,127,102Z"/><path class="cls-8" d="M126.76,102.23c-.54,4.08-1.21,8.15-1.94,12.13s-1.52,7.89-2.29,11.66-7.3,48.36-7.92,51.83a95.71,95.71,0,0,0-1.31,9.83,41,41,0,0,0-.1,4.39c0,.7.08,1.38.15,2s.14,1.06.23,1.57h-.41c-.1-.49-.18-1-.25-1.52s-.14-1.35-.17-2.06a41.47,41.47,0,0,1,0-4.44,98.19,98.19,0,0,1,1.23-9.9c.59-3.49,7.09-48.08,7.82-51.86,1.47-7.56,3-15.63,4-23.77.51-4.07.89-8.15,1.11-12.18s.26-8,.14-11.82a42.27,42.27,0,0,0-1.79-10.78,35.06,35.06,0,0,0-4-8.86,25.49,25.49,0,0,0-5.42-6.09c-.47-.38-1-.72-1.42-1s-.93-.59-1.39-.85a18.12,18.12,0,0,0-2.6-1.18,17.47,17.47,0,0,0-3.89-1L106,48.3l-.45,0a.61.61,0,0,1-.28-.06l-.09-.06.09-1.33.1,0a.6.6,0,0,1,.28,0l.48,0,.66.07a19.42,19.42,0,0,1,4.2,1.07,20.85,20.85,0,0,1,2.8,1.31c.48.28,1,.58,1.48.92s1,.72,1.5,1.12a26.73,26.73,0,0,1,5.65,6.48,36.31,36.31,0,0,1,4.1,9.22,43.1,43.1,0,0,1,1.71,11.1c.1,3.87,0,7.86-.24,11.91S127.3,98.15,126.76,102.23Z"/><path class="cls-7" d="M75.63,118s-.44,1,.28,4.45a5.47,5.47,0,0,0,2.93,4c.67.3,1.16-.59,1-1.68-.73-4.17-3.57-6.38-3.1-9.9l0-.16c.39-2.47,5.29-6.64,7.23-8.16l.22-.17a46.35,46.35,0,0,1,3.89-2.64,20.29,20.29,0,0,0-6.54-2.49c-2-.27-12.07-2.71-17.7,5.93,0,0,12.52-.57,10.36,3.29-1,1.86-7.45-2.67-11-1.6-3.66,1.06-10.93,9-10.31,11.93,0,0,14.62-1.8,12.87,4.34-1,3.49-9.19-4.8-14-2.5-2.67,1.28-8.21,9.21-8.41,14.24,0,0,7.85-5.34,10.69-3.7,4.72,2.77-6.21,4-7.29,4.19-4.23.47-5.07,3.13-5.27,7.5-.14,2.23-2.61,17-1.31,17.4,2.67-.34,10-4.8,11.28-6.51,1.09-1.42,5.31-11.33,4.51-7.45-.31,1.46-3.35,5.12-3.6,7.38-.16,1.55,3.94-5.75,4.69-7.3,2.14-10.09,9.32-20.8,13.48-26.41C72.48,119.44,74.52,116.28,75.63,118Z"/><path d="M75,117.79a3.79,3.79,0,0,0-.15,1.5,13,13,0,0,0,.8,4.5c.46,1.16,3.16,4.9,4.51,2.63.73-1.23,0-3.06-.46-4.24-.58-1.46-1.41-2.79-2-4.25a5.05,5.05,0,0,1-.14-4,13.28,13.28,0,0,1,2.7-3.4,42.54,42.54,0,0,1,8.07-6.32.64.64,0,0,0,0-1.08,25,25,0,0,0-12.57-3.09,15.16,15.16,0,0,0-12.53,6.76.63.63,0,0,0,.54.94,39.68,39.68,0,0,1,5.34.12,11.86,11.86,0,0,1,3.68.78c.47.21,1.55,1,.68,1.55-.41.25-1.3-.1-1.7-.22-.78-.22-1.54-.5-2.3-.77a15.63,15.63,0,0,0-5-1.19c-3,0-5.65,2.6-7.57,4.58a24.21,24.21,0,0,0-3.53,4.47,5.91,5.91,0,0,0-1.12,3.83.62.62,0,0,0,.6.46,35.62,35.62,0,0,1,6-.2c1.87.09,6.5.33,6.36,3.11-.08,1.63-1.5,1-2.53.52-1.64-.69-3.19-1.57-4.84-2.24a9.69,9.69,0,0,0-5.1-.93,6.75,6.75,0,0,0-3.74,2.42c-3.07,3.35-6,8.13-6.32,12.78a.63.63,0,0,0,.94.54,34.87,34.87,0,0,1,3.92-2.29c1.61-.81,4.44-2.35,6.25-1.35.59.33,1,.62.43,1.08a6.64,6.64,0,0,1-2.37.91,45.38,45.38,0,0,1-4.92.93c-2,.31-3.9.87-5,2.75s-1,4-1.21,6.08c-.46,4.18-1.19,8.33-1.51,12.53-.09,1.22-.46,3.12.14,4.27.72,1.37,3.35-.23,4.28-.68a37.69,37.69,0,0,0,6.61-4,9.46,9.46,0,0,0,2.79-3.54c.89-1.75,1.69-3.54,2.64-5.25.1-.18.46-.59.47-.79s0-.13,0-.09-.85-.34-.83-.36,0,.13,0,.17c-.18.27-.22.82-.38,1.15-.3.6-.67,1.18-1,1.75-.48.8-3.41,4.9-1.94,5.76,1.07.62,2.33-2.12,2.69-2.71a32.7,32.7,0,0,0,2.85-5.1c.59-1.59.85-3.34,1.41-4.95a57.21,57.21,0,0,1,2.26-5.44,102.82,102.82,0,0,1,10.39-16.78c.38-.51,2.65-4,3.44-3,.49.63,1.37-.26.88-.89-1.81-2.31-4.51,2.09-5.4,3.29-1.79,2.44-3.55,4.9-5.18,7.45A85.09,85.09,0,0,0,60.1,138c-.76,1.62-1.46,3.28-2.06,5s-.9,3.58-1.54,5.27a33.16,33.16,0,0,1-3,5.28c-.24.39-.49.78-.75,1.16a2.83,2.83,0,0,0-.32.45c-.14.35-.57.11.19.46.58.26.41.14.53-.34a6.42,6.42,0,0,1,.4-1.06,21.89,21.89,0,0,1,1.1-2c.6-1,2.8-3.65,2-5s-2,1.15-2.22,1.64c-1,1.81-1.79,3.67-2.76,5.47a10,10,0,0,1-3.77,3.6,27.28,27.28,0,0,1-7,3.63,4.5,4.5,0,0,0-.63.15s.38.13.37.14-.1-.67-.11-.74a21.11,21.11,0,0,1,.07-2.64c.3-4.27,1-8.49,1.52-12.73.25-2.13,0-4.77,1.68-6.41,1.3-1.3,3.38-1.3,5.09-1.58,1.41-.23,9.1-1.36,6.6-4.24-1.3-1.5-3.34-1.31-5.05-.79a26.28,26.28,0,0,0-6.16,3c-.39.23-.77.48-1.15.73l.94.54a16.46,16.46,0,0,1,2.43-6.92,24.83,24.83,0,0,1,4.07-5.53A4.65,4.65,0,0,1,55.36,123a26.9,26.9,0,0,1,5.5,2.27c1.19.58,2.77,1.52,4.15,1.28,1.2-.22,1.6-1.43,1.57-2.53-.08-2.9-3.62-3.69-5.91-4a32.25,32.25,0,0,0-7.73.06l.61.46c-.22-1.31,1-2.89,1.65-3.89a26.72,26.72,0,0,1,3.87-4.36,12.61,12.61,0,0,1,4.18-2.86c1.65-.55,3.55.13,5.12.66s6,2.84,6.65-.09c.53-2.34-2.77-3-4.38-3.23a35.14,35.14,0,0,0-6.8-.3l.54.94a14,14,0,0,1,11.93-6.15,23.82,23.82,0,0,1,11.46,2.93v-1.08a45.17,45.17,0,0,0-7.85,6c-2.06,2-4.25,4.25-3.81,7.33a14.66,14.66,0,0,0,1.68,4.36,17.41,17.41,0,0,1,1.15,2.84c.18.62.76,2.47-.35,1.83-1.75-1-2.18-3.34-2.38-5.16a5.06,5.06,0,0,1,0-2.29C76.54,117.38,75.33,117.05,75,117.79Z"/><path class="cls-5" d="M59.39,140.23l-.64,0-.34,0-.4.05c-.29,0-.62.06-1,.14l-.54.11a1.43,1.43,0,0,0-.28.07l-.29.08-.3.08-.15,0-.15.05-.62.22-.16,0-.15.07-.32.13c-.2.09-.42.18-.62.29l-.63.32-.61.36-.15.1-.15.1c-.09.07-.19.13-.28.21l-.27.23-.26.24c-.33.33-.63.67-.92,1-.57.68-1.07,1.32-1.54,1.85-.11.14-.23.26-.33.38l-.31.33c-.21.2-.39.38-.54.51l-.21.18a1.32,1.32,0,0,0-.16.12l-.14.1.14-.1.16-.12a2.62,2.62,0,0,0,.21-.17,5.8,5.8,0,0,0,.55-.5l.32-.33.35-.37c.47-.52,1-1.16,1.57-1.82.29-.33.6-.66.93-1l.26-.23.27-.22a2.83,2.83,0,0,1,.28-.2l.14-.1.16-.08c.2-.12.4-.24.61-.35l.62-.31c.2-.1.42-.18.62-.27l.32-.13.15-.06.16,0,.61-.2.15,0,.15,0,.29-.07.29-.07.28-.07.54-.09c.34-.07.66-.09.94-.13l.39,0h.34l.65,0Z"/><path class="cls-5" d="M68.28,130.41l-.22,0-.27-.06-.36-.08-.46-.08-.54-.08-.61-.08-.33,0-.35,0c-.48,0-1-.07-1.54-.08s-1.12,0-1.72,0-1.21,0-1.83.07l-.93,0h-.95c-.31,0-.63,0-1,0H56.05l-.24,0-.46,0c-.3,0-.6,0-.9.07l-.87.09-.42.05-.41.06-.4.06a2.32,2.32,0,0,0-.38.06l-.73.13c-.47.08-.89.19-1.27.27l-.52.13L49,131l-.84.24L49,131l.44-.12.53-.11c.38-.08.8-.18,1.27-.25l.73-.12c.12,0,.25,0,.39-.06l.39,0,.41-.06.42,0,.87-.07c.3,0,.6,0,.9,0l.46,0h1.4l1,0,.47,0h1.42l1.83,0c.59,0,1.16,0,1.7,0s1,.05,1.52.1l.34,0,.33,0c.21,0,.41.05.6.09s.37,0,.53.09l.44.09.36.08.26.06.22.06Z"/><path class="cls-5" d="M81.59,120l-.23-.13-.63-.36-1-.58-1.27-.76c-.47-.27-1-.56-1.54-.85-.27-.15-.57-.28-.86-.43s-.61-.27-.93-.39-.64-.24-1-.36-.68-.21-1-.28l-.26-.07-.13,0-.13,0-.54-.1-.54-.07L71,115.5l-1.07-.1c-.36,0-.72-.05-1.08-.08l-.53,0-.52,0-1-.05-1.94-.08-.9,0-.85,0-.77,0-.7,0-.61,0-.52,0-1-.09,1,.12L61,115l.61.06.7.07.77.06.84.06.9.06,1.94.13,1,.08.52.05.52,0c.35,0,.71.06,1.06.11l1.07.13.53.08L72,116l.52.11.12,0,.13,0,.26.07c.34.08.66.2,1,.3s.64.24.94.37.6.28.89.41.57.29.83.45c.54.29,1,.6,1.49.88l1.24.79,1,.61c.27.17.47.3.62.38l.22.14Z"/><path class="cls-5" d="M87.5,117.07s0-.07-.07-.21-.12-.34-.23-.61-.23-.58-.39-.93q-.12-.27-.27-.57c-.1-.19-.19-.4-.31-.61s-.23-.43-.36-.65a3.79,3.79,0,0,1-.2-.34c-.07-.11-.15-.22-.22-.34s-.3-.46-.46-.7l-.25-.36-.26-.36c-.35-.48-.75-1-1.15-1.43s-.86-.93-1.31-1.37-.94-.86-1.43-1.25a17.75,17.75,0,0,0-1.49-1.06l-.19-.12-.19-.11-.37-.22-.37-.2-.19-.1-.18-.09-.36-.17-.36-.16-.69-.27-.33-.11-.32-.1-.59-.16c-.38-.08-.7-.15-1-.18a5.15,5.15,0,0,0-.63-.07l-.23,0,.22,0c.15,0,.37,0,.64.1s.59.12,1,.21l.58.18.31.11.32.12c.22.09.45.17.68.29l.35.16.35.19.18.09.18.1.36.21.36.23.18.12.18.12c.49.33,1,.71,1.44,1.1s.93.83,1.36,1.27.86.92,1.25,1.39.75,1,1.08,1.44l.25.36c.07.12.15.24.23.36s.3.47.43.7l.2.35.18.33c.12.22.23.44.33.65s.2.41.29.6.16.38.24.55c.14.35.26.66.35.91s.15.46.2.6.07.22.07.22Z"/><path class="cls-5" d="M74.51,130.47a12.46,12.46,0,0,0-2.28.54,19.09,19.09,0,0,0-2.8,1.27,31.81,31.81,0,0,0-3.1,1.95c-.52.39-1,.8-1.58,1.24-.26.21-.52.44-.78.67s-.51.47-.76.72c-1,1-2,2.13-3,3.27s-2,2.31-2.94,3.49c-2,2.34-3.92,4.7-5.77,6.89s-3.61,4.22-5.17,5.9a40.22,40.22,0,0,1-4,3.88,6.63,6.63,0,0,1-1.31.84c-.17.06-.28.13-.37.16l-.11,0h0l.11,0,.37-.17a6.29,6.29,0,0,0,1.28-.86,39.28,39.28,0,0,0,3.9-3.94c1.52-1.71,3.24-3.76,5.06-6s3.72-4.61,5.64-7c1-1.2,1.92-2.39,2.88-3.55l1.45-1.71c.49-.56,1-1.11,1.47-1.64.25-.26.51-.51.78-.76s.53-.47.8-.69c.53-.45,1.07-.87,1.6-1.26a24.84,24.84,0,0,1,3.15-2A21.23,21.23,0,0,1,72,130.43a18.69,18.69,0,0,1,2.48-.72c.67-.09,1-.18,1.39-.23a4.39,4.39,0,0,0,.5.82H76A9.35,9.35,0,0,0,74.51,130.47Z"/><path class="cls-9" d="M102.6,103.19a46.48,46.48,0,0,0-2.51,7.57,8.06,8.06,0,0,1-.61,1.76,14.46,14.46,0,0,1-1.87,3.14c-3.25,3.56-3.16.58-2.82-.51a36.63,36.63,0,0,1,1.81-4.79,37.26,37.26,0,0,1,4.26-6.75c-.3-1.54-2.23-2.67-5.51-2.41a16.94,16.94,0,0,0-7.21,2.48l-.06,0a46.35,46.35,0,0,0-3.89,2.64l-.22.17c-1.94,1.52-6.84,5.69-7.23,8.16l0,.16c-.47,3.52,2.37,5.73,3.1,9.9.19,1.09-.3,2-1,1.68a5.47,5.47,0,0,1-2.93-4c-.72-3.47-.28-4.45-.28-4.45-1.11-1.67-3.15,1.49-5,4-4.16,5.61-11.34,16.32-13.48,26.41a40,40,0,0,1,5.58-7.53,60,60,0,0,1,8.28-7c3.37-2.39,9-3.84,12.94-5C90.59,127,96,125.59,101.74,126c.56,0,1.13.09,1.69.16a46.07,46.07,0,0,0,4.76-3.31c2.9-2.38,5.07-5.18,4.49-8.45s-3.53-6.65-5.64-9.56C105.09,102.14,103.71,100.07,102.6,103.19Z"/><path d="M102.06,102.87a48.23,48.23,0,0,0-2.24,6.27,18.42,18.42,0,0,1-1.72,4.7c-.26.45-2.24,3.29-2.79,2.87s.39-2.36.49-2.64a29.91,29.91,0,0,1,2.14-5,39.48,39.48,0,0,1,2.76-4.24c.41-.55.89-.92.72-1.62a2.71,2.71,0,0,0-.64-1.13c-1.87-2.12-5.6-1.76-8-1.1a26.43,26.43,0,0,0-9,4.85,36.87,36.87,0,0,0-5.69,5.26c-1.61,1.88-2.5,3.76-1.85,6.26a25.38,25.38,0,0,0,1.82,4.14,13.07,13.07,0,0,1,1,2.79c.06.28.32,1.43-.08,1.5-.16,0-.64-.39-.75-.48-1.5-1.23-1.88-3.25-2.07-5.08a4.94,4.94,0,0,1,0-2.13.63.63,0,0,0-.16-.61c-1.77-2.27-4.39,1.93-5.27,3.12-1.84,2.49-3.64,5-5.31,7.62-3.91,6.13-7.41,12.79-9,19.94a.63.63,0,0,0,1.15.48,40.27,40.27,0,0,1,8.84-10.53,33.18,33.18,0,0,1,7.59-5.3,62.85,62.85,0,0,1,9.33-3.16A97.29,97.29,0,0,1,94.19,127a35.46,35.46,0,0,1,4.71-.48q1.21,0,2.43,0a7.62,7.62,0,0,0,2.42.1,9.91,9.91,0,0,0,2.23-1.45q1-.68,2-1.41a19.05,19.05,0,0,0,3.62-3.5,7.7,7.7,0,0,0,1.33-7.58c-1.29-3.54-4-6.58-6.27-9.55-.62-.82-1.43-2.06-2.56-2.17s-1.71,1.11-2,2,.91,1.08,1.2.33.58-1.38,1.35-.68a9.8,9.8,0,0,1,1.21,1.45c1,1.35,2,2.69,3,4,1.74,2.36,4,5.39,3.24,8.49s-3.51,5.27-5.92,7q-.91.65-1.86,1.26a3.34,3.34,0,0,1-2.49.45,30.18,30.18,0,0,0-4.46,0c-6.11.49-12.13,2.4-18,4.2a34.09,34.09,0,0,0-7.78,3.2,43.64,43.64,0,0,0-6.45,4.95A40.56,40.56,0,0,0,56.58,148l1.14.49c1.38-6.31,4.31-12.2,7.63-17.69,1.42-2.33,2.93-4.6,4.51-6.82.74-1,1.5-2.07,2.27-3.09.38-.52,2.32-3.48,3.06-2.53l-.16-.61a4,4,0,0,0-.15,1.62,12.79,12.79,0,0,0,.9,4.62c.56,1.27,3.65,4.89,4.59,2,.46-1.45-.41-3.33-1-4.63a25.65,25.65,0,0,1-2-4.47c-.73-3.14,1.87-5.42,4-7.37A38.64,38.64,0,0,1,88.84,104,16.48,16.48,0,0,1,95,101.85c1.54-.16,3.88-.21,5,1.17a1.21,1.21,0,0,1,.2.3c.1.36,0,.06-.08.36a5.93,5.93,0,0,1-.8,1.1c-.58.81-1.14,1.63-1.66,2.48a30.54,30.54,0,0,0-2.26,4.5c-.47,1.18-2.35,4.82-.72,6,.92.66,2-.28,2.69-.88a12.67,12.67,0,0,0,3-4.78c.66-1.7.94-3.58,1.55-5.32.39-1.1.8-2.2,1.26-3.28C103.45,102.77,102.38,102.13,102.06,102.87Z"/><path class="cls-8" d="M103.43,126.13s20.54-8.33,25.06,75.06h2s-6-81.53-25.19-76.3Z"/><path class="cls-10" d="M64.61,203.3s4.53,12.08,63.86,11.83S191,201.19,191,201.19s6.83,19.38-62.57,20.12C60,222,64.61,203.3,64.61,203.3Z"/><path d="M265.7,200.92a1.41,1.41,0,0,0,.54.11,1.34,1.34,0,0,0,.58-.14h-1.16Z"/><path d="M265.62,200.89h0l0,0Z"/><path class="cls-1" d="M253.2,157.8c-2.76.73-4.1,1-4.36.11-.31-1.09,4.16-3,7.93-3.42a104.11,104.11,0,0,0,10.88-2.22,12.25,12.25,0,0,0-4.93-7.46c-1.71-1.12-9-1.94-12.81-1.24s-8.64,6-9.74,6.8-2.91-.19-1.8-1.82c3.91-5.74,16-8.3,16-8.3s1.11-2.15-2-3.78c-1.61-.84-13-6.82-22.82-1.83-7.44,3.77-2,19.36-2,19.36.65,1.63,2.51,4.07-4.39,6.44s-11.57,7.65-12.23,12.41,4.88,7.9,4.88,7.9c4.77-2.57,6.63-9.36,7.59-11.64s2.73.73,1.84,2.93-8.23,8.15-7.41,10.88,12.54,7.63,13.21,5.19c.77-2.78,2-7.53,1.82-10.84-.19-2.83,2-3.42,3.11-1.08s-2.41,4.9-3.6,11.37,21.32,5.48,20,3.63-1.61-3.84-2.65-5.32-5.27-13.89-1.85-12c2.57,1.45,3.16,5.48,4.38,11.85.92,4.84,5,5.59,6.62,5.23,2.06-.47,9.16-2.27,8.77-2.6s-7-7.44-7.08-9.65,3.89,2.31,4.18,3.27,3.55,3.71,5.57,4,9.6-2.94,9.35-3.76-.6-5.7-1.53-8.34c-.45-1.29-2.59-5.15-5.35-5.52-1.56-.21-13.11.92-13.81-1.41s14.67.12,14.88-.68-1-8.91-3.5-11.09S254.74,157.39,253.2,157.8Zm-16,8.24c0,1.07-.24,3.5-1,4.44-1.58,1.68-2.49-.41-2.22-1.9.17-1.77,1.28-3.57,2-5.11v0C237.33,160,237.24,164.31,237.16,166Zm8.71-.54a8,8,0,0,1,.39,2c.18,1,.58,3.8-.32,4.44-1.51,1-2.66-1.33-2.52-2.47.21-1.34.6-4,1.5-5h0C245.39,164.14,245.62,164.74,245.87,165.5Zm3.31-12.69c2.4,1.55-2.26,3-3.27,3C244,155.67,247.66,151.8,249.18,152.81ZM257.27,171c.24.83-.44,1.24-1.17.88-1.07-.54-1.51-3.37,0-2.53A7.56,7.56,0,0,1,257.27,171Zm2.82-6.51a11.15,11.15,0,0,1-3,.55c-1.22-.23-1.21-1-.27-1.71C258.21,162.34,262.12,163.19,260.09,164.52Z"/><path class="cls-11" d="M207,217.37s47.52.11,47,13.23-14.21,62.48-21.54,66.92c-8.23,5-25.37,5-25.4,5-14.33.12-21.8-2.77-25.45-4.85-7.45-4.24-21-53.8-21.54-66.92S207,217.37,207,217.37Z"/><path class="cls-3" d="M250.43,231.45c0-4.91-19.33-9.71-43.2-9.71h0c-23.87,0-43.21,4.8-43.21,9.71s19.34,8.88,43.21,8.89h0C231.1,240.33,250.43,236.35,250.43,231.45Z"/><path class="cls-4" d="M169,231.93s14.59-6.94,22.24-4.1c0,0,5.7-2.13,6.23.71a18.42,18.42,0,0,1,18.87,2.5s6.58-4.76,9.43-1.58c0,0,10.5-3.71,10.5,0,0,0,5.16-1.27,6.76,1.58,0,0,2.5-2,2.32,0,0,0-2.32,5.51-35.42,6.76S169,231.93,169,231.93Z"/><path class="cls-5" d="M231.83,156.78l-.06-.1c0-.07-.1-.16-.18-.31a4.42,4.42,0,0,1-.23-.52,3.78,3.78,0,0,1-.2-.69,1.42,1.42,0,0,1,0-.2l0-.21c0-.14,0-.28,0-.43a7.06,7.06,0,0,1,0-.92c0-.32,0-.65.1-1s.11-.65.18-1c.13-.66.28-1.3.42-1.91.07-.3.13-.59.19-.87s.1-.55.14-.79a3.27,3.27,0,0,1,0-.35,2.79,2.79,0,0,1,0-.32c0-.21,0-.38,0-.53s0-.25,0-.33v0a1.71,1.71,0,0,1,0,.34c0,.14,0,.32,0,.52s0,.21,0,.32l0,.36c0,.25-.05.52-.09.8s-.08.58-.13.89c-.1.62-.21,1.27-.3,1.92,0,.33-.09.66-.11,1s0,.64-.05.94,0,.59.05.87c0,.13,0,.26.07.39a1.16,1.16,0,0,0,0,.18c0,.06,0,.12,0,.17a4.52,4.52,0,0,0,.22.6,4.19,4.19,0,0,0,.22.43,2.28,2.28,0,0,0,.18.26.51.51,0,0,0,.07.1Z"/><path class="cls-5" d="M233.78,157.11l-.17.12-.21.13-.25.19-.32.25c-.12.09-.24.2-.37.32l-.4.37-.44.43-1,1a15.47,15.47,0,0,1-1.17,1.06,8.75,8.75,0,0,1-1.41,1c-.51.27-1,.54-1.54.8-1,.53-2,1.07-3,1.61a22.37,22.37,0,0,0-2.46,1.61,7.28,7.28,0,0,0-1.48,1.47l-.18.28-.12.22c-.06.13-.08.19-.08.19a1.94,1.94,0,0,1,.07-.19l.11-.22.18-.3a7.62,7.62,0,0,1,1.43-1.53,22,22,0,0,1,2.43-1.72c.92-.57,1.93-1.14,2.94-1.71l1.49-.85a8.58,8.58,0,0,0,1.32-1c.4-.35.76-.72,1.1-1.08s.65-.71.95-1c.14-.16.29-.31.43-.45l.4-.41c.13-.12.25-.24.38-.34a4.09,4.09,0,0,1,.33-.28c.1-.09.2-.16.28-.22l.2-.15.17-.12Z"/><path class="cls-5" d="M236.5,157.52l-.62,1-.74,1.13-1,1.46c-.35.53-.74,1.11-1.13,1.72-.19.31-.4.62-.6,1l-.61,1c-.2.34-.4.7-.6,1l-.15.27-.14.27c-.09.19-.19.37-.28.56l-.15.28-.07.13-.06.15c-.09.19-.18.38-.26.58-.18.38-.36.77-.53,1.16s-.36.77-.53,1.16l-.27.58-.25.57c-.34.77-.66,1.53-1,2.26l-.24.54-.12.27-.06.13-.05.14a5.62,5.62,0,0,0-.19.53c0,.09-.06.18-.08.26s-.05.18-.08.27a16.7,16.7,0,0,0-.41,2c-.1.63-.16,1.21-.21,1.73s-.08,1-.09,1.34,0,.66,0,.86v.31s0-.11,0-.31,0-.49,0-.86,0-.83.06-1.35.08-1.1.16-1.74.2-1.32.37-2a2.68,2.68,0,0,0,.07-.27c0-.09.05-.18.08-.27s.12-.37.18-.55l0-.14.06-.13.11-.27.22-.55c.3-.74.62-1.51.93-2.29l.24-.58c.08-.2.17-.39.25-.59.17-.39.34-.78.5-1.17s.34-.78.5-1.17c.09-.2.17-.39.25-.59l.06-.14.07-.15c.05-.09.09-.19.14-.29l.27-.56.14-.29.15-.27c.19-.36.38-.73.58-1.08s.39-.69.59-1,.39-.65.58-1c.38-.63.75-1.21,1.09-1.76l.92-1.47c.27-.45.51-.82.7-1.14l.6-1Z"/><path class="cls-5" d="M243.05,159.6l-.57,1.12c-.36.72-.87,1.74-1.41,3-.27.62-.54,1.31-.79,2.05a22.09,22.09,0,0,0-.63,2.37,17,17,0,0,0-.3,2.6c0,.45,0,.9,0,1.36,0,.22,0,.45,0,.68l0,.68c.07.91.18,1.82.29,2.72s.25,1.77.4,2.62c.07.42.16.84.23,1.24s.16.81.24,1.19c.17.77.33,1.5.5,2.17s.34,1.27.5,1.81l.22.75.21.63c.13.38.24.68.32.88l.11.31-.12-.31c-.08-.2-.2-.49-.33-.87-.07-.19-.15-.4-.23-.63s-.16-.47-.24-.74c-.17-.54-.36-1.14-.54-1.81s-.37-1.38-.55-2.15c-.09-.39-.18-.78-.27-1.19s-.17-.82-.25-1.24c-.17-.85-.32-1.73-.47-2.62s-.26-1.81-.35-2.73a21.26,21.26,0,0,1-.14-2.76,17.89,17.89,0,0,1,.26-2.67,19,19,0,0,1,.58-2.44c.24-.77.5-1.47.76-2.12.52-1.29,1-2.33,1.36-3.06l.55-1.14Z"/><path class="cls-5" d="M239.65,157.78l.19-.18c.12-.11.31-.28.53-.5l.82-.8,1.06-1.05c.4-.37.83-.79,1.3-1.2.24-.21.49-.41.75-.62a10.08,10.08,0,0,1,.81-.61c.28-.21.58-.39.88-.59s.61-.36.94-.52l.24-.12.12-.06.13-.06.5-.22a5.38,5.38,0,0,1,.51-.2,5.44,5.44,0,0,1,.52-.19l1-.36,1-.34.52-.16.5-.15,1-.29,1.89-.54.87-.25.82-.24.75-.22.67-.22.59-.18.5-.18.94-.33-.93.36-.5.19-.58.2-.67.23c-.23.09-.48.16-.74.25l-.81.26-.87.28-1.87.59-1,.32-.51.16-.5.18-1,.36-1,.39-.5.2c-.16.07-.33.13-.49.21l-.49.23-.12.06-.11.06-.24.13c-.31.16-.6.36-.9.54s-.57.38-.83.59-.52.41-.77.61-.49.42-.71.63c-.46.42-.87.84-1.25,1.22l-1,1.07-.8.83-.52.53-.19.18Z"/><path class="cls-5" d="M234,156.74v-.23c0-.15,0-.36,0-.65s0-.63.09-1c0-.19,0-.4.09-.62s.06-.44.11-.68.1-.49.16-.74l.09-.38c0-.13.06-.27.1-.4s.15-.54.23-.82.09-.27.13-.42l.14-.42c.2-.57.43-1.15.68-1.73s.54-1.15.84-1.71.64-1.11,1-1.63a16.79,16.79,0,0,1,1.11-1.48,2.09,2.09,0,0,0,.14-.17l.15-.16.29-.33c.11-.1.2-.2.3-.31l.15-.15.15-.14.3-.28.29-.25c.2-.18.4-.32.59-.47s.19-.14.28-.21l.27-.19.52-.33c.34-.2.64-.36.89-.48l.59-.26.21-.08-.2.09c-.14.06-.34.15-.59.28s-.53.3-.86.5l-.51.35-.27.2-.27.21c-.18.15-.38.31-.56.48l-.29.27-.28.28-.15.15-.14.15c-.09.1-.18.21-.28.31l-.28.33c0,.06-.09.12-.14.17l-.14.18a17.09,17.09,0,0,0-1,1.49c-.33.52-.63,1.07-.92,1.63s-.54,1.14-.78,1.72-.43,1.15-.6,1.71c0,.14-.09.28-.13.42l-.12.42c-.06.27-.14.54-.19.8l-.09.39c0,.13,0,.26-.08.38s-.08.49-.12.72-.06.46-.09.67-.05.42-.07.61c0,.38-.05.71-.06,1s0,.48,0,.63v.23Z"/><path class="cls-5" d="M230.09,157.09a15.56,15.56,0,0,1,2.82-.09,22.76,22.76,0,0,1,3.66.6,36.38,36.38,0,0,1,4.22,1.3c.73.28,1.48.59,2.22.93.38.18.76.35,1.13.54s.74.39,1.11.61c1.47.86,3,1.85,4.46,2.87s3,2.07,4.53,3.13c3,2.11,6,4.24,8.88,6.21s5.53,3.76,7.87,5.24a47.73,47.73,0,0,0,5.85,3.25,7.47,7.47,0,0,0,1.78.57c.22,0,.38.06.49.07a.47.47,0,0,0,.12,0h-.12c-.11,0-.27-.06-.49-.08a7.13,7.13,0,0,1-1.76-.6,46.62,46.62,0,0,1-5.78-3.35c-2.31-1.51-5-3.36-7.77-5.38s-5.78-4.2-8.77-6.37c-1.49-1.08-3-2.16-4.47-3.21-.74-.52-1.49-1-2.23-1.54s-1.47-1-2.22-1.44c-.38-.22-.76-.44-1.15-.64s-.76-.38-1.14-.55c-.76-.36-1.52-.68-2.27-1a29.48,29.48,0,0,0-4.3-1.37,23.83,23.83,0,0,0-3.8-.55,21,21,0,0,0-3.12-.06c-.81.1-1.2.09-1.68.17a5.8,5.8,0,0,1-.32,1.11l.47-.12A13.71,13.71,0,0,1,230.09,157.09Z"/><path class="cls-6" d="M149.75,120.61c-2.51,2.19-3.71,10.28-3.5,11.09s15.58-1.64,14.88.68-12.25,1.2-13.81,1.41c-2.76.37-4.9,4.23-5.36,5.52-.92,2.64-1.28,7.52-1.53,8.34s7.33,4,9.35,3.76,5.29-3,5.58-4,4.25-5.49,4.18-3.27-6.68,9.33-7.08,9.66,6.71,2.13,8.77,2.59c1.62.36,5.7-.38,6.62-5.22,1.21-6.37,1.81-10.4,4.38-11.85,3.42-1.94-.82,10.47-1.86,12s-1.34,3.48-2.64,5.32,21.2,2.85,20-3.62-4.75-9-3.6-11.38,3.3-1.74,3.11,1.08c-.23,3.31,1.05,8.06,1.81,10.84.67,2.44,12.39-2.45,13.22-5.18s-6.53-8.68-7.42-10.88.9-5.23,1.85-2.94,2.82,9.07,7.59,11.64c0,0,5.54-3.13,4.88-7.9s-5.34-10-12.23-12.41-5-4.8-4.39-6.43c0,0,5.39-15.6-2-19.37-9.84-5-21.21,1-22.82,1.83-3.15,1.63-2,3.79-2,3.79s12.06,2.55,16,8.29c1.1,1.63-.69,2.61-1.8,1.83s-5.92-6.11-9.74-6.81-11.1.13-12.82,1.24a12.29,12.29,0,0,0-4.92,7.46,101.43,101.43,0,0,0,10.88,2.22c3.76.39,8.24,2.33,7.92,3.43-.25.86-1.59.62-4.35-.11C165.26,122.8,152.35,118.34,149.75,120.61Zm34.4,8.24v0c.68,1.54,1.79,3.35,2,5.11.28,1.49-.63,3.58-2.22,1.91-.8-.95-1-3.38-1-4.44C182.77,129.72,182.68,125.43,184.15,128.85Zm-9.07,1.07h0c.9,1,1.29,3.62,1.49,4.95.15,1.15-1,3.51-2.51,2.47-.91-.63-.5-3.46-.32-4.44a8.05,8.05,0,0,1,.39-2C174.38,130.14,174.62,129.54,175.08,129.92Zm-1-8.69c-1,0-5.67-1.46-3.27-3C172.35,117.2,176.05,121.08,174.1,121.23ZM164,134.79c1.47-.85,1,2,0,2.52-.73.37-1.41-.05-1.17-.88A7.49,7.49,0,0,1,164,134.79Zm-.78-6c.94.7,1,1.49-.27,1.72a11.56,11.56,0,0,1-3-.55C157.89,128.59,161.8,127.74,163.17,128.76Z"/><path class="cls-5" d="M188.18,122.18l.06-.1c0-.07.1-.15.18-.31a4.21,4.21,0,0,0,.23-.51,5.35,5.35,0,0,0,.2-.7c0-.06,0-.13,0-.2l0-.2c0-.14,0-.29,0-.43a7.21,7.21,0,0,0,0-.93,8,8,0,0,0-.11-1c0-.33-.1-.66-.17-1-.13-.65-.29-1.3-.42-1.91-.07-.3-.13-.59-.19-.87s-.1-.54-.14-.79,0-.24-.05-.35,0-.22,0-.32,0-.38,0-.52,0-.26,0-.34v-.12a1.09,1.09,0,0,1,0,.12c0,.08,0,.19,0,.34s0,.32,0,.52,0,.21,0,.33l0,.35q0,.38.09.81c0,.28.08.58.13.89.1.61.21,1.26.3,1.92.05.33.08.65.11,1s0,.64,0,.94a6,6,0,0,1-.05.87c0,.13,0,.27-.06.39s0,.13,0,.19,0,.11,0,.17a3.8,3.8,0,0,1-.21.6,3.92,3.92,0,0,1-.22.42c-.06.11-.14.2-.18.27l-.07.09Z"/><path class="cls-5" d="M186.22,122.52l.18.11.21.14.25.19a2.85,2.85,0,0,1,.32.25l.36.31.41.37.44.44,1,1a15.52,15.52,0,0,0,1.17,1.07,9,9,0,0,0,1.41,1l1.53.8c1,.53,2.06,1.06,3,1.6a21.62,21.62,0,0,1,2.47,1.62,7.55,7.55,0,0,1,1.48,1.46l.18.29c0,.08.09.15.12.22l.08.19-.08-.2a1.48,1.48,0,0,0-.11-.22,2.38,2.38,0,0,0-.17-.29,7.13,7.13,0,0,0-1.43-1.53,21.65,21.65,0,0,0-2.43-1.72c-.92-.58-1.93-1.15-2.94-1.72-.5-.28-1-.56-1.5-.85a9,9,0,0,1-1.31-1c-.4-.35-.76-.72-1.1-1.08s-.65-.71-1-1l-.43-.46c-.14-.14-.27-.28-.41-.4l-.37-.35c-.12-.1-.22-.2-.33-.28l-.28-.22-.2-.14-.17-.12Z"/><path class="cls-5" d="M183.5,122.92l.63,1c.2.32.45.7.73,1.13s.61.93,1,1.46.73,1.11,1.12,1.73c.2.3.41.62.61.94l.61,1c.2.35.39.7.6,1.05l.15.27.14.28.28.55c0,.09.1.19.14.28a.61.61,0,0,1,.07.14l.07.14c.09.19.17.39.26.58.18.38.35.77.53,1.16s.35.78.53,1.16c.09.2.18.39.26.58s.17.39.26.58c.33.77.66,1.52,1,2.25l.24.55.12.26,0,.14.05.13c.07.18.15.36.2.53s.05.18.08.27l.08.26a18.9,18.9,0,0,1,.41,2c.1.63.16,1.21.21,1.73s.07,1,.09,1.34,0,.67,0,.87v.3s0-.1,0-.3,0-.5,0-.87,0-.82-.06-1.34-.08-1.11-.17-1.74a17,17,0,0,0-.37-2l-.06-.27a2.76,2.76,0,0,1-.08-.27c0-.18-.12-.36-.18-.54l-.05-.14-.06-.14-.11-.27c-.07-.18-.15-.36-.22-.55q-.46-1.11-.93-2.28l-.24-.59c-.09-.19-.17-.39-.25-.58-.17-.39-.34-.78-.5-1.18l-.51-1.17-.24-.58-.07-.15a1,1,0,0,0-.07-.15l-.13-.28-.28-.57c0-.1-.09-.19-.13-.28l-.15-.28c-.2-.36-.38-.72-.58-1.07l-.59-1c-.19-.33-.39-.65-.58-1-.38-.63-.75-1.21-1.09-1.75l-.92-1.48c-.28-.44-.52-.82-.71-1.14l-.6-1Z"/><path class="cls-5" d="M177,125l.58,1.13c.36.71.87,1.73,1.41,3,.27.63.54,1.32.79,2.06a19.49,19.49,0,0,1,.62,2.37,18,18,0,0,1,.31,2.6c0,.44,0,.9,0,1.35l0,.68,0,.69c-.08.91-.18,1.82-.29,2.71s-.26,1.77-.41,2.62c-.07.43-.15.84-.22,1.25s-.17.8-.24,1.19q-.26,1.16-.51,2.16c-.16.67-.33,1.28-.49,1.81l-.23.75c-.07.23-.14.45-.21.64-.12.38-.23.67-.31.87s-.11.31-.11.31l.12-.3c.08-.2.2-.5.33-.87.07-.19.15-.4.23-.63s.15-.48.24-.75c.17-.53.35-1.14.54-1.8s.36-1.39.55-2.16c.08-.39.17-.78.26-1.19s.18-.82.26-1.24c.17-.85.32-1.72.46-2.62s.26-1.81.36-2.73a19.48,19.48,0,0,0,.13-2.75,16.68,16.68,0,0,0-.25-2.68,18.94,18.94,0,0,0-.59-2.44c-.23-.76-.49-1.47-.75-2.12-.52-1.29-1-2.33-1.36-3.06l-.55-1.14Z"/><path class="cls-5" d="M180.36,123.19l-.19-.18-.53-.51-.82-.8-1.06-1c-.4-.38-.83-.79-1.31-1.21-.23-.21-.49-.41-.74-.62s-.53-.42-.81-.61-.58-.39-.88-.58-.62-.37-.94-.52l-.24-.13-.13-.06-.12-.06-.5-.22-.52-.2-.51-.19-1-.36c-.34-.12-.69-.22-1-.33l-.51-.16-.51-.16-1-.29-1.89-.54-.88-.25-.81-.24-.75-.22-.67-.21-.59-.19-.5-.17-.94-.33.93.35.49.19.59.21.67.23.74.24.81.27.86.27,1.88.59,1,.32.5.17.51.17,1,.36,1,.39.5.21.49.2.48.24.12,0,.12.07.23.12c.32.17.61.36.9.54s.57.38.84.59.52.41.77.61.49.42.71.64c.46.41.87.83,1.25,1.22l1,1.07c.3.32.57.59.8.82l.52.53.18.18Z"/><path class="cls-5" d="M186.06,122.15s0-.08,0-.23,0-.37,0-.66-.05-.62-.09-1c0-.2-.05-.41-.09-.62s-.07-.45-.12-.69-.09-.48-.15-.73l-.09-.39c0-.13-.07-.26-.1-.4s-.15-.54-.23-.81-.09-.28-.13-.42-.09-.29-.15-.43c-.19-.57-.42-1.14-.67-1.72s-.54-1.15-.85-1.72-.64-1.11-1-1.63a17.11,17.11,0,0,0-1.11-1.47l-.15-.18-.14-.16-.3-.33-.3-.3-.14-.15-.15-.14-.3-.28-.3-.26c-.19-.17-.39-.32-.58-.47l-.28-.2-.28-.2-.52-.33c-.33-.19-.63-.36-.88-.47s-.46-.2-.59-.26l-.22-.09.21.09c.14.07.34.15.58.28s.54.3.87.5l.51.35.26.2.28.22c.18.15.37.3.56.48l.29.26.28.29.14.14.14.15.29.32.28.33.14.16.13.18a16.48,16.48,0,0,1,1,1.49,18.75,18.75,0,0,1,.93,1.64c.28.56.54,1.14.77,1.71s.44,1.15.61,1.72c.05.14.09.28.13.42l.11.41c.07.27.15.54.2.81l.09.39c0,.12.05.25.07.38s.09.49.13.72.06.45.09.67,0,.41.07.6c0,.38,0,.71,0,1s0,.49,0,.64v.22Z"/><path class="cls-5" d="M189.91,122.49a15.48,15.48,0,0,0-2.82-.09,23,23,0,0,0-3.66.61,36.71,36.71,0,0,0-4.21,1.29c-.73.28-1.48.59-2.23.94l-1.13.53-1.1.61c-1.48.86-3,1.86-4.46,2.87s-3,2.07-4.53,3.13c-3,2.11-6,4.24-8.88,6.21s-5.53,3.77-7.88,5.24a48.67,48.67,0,0,1-5.84,3.26,7.47,7.47,0,0,1-1.78.57c-.22,0-.38.06-.49.07h0c.11,0,.27-.05.49-.07a7.38,7.38,0,0,0,1.76-.61,46.62,46.62,0,0,0,5.77-3.35c2.32-1.51,5-3.36,7.78-5.37s5.78-4.2,8.76-6.37c1.5-1.09,3-2.17,4.48-3.22.74-.52,1.48-1,2.22-1.54s1.48-1,2.23-1.44c.37-.22.75-.44,1.14-.64l1.15-.55c.76-.35,1.52-.67,2.27-1a29.39,29.39,0,0,1,4.3-1.36,24,24,0,0,1,3.79-.56,20.88,20.88,0,0,1,3.12,0c.81.09,1.21.09,1.69.16a5.41,5.41,0,0,0,.32,1.12l-.47-.13A13.62,13.62,0,0,0,189.91,122.49Z"/><path class="cls-7" d="M213.17,195.69c.39,2.91.87,5.8,1.38,8.64s1.09,5.62,1.63,8.31,1.08,5.28,1.52,7.75a67.15,67.15,0,0,1,.94,7,30.33,30.33,0,0,1,.07,3.13c0,.5-.06,1-.11,1.45s-.12.88-.2,1.3h.29c.09-.41.16-.83.22-1.27s.09-1,.12-1.46a28.2,28.2,0,0,0,0-3.17,66.78,66.78,0,0,0-.88-7.05c-.41-2.48-.92-5.09-1.44-7.78-1-5.38-2.14-11.13-2.86-16.93-.37-2.9-.64-5.8-.79-8.67s-.19-5.69-.1-8.42a30,30,0,0,1,1.27-7.68,24.93,24.93,0,0,1,2.89-6.31,18.16,18.16,0,0,1,3.85-4.34c.34-.27.68-.51,1-.74s.67-.42,1-.6a12.9,12.9,0,0,1,1.85-.85,13.21,13.21,0,0,1,2.77-.67l.42-.05.32,0a.69.69,0,0,0,.2,0l.07-.05-.07-.95-.07,0a.43.43,0,0,0-.2,0l-.34,0-.47,0a13.66,13.66,0,0,0-3,.76,15.22,15.22,0,0,0-2,.93c-.34.2-.7.42-1.05.66s-.72.51-1.07.8a19.2,19.2,0,0,0-4,4.61,26.13,26.13,0,0,0-2.92,6.57,30.93,30.93,0,0,0-1.21,7.9c-.07,2.76,0,5.61.17,8.49S212.79,192.79,213.17,195.69Z"/><path class="cls-8" d="M213.34,195.87c.38,2.91.86,5.8,1.38,8.64s1.08,5.62,1.63,8.31,1.07,5.28,1.51,7.75a67.5,67.5,0,0,1,.94,7,27.76,27.76,0,0,1,.07,3.13c0,.5-.06,1-.11,1.45s-.1.76-.16,1.12h.29c.07-.35.13-.71.18-1.09s.1-1,.12-1.46a28.2,28.2,0,0,0,0-3.17,69.36,69.36,0,0,0-.87-7.05c-.42-2.48-.93-5.09-1.45-7.78-1.05-5.38-2.14-11.13-2.86-16.93-.36-2.89-.64-5.8-.79-8.67s-.19-5.69-.1-8.42a30.38,30.38,0,0,1,1.27-7.68,24.93,24.93,0,0,1,2.89-6.31,18.19,18.19,0,0,1,3.86-4.34c.33-.27.67-.51,1-.74s.66-.42,1-.6a12.9,12.9,0,0,1,1.85-.85,13.21,13.21,0,0,1,2.77-.67l.43,0,.32,0a.69.69,0,0,0,.19,0l.07-.05-.07-.95a.14.14,0,0,0-.07,0,.42.42,0,0,0-.2,0l-.34,0-.47.05a13.66,13.66,0,0,0-3,.76,15.13,15.13,0,0,0-2,.93c-.35.2-.7.42-1.06.66s-.71.51-1.07.8a19.2,19.2,0,0,0-4,4.61,25.76,25.76,0,0,0-2.91,6.57,30.94,30.94,0,0,0-1.22,7.91c-.07,2.75,0,5.6.17,8.48S213,193,213.34,195.87Z"/><path class="cls-7" d="M206.83,161.1c-.38,2.9-.86,5.8-1.38,8.63s-1.08,5.62-1.63,8.31-5.2,34.44-5.64,36.92-.78,4.82-.94,7a30.18,30.18,0,0,0-.06,3.13c0,.49,0,1,.11,1.44a10.69,10.69,0,0,0,.2,1.3h-.29a12.74,12.74,0,0,1-.22-1.26q-.09-.72-.12-1.47a30.7,30.7,0,0,1,0-3.17,69.51,69.51,0,0,1,.88-7.05c.42-2.48,5-34.24,5.57-36.94,1-5.38,2.14-11.13,2.86-16.92.36-2.9.64-5.81.79-8.68s.19-5.69.1-8.42a30.38,30.38,0,0,0-1.27-7.68,25.09,25.09,0,0,0-2.89-6.31,18.19,18.19,0,0,0-3.86-4.34c-.33-.26-.67-.51-1-.73a10.59,10.59,0,0,0-1-.61,13.19,13.19,0,0,0-4.62-1.52l-.43,0-.32,0a.45.45,0,0,1-.19,0l-.07,0,.07-1,.07,0a.42.42,0,0,1,.2,0l.34,0,.47.06a13.1,13.1,0,0,1,3,.76,12.93,12.93,0,0,1,2,.93c.35.2.7.41,1.06.66s.71.51,1.07.8a18.82,18.82,0,0,1,4,4.61,25.6,25.6,0,0,1,2.91,6.57,30.86,30.86,0,0,1,1.22,7.9c.07,2.75,0,5.6-.17,8.48S207.22,158.19,206.83,161.1Z"/><path class="cls-8" d="M206.67,161.28c-.38,2.91-.86,5.8-1.38,8.64s-1.08,5.61-1.63,8.3-5.2,34.44-5.64,36.92a69.56,69.56,0,0,0-.94,7,30.18,30.18,0,0,0-.06,3.13c0,.49,0,1,.1,1.44s.1.76.17,1.12H197c-.07-.35-.13-.71-.17-1.08s-.1-1-.13-1.47a30.56,30.56,0,0,1,0-3.16,68.82,68.82,0,0,1,.88-7.05c.41-2.49,5-34.25,5.57-36.95,1-5.38,2.14-11.13,2.86-16.92.36-2.9.63-5.81.79-8.68s.19-5.69.1-8.42a30.38,30.38,0,0,0-1.27-7.68,25.2,25.2,0,0,0-2.89-6.3,18,18,0,0,0-3.86-4.34c-.34-.27-.68-.52-1-.74s-.67-.43-1-.61a13.28,13.28,0,0,0-1.85-.84,12.74,12.74,0,0,0-2.77-.68l-.43,0-.32,0a.37.37,0,0,1-.2,0l-.06,0,.07-1,.07,0a.4.4,0,0,1,.2,0l.34,0,.47.06a13.94,13.94,0,0,1,3,.76,14.47,14.47,0,0,1,2,.93c.35.2.7.42,1.06.66s.71.51,1.07.8a19,19,0,0,1,4,4.61,26,26,0,0,1,2.92,6.57,30.86,30.86,0,0,1,1.22,7.9c.07,2.75,0,5.6-.17,8.49S207.06,158.37,206.67,161.28Z"/><path class="cls-7" d="M170.26,172.48s-.32.69.19,3.16a3.9,3.9,0,0,0,2.09,2.87c.48.21.83-.43.69-1.2-.52-3-2.54-4.54-2.2-7.05,0,0,0-.08,0-.12.28-1.76,3.77-4.73,5.16-5.81l.15-.12c.77-.59,1.88-1.34,2.77-1.88a14.86,14.86,0,0,0-4.65-1.78c-1.42-.18-8.6-1.93-12.61,4.23,0,0,8.92-.41,7.37,2.35-.74,1.32-5.3-1.91-7.79-1.15s-7.79,6.38-7.34,8.5c0,0,10.41-1.28,9.16,3.09-.71,2.49-6.54-3.42-9.95-1.78-1.91.91-5.85,6.56-6,10.14,0,0,5.59-3.8,7.62-2.63,3.36,2-4.43,2.83-5.2,3-3,.34-3.61,2.23-3.75,5.35-.1,1.58-1.86,12.14-.93,12.39,1.9-.24,7.12-3.42,8-4.64.78-1,3.78-8.07,3.21-5.31-.21,1.05-2.39,3.65-2.56,5.26-.12,1.11,2.81-4.1,3.34-5.2,1.53-7.18,6.64-14.82,9.6-18.81C168,173.54,169.47,171.28,170.26,172.48Z"/><path d="M169.65,172.31a4.2,4.2,0,0,0-.07,1.8,6.89,6.89,0,0,0,1.3,3.87c.47.57,1.39,1.43,2.2,1.11,1.27-.5.73-2.35.41-3.27-.48-1.36-1.37-2.59-1.73-4s.15-2.45,1.12-3.57a27.44,27.44,0,0,1,6.56-5.39.63.63,0,0,0,0-1.08c-5.92-3.13-14-3.47-18.12,2.68a.63.63,0,0,0,.54.94,27.35,27.35,0,0,1,3.62.07,8.94,8.94,0,0,1,2.61.5c.42.18,1.11.69.34.84s-2.3-.68-3.11-.95a8.39,8.39,0,0,0-3.42-.61c-2,.21-3.87,2.06-5.2,3.45s-3.53,3.74-3.21,5.94a.62.62,0,0,0,.61.45c1.38-.16,9.61-.74,8.6,2.12-.28.81-1.63-.06-2.17-.31a33,33,0,0,0-3.54-1.59,4.93,4.93,0,0,0-5.94,1.6c-2.13,2.42-4.15,5.72-4.37,9a.63.63,0,0,0,.94.54,25.48,25.48,0,0,1,2.82-1.63c1-.49,3.57-1.92,4.54-.75.1.12.13.24.17.11,0,.15-.48.32-.6.37a9.61,9.61,0,0,1-2,.59c-1,.22-2,.37-3,.52a4.24,4.24,0,0,0-3.62,2.51,16.05,16.05,0,0,0-.69,4.32c-.37,3-.89,6.07-1.07,9.13,0,.74-.24,2,.24,2.64.69.92,2.56-.22,3.31-.59a26.13,26.13,0,0,0,4.76-2.93,6.9,6.9,0,0,0,2-2.57c.62-1.23,1.19-2.49,1.86-3.69.06-.11.32-.42.32-.53,0-.5-.71-.51-.92-.23s-.26.73-.4,1c-.24.45-.52.87-.78,1.31-.42.69-2.11,3.05-1.22,3.88s1.74-1,2.06-1.52a22.59,22.59,0,0,0,2.29-4.1c.49-1.39.75-2.86,1.27-4.26a43.67,43.67,0,0,1,1.87-4.2,65.38,65.38,0,0,1,4.26-7.17c.47-.7,4.33-6.24,4.74-5.75s1.4-.27.89-.89c-1.27-1.52-2.9.74-3.62,1.69-1.35,1.79-2.66,3.62-3.88,5.5-2.82,4.35-5.41,9.09-6.6,14.17a15.46,15.46,0,0,1-2.11,4.07c-.17.27-1,1.23-1,1.51l.46.14c.34.28.52.25.52-.1a3.52,3.52,0,0,0,.31-.79,17,17,0,0,1,.87-1.55c.45-.75,1.88-2.52,1.27-3.52s-1.41.29-1.69.79c-.69,1.24-1.27,2.55-1.92,3.81a6.7,6.7,0,0,1-2.5,2.73,20.92,20.92,0,0,1-5.17,2.76,1.66,1.66,0,0,0-.39.11l-.17,0a.4.4,0,0,1,.44.23s-.07-.42-.07-.45c.06-.65,0-1.32.05-2,.22-3,.75-6,1.08-9.06.18-1.58,0-3.73,1.55-4.71,1-.66,2.58-.65,3.75-.86s3-.44,4-1.32.39-1.95-.6-2.49c-1.42-.77-3.26,0-4.59.59a24.34,24.34,0,0,0-3.67,2l.94.54c.21-3.19,2.48-6.84,4.81-9s5.37.22,7.59,1.22a3.84,3.84,0,0,0,2.63.55,1.9,1.9,0,0,0,1-2c-.16-2.08-2.62-2.67-4.3-2.88a23.15,23.15,0,0,0-5.58,0l.6.46c-.14-1,.81-2.16,1.33-2.88a19.19,19.19,0,0,1,2.87-3.1,6.44,6.44,0,0,1,3.09-1.82,9.36,9.36,0,0,1,4,.9c1.25.44,4,1.46,4.08-.82.06-1.62-2.13-2-3.32-2.22a24.7,24.7,0,0,0-4.86-.21l.54.94c3.74-5.55,11.14-5,16.41-2.23v-1.08a33,33,0,0,0-5.46,4.17c-1.38,1.32-3,2.91-3,5a7.47,7.47,0,0,0,.91,3c.29.59.6,1.17.85,1.79a8.58,8.58,0,0,1,.59,2.18c-.3.13-1.08-1-1.2-1.19a5.75,5.75,0,0,1-.61-2.08,4.32,4.32,0,0,1,0-2C171.16,171.9,170,171.57,169.65,172.31Z"/><path class="cls-5" d="M158.69,188.34l-.46,0-.24,0-.29,0c-.2,0-.44.05-.68.1l-.39.08-.2,0-.21.06-.21.05-.11,0-.11,0-.44.15-.11,0-.11.05-.22.1a4.43,4.43,0,0,0-.45.2l-.44.23-.44.26-.1.06-.11.07-.2.15-.2.17-.18.17c-.23.23-.45.48-.65.71-.41.48-.77.95-1.1,1.32l-.24.27c-.07.09-.15.16-.22.24s-.27.27-.38.36l-.15.13-.12.08-.1.07.1-.07.12-.08.15-.12c.12-.1.24-.22.39-.36l.23-.23.24-.27c.34-.37.71-.82,1.13-1.29a7.21,7.21,0,0,1,.66-.7l.18-.17.19-.15.2-.15a.6.6,0,0,1,.11-.06l.11-.07.43-.24.44-.22a4.32,4.32,0,0,1,.45-.19l.22-.1.11,0,.11,0,.44-.14.1,0,.11,0,.21-.05.21-.06.19,0,.39-.07c.24-.05.47-.06.67-.09l.28,0h.24l.46,0Z"/><path class="cls-5" d="M165,181.35l-.16,0-.19,0-.26-.06-.32-.06-.39-.05c-.13,0-.28,0-.43-.06l-.24,0-.25,0-1.1-.05h-1.22l-1.3.05-.67,0h-2.68l-.64.05-.62.06-.3,0-.29,0-.28,0-.28,0-.52.09c-.33.06-.63.14-.9.2l-.37.08-.32.09-.59.17.59-.16.32-.08.38-.08c.26,0,.57-.13.9-.18l.52-.08.27,0,.29,0,.29,0,.3,0,.62,0c.21,0,.42,0,.64,0h1.32l.68,0h1.34l1.31,0,1.21,0,1.08.07.25,0,.23,0,.43.07.37.06.32.07.25.05.19,0,.16,0Z"/><path class="cls-5" d="M174.5,173.93l-.16-.09c-.11-.06-.26-.14-.45-.26l-.7-.41-.9-.54L171.2,172l-.62-.3a6.54,6.54,0,0,0-.66-.28c-.22-.1-.46-.17-.7-.26s-.48-.15-.73-.2l-.19,0-.09,0h-.1l-.38-.07-.38-.05-.39-.05-.76-.08-.76-.05-.38,0-.37,0-.74,0-1.38-.06-.64,0-.6,0-.55,0-.5,0-.44,0-.37,0-.7-.07.7.09.37,0,.44,0,.49.05.55,0,.6.05.64,0,1.38.1.73.05.38,0,.37,0c.25,0,.5,0,.76.08l.76.09.37.06.38.06.37.08.09,0,.09,0,.18.05c.24.06.48.14.71.22l.67.26c.22.09.43.2.63.3s.41.2.6.31c.38.21.73.43,1.06.63l.88.56.69.44.44.27.16.1Z"/><path class="cls-5" d="M178.71,171.85l-.05-.16-.16-.43c-.07-.19-.17-.41-.28-.66s-.12-.27-.19-.4-.14-.29-.23-.44-.16-.31-.25-.46l-.15-.24-.15-.25c-.1-.17-.22-.33-.33-.5l-.18-.25-.18-.26c-.25-.34-.53-.68-.82-1s-.61-.66-.94-1a10.54,10.54,0,0,0-1-.89,10.4,10.4,0,0,0-1.06-.76l-.14-.09-.13-.07-.27-.16-.26-.14-.13-.07-.14-.07-.25-.12-.26-.11c-.17-.08-.33-.13-.49-.19a1.13,1.13,0,0,0-.24-.08l-.22-.08-.42-.11-.7-.13-.45-.05h-.16l.16,0a4,4,0,0,1,.45.06c.19,0,.42.09.69.15l.41.13.22.08.23.08.48.21.25.12.25.13.13.07.13.07.26.15.26.16.13.09.12.08c.35.24.69.51,1,.79s.66.59,1,.9.61.65.88,1,.54.68.78,1l.17.25.17.26c.1.17.21.33.3.5s.1.16.14.24.09.16.13.24.17.31.24.46.14.3.21.43.11.27.17.4.18.46.24.64.11.33.15.43,0,.15,0,.15Z"/><path class="cls-5" d="M169.45,181.39a9.41,9.41,0,0,0-1.62.38,13.61,13.61,0,0,0-2,.91,21.5,21.5,0,0,0-2.21,1.39c-.37.27-.75.57-1.12.88-.19.15-.38.31-.56.48l-.54.51c-.71.73-1.4,1.52-2.1,2.33s-1.4,1.65-2.1,2.48c-1.4,1.67-2.79,3.35-4.11,4.91s-2.57,3-3.68,4.21a28.78,28.78,0,0,1-2.83,2.76,4.5,4.5,0,0,1-.93.6l-.27.11-.07,0h0l.07,0c.07,0,.15-.07.27-.12a4.19,4.19,0,0,0,.91-.61,28.46,28.46,0,0,0,2.78-2.81c1.09-1.22,2.31-2.68,3.6-4.26s2.65-3.29,4-5c.68-.85,1.37-1.69,2.05-2.52.35-.41.69-.82,1-1.22s.69-.79,1-1.17l.56-.54.57-.49q.57-.48,1.14-.9a17.49,17.49,0,0,1,2.24-1.44,14.84,14.84,0,0,1,2.08-.91,12.48,12.48,0,0,1,1.77-.51c.48-.07.7-.13,1-.16a3.58,3.58,0,0,0,.35.58h-.29A8.26,8.26,0,0,0,169.45,181.39Z"/><path class="cls-9" d="M189.46,162a33.49,33.49,0,0,0-1.79,5.39,5.21,5.21,0,0,1-.43,1.26,10.28,10.28,0,0,1-1.33,2.23c-2.32,2.54-2.25.41-2-.36a25.77,25.77,0,0,1,1.29-3.41,26.59,26.59,0,0,1,3-4.81c-.22-1.1-1.59-1.9-3.93-1.72a12.25,12.25,0,0,0-5.14,1.77l0,0c-.89.54-2,1.29-2.77,1.88l-.15.12c-1.39,1.08-4.88,4-5.16,5.81,0,0,0,.08,0,.12-.34,2.51,1.68,4.08,2.2,7.05.14.77-.21,1.41-.69,1.2a3.9,3.9,0,0,1-2.09-2.87c-.51-2.47-.19-3.16-.19-3.16-.79-1.2-2.25,1.06-3.59,2.84-3,4-8.07,11.63-9.6,18.81a28.44,28.44,0,0,1,4-5.36,42.35,42.35,0,0,1,5.89-5c2.4-1.7,6.38-2.73,9.22-3.56,4.75-1.37,8.63-2.35,12.69-2.08l1.21.12a32.49,32.49,0,0,0,3.38-2.36c2.07-1.69,3.62-3.69,3.21-6s-2.52-4.74-4-6.81C191.24,161.21,190.25,159.74,189.46,162Z"/><path d="M188.92,161.64a36.39,36.39,0,0,0-1.54,4.28,14.51,14.51,0,0,1-1,3.12,6.77,6.77,0,0,1-1.18,1.69,4.77,4.77,0,0,1-.64.55c-.37.28-.08.19-.1.05a5.9,5.9,0,0,1,.68-2.42,20.86,20.86,0,0,1,1.76-3.58c.34-.56.72-1.11,1.1-1.65.27-.37.78-.82.88-1.26.14-.62-.43-1.32-.88-1.68-1.55-1.24-4-1-5.81-.43a19.38,19.38,0,0,0-6.1,3.36c-2.32,1.76-6,4.44-5.63,7.74a9.52,9.52,0,0,0,1.16,3.11,13.11,13.11,0,0,1,.77,1.81,6.41,6.41,0,0,1,.21.75c.08.38.31.82,0,.72-1.3-.41-1.61-2.6-1.72-3.69a3.46,3.46,0,0,1,0-1.47.65.65,0,0,0-.16-.61c-1.27-1.52-2.9.74-3.62,1.69-1.39,1.84-2.73,3.72-4,5.66-2.89,4.48-5.48,9.35-6.63,14.59a.63.63,0,0,0,1.14.48,29.18,29.18,0,0,1,6.64-7.79,21.7,21.7,0,0,1,6-3.86c2.2-.88,4.51-1.48,6.79-2.14a50.55,50.55,0,0,1,7.78-1.74,22.12,22.12,0,0,1,3.64-.13,10.94,10.94,0,0,0,1.61.14,4,4,0,0,0,1.46-.83c3.49-2.3,7.19-5.57,5.16-10.08a33.08,33.08,0,0,0-4.47-6.5c-.44-.55-1.05-1.33-1.85-1.29s-1.22.87-1.5,1.56.91,1.07,1.21.33.46-.63.93-.12.65.83,1,1.25c.64.88,1.31,1.74,1.95,2.62,1.22,1.69,2.68,3.81,2,6s-3,3.81-4.81,5a3.42,3.42,0,0,1-1.43.73,14.68,14.68,0,0,1-1.61-.11,23.22,23.22,0,0,0-3.23.15,67.68,67.68,0,0,0-12.44,3.06,22.64,22.64,0,0,0-5.31,2.26,35.72,35.72,0,0,0-4.52,3.51,28.81,28.81,0,0,0-6,7.32l1.14.48A41.62,41.62,0,0,1,163,182c1-1.63,2-3.23,3.13-4.78.41-.58,3.31-4.73,3.71-4.25l-.16-.61c-.48,1.19,0,3.32.48,4.41s2.24,3.47,3.43,2-.87-4.55-1.49-6a3.57,3.57,0,0,1-.12-3.18,10.9,10.9,0,0,1,2.17-2.57,29,29,0,0,1,5.32-4.09,12.55,12.55,0,0,1,4-1.6c.89-.16,3.47-.44,4,.72.17.4-.65,1.15-.94,1.58s-.7,1.05-1,1.59a22,22,0,0,0-1.68,3.62c-.31.87-1.34,3.18,0,3.8,1.85.85,3.71-3,4.16-4.16s.68-2.56,1.11-3.8c.28-.79.58-1.58.9-2.35S189.24,160.9,188.92,161.64Z"/><path class="cls-12" d="M185.41,167.76s0,.14.37.52-.45,0-1-.27l-.15.38c.16.22.34.44.51.63s-.35.71-1,.89l-.18.57a2.54,2.54,0,0,0-.08,1.14l.25.39c.3.15.85-.09,1.84-1.17a10.18,10.18,0,0,0,1.33-2.22v0c-.34-.24-.68-.5-1-.75Z"/><path class="cls-8" d="M190.06,178.3s14.63-5.93,17.84,53.46h1.47s-4.29-58.07-17.94-54.34Z"/><path class="cls-13" d="M162.41,233.27s3.22,8.59,45.48,8.42,44.57-9.93,44.57-9.93,4.86,13.81-44.57,14.33C159.1,246.61,162.41,233.27,162.41,233.27Z"/></g></svg>