<?xml version="1.0" encoding="utf-8"?>
<!-- Generator: Adobe Illustrator 22.0.0, SVG Export Plug-In . SVG Version: 6.00 Build 0)  -->
<svg version="1.1" id="Layer_1" xmlns="http://www.w3.org/2000/svg" xmlns:xlink="http://www.w3.org/1999/xlink" x="0px" y="0px"
	 viewBox="0 0 266.9 327" style="enable-background:new 0 0 266.9 327;" xml:space="preserve">
<style type="text/css">
	.st0{fill:#61853A;}
	.st1{fill:#B2D37B;}
	.st2{fill:#426A32;}
	.st3{fill:#4D7C39;}
	.st4{fill:#61853A;stroke:#000000;stroke-width:0.8302;stroke-miterlimit:10;}
	.st5{fill:url(#SVGID_1_);stroke:#000000;stroke-width:2.0756;stroke-miterlimit:10;}
	.st6{fill:#165E22;stroke:#000000;stroke-width:0.8302;stroke-miterlimit:10;}
	.st7{fill:#262D1C;}
	.st8{fill:#723C07;}
	.st9{fill:#426A32;stroke:#000000;stroke-width:0.4151;stroke-miterlimit:10;}
	.st10{fill:url(#SVGID_2_);}
	.st11{fill:#61853A;stroke:#000000;stroke-width:0.5242;stroke-miterlimit:10;}
	.st12{fill:url(#SVGID_3_);stroke:#000000;stroke-width:1.3105;stroke-miterlimit:10;}
	.st13{fill:#165E22;stroke:#000000;stroke-width:0.5242;stroke-miterlimit:10;}
	.st14{fill:#426A32;stroke:#000000;stroke-width:0.2621;stroke-miterlimit:10;}
	.st15{fill:url(#SVGID_4_);}
</style>
<path d="M162.2,291.4h3.7v-1.9c-1.3,0-2.5,0-3.7-0.1V291.4z"/>
<path d="M139.1,287.7h3.7v-0.8c-1.3-0.4-2.5-0.9-3.7-1.5V287.7z"/>
<path d="M153.8,289.6h3.7v-0.4c-1.3-0.1-2.6-0.2-3.7-0.3V289.6z"/>
<path d="M146,289.6h3.7v-1.2c-1.4-0.2-2.6-0.4-3.7-0.7V289.6z"/>
<path d="M166.9,289.2h3.7v-2.3c-1.2,0.6-2.4,1.1-3.7,1.5V289.2z"/>
<path d="M152.2,291.1h3.7v-0.7c-1.2,0.1-2.4,0.2-3.7,0.3L152.2,291.1z"/>
<path d="M160,291.1h3.7v-1.9c-1.1,0.2-2.4,0.5-3.7,0.7V291.1z"/>
<path d="M203.1,164.1c0.3,0.1,0.6,0.2,0.9,0.2c0.3,0,0.6-0.1,0.9-0.2L203.1,164.1L203.1,164.1z"/>
<path class="st0" d="M51.7,119c0,0-0.5,1.1,0.3,5c0.2,1,0.5,1.9,1.1,2.7c0.6,0.8,1.3,1.4,2.2,1.9c0.8,0.3,1.3-0.7,1.1-1.9
	c-0.8-4.7-4-7.2-3.5-11.2c0-0.1,0-0.1,0-0.2c0.5-2.8,6-7.5,8.2-9.2l0.2-0.2c1.2-0.9,3-2.2,4.4-3c-2.3-1.4-4.8-2.3-7.4-2.8
	c-2.2-0.3-13.6-3.1-20,6.7c0,0,14.2-0.7,11.7,3.7c-1.2,2.2-8.4-3-12.4-1.8c-4.1,1.2-12.4,10.1-11.7,13.5c0,0,16.5-2,14.5,4.9
	c-1.1,4-10.4-5.4-15.8-2.8c-3,1.4-9.3,10.4-9.5,16.2c0,0,8.9-6,12.1-4.2c5.4,3.1-7,4.5-8.2,4.7c-4.8,0.5-5.7,3.5-6,8.5
	c-0.2,2.5-2.9,19.3-1.5,19.7c3-0.4,11.3-5.4,12.7-7.4c1.2-1.6,6-12.8,5.1-8.4c-0.3,1.7-3.8,5.8-4.1,8.3c-0.2,1.8,4.4-6.5,5.3-8.3
	c2.4-11.4,10.5-23.5,15.2-29.9C48.1,120.7,50.4,117.1,51.7,119z"/>
<path class="st1" d="M33.3,144.2h-0.7h-0.4l-0.5,0.1c-0.3,0-0.7,0.1-1.1,0.2l-0.6,0.1l-0.3,0.1l-0.3,0.1l-0.3,0.1h-0.2h-0.2
	l-0.7,0.4l-0.2,0.1l-0.2,0.1l-0.4,0.2c-0.2,0.1-0.5,0.2-0.7,0.3l-0.7,0.4c-0.2,0.1-0.5,0.3-0.7,0.4l-0.2,0.1l-0.2,0.1
	c-0.1,0.1-0.2,0.2-0.3,0.2l-0.3,0.3l-0.3,0.3c-0.4,0.4-0.7,0.8-1.1,1.1c-0.6,0.8-1.2,1.5-1.7,2.1l-0.4,0.4l-0.4,0.4
	c-0.2,0.2-0.4,0.4-0.6,0.6s-0.2,0.2-0.2,0.2l-0.2,0.1l-0.2,0.1l0.2-0.1l0.2-0.1l0.2-0.2c0.2-0.2,0.5-0.3,0.7-0.5l0.4-0.4l0.4-0.4
	c0.5-0.6,1.1-1.3,1.8-2.1c0.3-0.4,0.7-0.7,1.1-1.1l0.3-0.3l0.3-0.2c0.1-0.1,0.2-0.2,0.3-0.2c0.1,0,0.1-0.1,0.2-0.1l0.2-0.1l0.7-0.4
	l0.7-0.3c0.2-0.1,0.5-0.2,0.7-0.3l0.3-0.1l0.2-0.1h0.2l0.7-0.2H29h0.2l0.3-0.1l0.3-0.1c0.1,0,0.2,0,0.3-0.1l0.6-0.1
	c0.4-0.1,0.7-0.1,1.1-0.1h0.5h0.4h0.7L33.3,144.2z"/>
<path class="st1" d="M43.3,133.1l-0.2-0.1l-0.3-0.1l-0.4-0.1l-0.5-0.1l-0.6-0.1l-0.7-0.1h-0.4h-0.4c-0.5,0-1.1-0.1-1.7-0.1
	c-0.7,0-1.3,0-1.9,0l-2.1,0.1H33h-0.5h-0.5h-1.1h-1.1h-0.5h-0.5c-0.3,0-0.7,0-1.1,0.1l-1,0.1h-0.5l-0.5,0.1l-0.5,0.1l-0.4,0.1
	l-0.8,0.2c-0.5,0.1-1,0.2-1.4,0.3l-0.6,0.1l-0.5,0.1l-0.9,0.3l0.9-0.2l0.5-0.1l0.6-0.1c0.4-0.1,0.9-0.2,1.4-0.3l0.8-0.1h0.4h0.5
	l0.5-0.1h0.5l1-0.1c0.3,0,0.7,0,1,0h0.5h1.6h1.1h0.5h1.7h2.1c0.7,0,1.3,0,1.9,0c0.6,0,1.2,0.1,1.7,0.1h0.4h0.4
	c0.2,0,0.5,0.1,0.7,0.1l0.6,0.1l0.5,0.1l0.4,0.1l0.3,0.1l0.2,0.1L43.3,133.1z"/>
<path class="st1" d="M58.4,121.3l-0.3-0.1l-0.7-0.4l-1.1-0.6l-1.4-0.9c-0.5-0.3-1.1-0.6-1.7-1c-0.3-0.2-0.6-0.3-1-0.5
	c-0.3-0.2-0.7-0.3-1.1-0.5c-0.4-0.1-0.7-0.3-1.1-0.4c-0.3-0.1-0.8-0.2-1.2-0.3l-0.3-0.1h-0.2h-0.2l-0.6-0.1l-0.6-0.1l-0.6-0.1
	l-1.2-0.2c-0.4,0-0.8-0.1-1.2-0.1h-0.6h-0.6h-1.2l-2.2-0.1h-1.1h-0.9h-0.9h-0.8l-0.7-0.1h-0.6l-1.1-0.1l1.1,0.1l0.6,0.1l0.7,0.1
	l0.8,0.1l0.9,0.1l0.9,0.1l1.1,0.1l2.2,0.2l1.2,0.1h0.6l0.6,0.1c0.4,0,0.8,0.1,1.2,0.1l1.2,0.2L47,117c0.2,0,0.4,0.1,0.6,0.1l0.6,0.1
	h0.2h0.1l0.3,0.1c0.4,0.1,0.8,0.2,1.1,0.3c0.3,0.1,0.7,0.3,1.1,0.4c0.4,0.2,0.7,0.3,1,0.5c0.3,0.2,0.6,0.3,0.9,0.5
	c0.6,0.3,1.2,0.7,1.7,1l1.4,0.9c0.4,0.3,0.8,0.5,1.1,0.7l0.7,0.4l0.2,0.2L58.4,121.3z"/>
<path class="st1" d="M65.1,118l-0.1-0.2c0-0.2-0.1-0.4-0.2-0.7c-0.1-0.3-0.3-0.7-0.5-1.1c-0.1-0.2-0.2-0.4-0.3-0.6
	c-0.1-0.2-0.2-0.5-0.4-0.7c-0.1-0.2-0.3-0.5-0.4-0.7l-0.2-0.4l-0.2-0.4c-0.2-0.3-0.3-0.5-0.5-0.8c-0.2-0.3-0.2-0.3-0.3-0.4
	c-0.1-0.1-0.2-0.3-0.3-0.4c-0.4-0.6-0.8-1.1-1.3-1.6c-0.5-0.5-1-1.1-1.5-1.6c-0.5-0.5-1.1-1-1.6-1.4c-0.5-0.4-1.1-0.8-1.7-1.2
	l-0.2-0.1l-0.2-0.1l-0.4-0.2l-0.4-0.2l-0.2-0.1l-0.2-0.1l-0.4-0.2l-0.4-0.2c-0.3-0.1-0.5-0.2-0.8-0.3l-0.4-0.1l-0.4-0.1l-0.7-0.2
	c-0.4-0.1-0.8-0.2-1.1-0.2c-0.2,0-0.5-0.1-0.7-0.1h-0.3h0.3c0.2,0,0.4,0,0.7,0.1c0.4,0.1,0.7,0.1,1.1,0.2l0.7,0.2l0.4,0.1
	c0.1,0,0.2,0.1,0.4,0.1c0.1,0.1,0.5,0.2,0.8,0.3l0.4,0.2l0.4,0.2l0.2,0.1l0.2,0.1l0.4,0.2l0.4,0.3l0.2,0.1l0.2,0.2
	c0.6,0.4,1.1,0.8,1.6,1.2c0.5,0.4,1.1,0.9,1.5,1.4c0.5,0.5,1,1.1,1.4,1.6c0.4,0.5,0.9,1.1,1.2,1.6l0.3,0.4l0.3,0.4
	c0.2,0.3,0.3,0.5,0.5,0.8l0.2,0.4l0.2,0.4c0.1,0.2,0.3,0.5,0.4,0.7c0.1,0.2,0.2,0.5,0.3,0.7c0.1,0.2,0.2,0.4,0.3,0.6
	c0.2,0.4,0.3,0.7,0.4,1.1c0.1,0.3,0.2,0.5,0.2,0.7c0.1,0.2,0.1,0.2,0.1,0.2L65.1,118z"/>
<path class="st1" d="M50.4,133.1c-0.9,0.1-1.7,0.3-2.6,0.6c-1.1,0.4-2.2,0.9-3.2,1.4c-1.2,0.6-2.4,1.4-3.5,2.2
	c-0.6,0.4-1.2,0.9-1.8,1.4l-0.9,0.8c-0.3,0.3-0.6,0.5-0.9,0.8c-1.1,1.2-2.2,2.4-3.3,3.7c-1.1,1.3-2.2,2.6-3.3,3.9
	c-2.2,2.7-4.4,5.4-6.5,7.8c-2.1,2.4-4.1,4.8-5.8,6.7c-1.4,1.6-2.9,3-4.5,4.4c-0.4,0.4-0.9,0.7-1.5,1c-0.2,0.1-0.3,0.1-0.4,0.2h-0.1
	h0.1l0.4-0.2c0.5-0.3,1-0.6,1.5-1c1.6-1.4,3-2.8,4.4-4.4c1.7-1.9,3.7-4.3,5.7-6.8c2.1-2.5,4.2-5.2,6.4-7.9c1.1-1.3,2.2-2.7,3.2-4
	c0.5-0.7,1.1-1.3,1.6-1.9c0.6-0.6,1.1-1.3,1.7-1.9c0.3-0.3,0.6-0.6,0.9-0.9l0.9-0.8c0.6-0.5,1.2-1,1.8-1.4c1.1-0.9,2.3-1.6,3.6-2.3
	c1.1-0.6,2.2-1,3.3-1.4c0.9-0.3,1.9-0.6,2.8-0.8c0.8-0.1,1.1-0.2,1.6-0.3c0.2,0.3,0.4,0.6,0.6,0.9H52C51.5,133,50.9,133,50.4,133.1
	L50.4,133.1z"/>
<path class="st2" d="M82.1,102.3c-1.2,2.8-2.1,5.7-2.8,8.6c-0.2,0.7-0.4,1.3-0.7,1.9c-0.6,1.3-1.3,2.5-2.2,3.5
	c-3.7,4-3.6,0.7-3.2-0.6c0.6-1.8,1.2-3.6,2-5.4c1.3-2.7,2.9-5.3,4.8-7.6c-0.3-1.7-2.5-3-6.2-2.7c-2.9,0.3-5.7,1.3-8.2,2.8l0,0
	c-1.4,0.9-3.2,2-4.4,3l-0.2,0.2c-2.2,1.7-7.7,6.5-8.2,9.2c0,0.1,0,0.1,0,0.2c-0.5,4,2.7,6.5,3.5,11.2c0.2,1.2-0.3,2.2-1.1,1.9
	c-0.9-0.4-1.6-1.1-2.2-1.9c-0.6-0.8-1-1.7-1.1-2.7c-0.8-3.9-0.3-5-0.3-5c-1.2-1.9-3.6,1.7-5.7,4.5c-4.7,6.3-12.8,18.5-15.2,29.9
	c1.8-3.1,3.9-5.9,6.3-8.5c2.9-2.9,6-5.5,9.4-7.9c3.8-2.7,10.1-4.3,14.6-5.6c7.5-2.2,13.7-3.7,20.1-3.3c0.6,0,1.3,0.1,1.9,0.2
	c1.9-1.1,3.7-2.4,5.4-3.7c3.3-2.7,5.7-5.9,5.1-9.6c-0.7-3.7-4-7.5-6.4-10.8C85,101.1,83.4,98.8,82.1,102.3z"/>
<path class="st3" d="M75.7,111.5c0,0-0.1,0.2,0.6,0.8c0.5,0.4-0.7,0-1.6-0.4l-0.2,0.6c0.2,0.3,0.5,0.7,0.8,1
	c0.5,0.5-0.6,1.1-1.7,1.4l-0.3,0.9c-0.2,0.6-0.2,1.2-0.1,1.8c0.1,0.2,0.3,0.4,0.4,0.6c0.5,0.2,1.3-0.1,2.9-1.9
	c0.9-1.1,1.6-2.3,2.2-3.5l-1.6-1.2L75.7,111.5z"/>
<path class="st0" d="M119.8,155.9c0.6,4.6,1.4,9.2,2.2,13.7c0.8,4.5,1.7,8.9,2.6,13.2c0.9,4.3,1.7,8.4,2.4,12.3
	c0.7,3.7,1.2,7.4,1.5,11.1c0.1,1.6,0.2,3.3,0.1,5c0,0.8-0.1,1.6-0.2,2.3c-0.1,0.7-0.2,1.4-0.3,2.1h0.5c0.1-0.6,0.2-1.3,0.3-2
	c0.1-0.7,0.2-1.5,0.2-2.3c0.1-1.7,0-3.3-0.1-5c-0.3-3.8-0.7-7.5-1.4-11.2c-0.7-3.9-1.5-8.1-2.3-12.4c-1.7-8.6-3.4-17.7-4.5-26.9
	c-0.6-4.6-1-9.2-1.2-13.8c-0.2-4.6-0.3-9-0.2-13.4c0.1-4.1,0.8-8.2,2-12.2c1.1-3.5,2.6-6.9,4.6-10c1.7-2.6,3.7-4.9,6.1-6.9
	c0.5-0.4,1.1-0.8,1.6-1.2c0.5-0.4,1.1-0.7,1.6-1c0.9-0.5,1.9-1,2.9-1.3c1.4-0.5,2.9-0.9,4.4-1.1c0.3,0,0.5,0,0.7-0.1h0.5
	c0.1,0,0.2,0,0.3-0.1l0.1-0.1l-0.1-1.5c0,0-0.1,0-0.1,0c-0.1,0-0.2,0-0.3,0l-0.5,0.1c-0.2,0-0.5,0-0.8,0.1c-1.6,0.2-3.2,0.6-4.7,1.2
	c-1.1,0.4-2.1,0.9-3.2,1.5c-0.5,0.3-1.1,0.7-1.7,1.1c-0.6,0.4-1.1,0.8-1.7,1.3c-2.5,2.1-4.7,4.6-6.4,7.3c-2,3.2-3.6,6.8-4.6,10.4
	c-1.2,4.1-1.8,8.3-1.9,12.5c-0.1,4.4,0,8.9,0.3,13.5C118.7,146.7,119.2,151.2,119.8,155.9z"/>
<path class="st0" d="M109.7,100.9c-0.6,4.6-1.4,9.2-2.2,13.7c-0.8,4.5-1.7,8.9-2.6,13.2c-0.9,4.3-8.3,54.7-9,58.6
	c-0.7,3.7-1.2,7.4-1.5,11.1c-0.1,1.7-0.2,3.3-0.1,5c0,0.8,0.1,1.6,0.2,2.3c0.1,0.7,0.2,1.4,0.3,2.1h-0.5c-0.1-0.6-0.2-1.3-0.3-2
	c-0.1-0.7-0.2-1.5-0.2-2.3c-0.1-1.7,0-3.4,0.1-5c0.3-3.8,0.7-7.5,1.4-11.2c0.7-4,8-54.4,8.8-58.7c1.7-8.6,3.4-17.7,4.5-26.9
	c0.6-4.6,1-9.2,1.2-13.8c0.2-4.6,0.3-9,0.2-13.4c-0.1-4.1-0.8-8.2-2-12.2c-1.1-3.5-2.6-6.9-4.6-10c-1.7-2.6-3.7-4.9-6.1-6.9
	c-0.5-0.4-1.1-0.8-1.6-1.2c-0.5-0.4-1.1-0.7-1.6-1c-0.9-0.5-1.9-1-2.9-1.3c-1.4-0.5-2.9-0.9-4.4-1.1c-0.3,0-0.5-0.1-0.7-0.1h-0.5
	c-0.1,0-0.2,0-0.3-0.1c0,0-0.1,0-0.1-0.1l0.1-1.5l0.1-0.1c0.1,0,0.2,0,0.3,0h0.5l0.8,0.1c1.6,0.2,3.2,0.6,4.7,1.2
	c1.1,0.4,2.1,0.9,3.2,1.5c0.5,0.3,1.1,0.7,1.7,1.1c0.6,0.4,1.1,0.8,1.7,1.3c2.5,2.1,4.7,4.6,6.4,7.3c2,3.2,3.6,6.8,4.6,10.4
	c1.2,4.1,1.8,8.3,1.9,12.5c0.1,4.4,0,8.9-0.3,13.5C110.8,91.7,110.3,96.3,109.7,100.9z"/>
<path class="st4" d="M183.3,95.7c-4.4,1.2-6.5,1.6-6.9,0.2c-0.5-1.7,6.6-4.8,12.6-5.4c6-0.6,17.3-3.5,17.3-3.5s-1.3-7.6-7.8-11.8
	c-2.7-1.8-14.3-3.1-20.3-2c-6.1,1.1-13.7,9.6-15.5,10.8c-1.8,1.2-4.6-0.3-2.9-2.9c6.2-9.1,25.3-13.2,25.3-13.2s1.8-3.4-3.2-6
	c-2.6-1.3-20.6-10.8-36.2-2.9c-11.8,6-3.2,30.7-3.2,30.7c1.1,2.6,4,6.5-7,10.2c-10.9,3.7-18.4,12.2-19.4,19.7
	c-1,7.6,7.8,12.6,7.8,12.6c7.5-4.1,10.5-14.9,12-18.5c1.5-3.6,4.3,1.2,2.9,4.7c-1.4,3.5-13.1,12.9-11.8,17.2
	c1.3,4.3,19.9,12.1,21,8.2c1.2-4.4,3.2-12,2.9-17.2c-0.3-4.5,3.1-5.4,4.9-1.7c1.8,3.7-3.8,7.8-5.7,18.1c-1.9,10.3,33.8,8.7,31.8,5.8
	c-2.1-2.9-2.5-6.1-4.2-8.5c-1.6-2.3-8.4-22.1-2.9-19c4.1,2.3,5,8.7,7,18.8c1.5,7.7,7.9,8.9,10.5,8.3c3.2-0.7,14.5-3.6,13.9-4.1
	c-0.6-0.5-11.1-11.8-11.2-15.3c-0.1-3.5,6.2,3.7,6.6,5.2c0.5,1.5,5.6,5.9,8.9,6.3c3.2,0.5,15.2-4.7,14.8-6c-0.4-1.3-1-9-2.4-13.2
	c-0.7-2.1-4.1-8.2-8.5-8.8c-2.5-0.3-20.8,1.5-21.9-2.2c-1.1-3.7,23.3,0.2,23.6-1.1c0.3-1.3-1.6-14.1-5.6-17.6
	C206.4,88,185.7,95,183.3,95.7z M157.8,108.8c0,1.7-0.4,5.5-1.7,7c-2.5,2.7-4-0.7-3.5-3c0.3-2.8,2-5.7,3.1-8.1
	C158.1,99.2,158,106,157.8,108.8z M171.7,107.9c0.4,1,0.6,2.1,0.6,3.2c0.3,1.6,0.9,6-0.5,7c-2.4,1.6-4.2-2.1-4-3.9
	c0.3-2.2,0.9-6.4,2.4-7.9C170.9,105.7,171.3,106.7,171.7,107.9L171.7,107.9z M176.9,87.8c3.8,2.5-3.6,4.7-5.2,4.8
	C168.6,92.3,174.5,86.2,176.9,87.8L176.9,87.8z M189.8,116.7c0.4,1.3-0.7,2-1.9,1.4c-1.7-0.9-2.4-5.4-0.1-4
	C188.6,114.8,189.2,115.7,189.8,116.7L189.8,116.7z M194.2,106.4c-1.5,0.5-3.1,0.8-4.7,0.9c-1.9-0.4-1.9-1.6-0.4-2.7
	C191.3,102.9,197.4,104.2,194.2,106.4L194.2,106.4z"/>
<linearGradient id="SVGID_1_" gradientUnits="userSpaceOnUse" x1="110.0621" y1="125.9248" x2="110.0621" y2="13.1572" gradientTransform="matrix(1 0 0 -1 0 328)">
	<stop  offset="0" style="stop-color:#323534"/>
	<stop  offset="6.000000e-02" style="stop-color:#484F4E"/>
	<stop  offset="0.18" style="stop-color:#738382"/>
	<stop  offset="0.3" style="stop-color:#95ABAB"/>
	<stop  offset="0.4" style="stop-color:#ADC8C8"/>
	<stop  offset="0.49" style="stop-color:#BCDADA"/>
	<stop  offset="0.56" style="stop-color:#C1E0E0"/>
	<stop  offset="0.64" style="stop-color:#BDDBDC"/>
	<stop  offset="0.73" style="stop-color:#B0CECF"/>
	<stop  offset="0.82" style="stop-color:#9BB7B9"/>
	<stop  offset="0.92" style="stop-color:#7E989B"/>
	<stop  offset="1" style="stop-color:#60787C"/>
</linearGradient>
<path class="st5" d="M110,190.3c0,0,75.4,0.2,74.6,21c-0.8,20.8-22.6,99.2-34.2,106.3c-13.1,7.9-40.3,7.9-40.3,7.9
	c-22.7,0.2-34.6-4.4-40.4-7.7c-11.8-6.7-33.4-85.4-34.2-106.3C34.7,190.7,110,190.3,110,190.3z"/>
<path class="st1" d="M149.4,94.1l-0.1-0.2c-0.1-0.2-0.2-0.3-0.3-0.5c-0.1-0.3-0.3-0.5-0.4-0.8c-0.1-0.4-0.2-0.7-0.3-1.1l-0.1-0.3
	c0-0.1,0-0.2,0-0.3c0-0.1,0-0.5-0.1-0.7c0-0.5,0-1,0-1.5c0-0.5,0.1-1.1,0.2-1.5c0.1-0.5,0.2-1.1,0.3-1.6c0.2-1.1,0.5-2.1,0.7-3
	c0.1-0.5,0.2-0.9,0.3-1.4c0.1-0.4,0.2-0.9,0.2-1.3c0-0.2,0-0.4,0.1-0.6c0.1-0.2,0-0.3,0.1-0.5c0.1-0.2,0-0.6,0.1-0.8
	c0.1-0.2,0-0.4,0-0.5c0,0.1,0,0.3,0,0.5c0,0.2,0,0.5,0,0.8c0,0.3,0,0.3,0,0.5c0,0.2,0,0.4,0,0.6c0,0.4-0.1,0.8-0.2,1.3
	c-0.1,0.5-0.1,0.9-0.2,1.4c-0.2,1-0.3,2-0.5,3.1c-0.1,0.5-0.1,1.1-0.2,1.5c0,0.5-0.1,1-0.1,1.5c0,0.5,0,0.9,0.1,1.4
	c0,0.2,0,0.4,0.1,0.6l0.1,0.3c0,0.1,0,0.2,0.1,0.3c0.1,0.3,0.2,0.6,0.3,0.9c0.1,0.2,0.2,0.5,0.4,0.7c0.1,0.2,0.2,0.3,0.3,0.4
	l0.1,0.2L149.4,94.1z"/>
<path class="st1" d="M152.5,94.6l-0.3,0.2l-0.3,0.2l-0.4,0.3c-0.2,0.1-0.3,0.2-0.5,0.4c-0.2,0.2-0.4,0.3-0.6,0.5l-0.6,0.6l-0.7,0.7
	c-0.5,0.5-1,1-1.6,1.6c-0.5,0.6-1.2,1.1-1.9,1.7c-0.7,0.6-1.5,1.1-2.2,1.5c-0.8,0.4-1.6,0.9-2.4,1.3c-1.6,0.9-3.2,1.7-4.7,2.6
	c-1.4,0.8-2.7,1.6-3.9,2.6c-0.9,0.7-1.7,1.4-2.3,2.3c-0.1,0.2-0.2,0.3-0.3,0.5c-0.1,0.1-0.1,0.2-0.2,0.3c0,0.1-0.1,0.3-0.1,0.3
	l0.1-0.3c0-0.1,0.1-0.2,0.2-0.4c0.1-0.1,0.2-0.3,0.3-0.5c0.6-0.9,1.4-1.7,2.3-2.4c1.2-1,2.5-1.9,3.9-2.7c1.5-0.9,3.1-1.8,4.7-2.7
	c0.8-0.5,1.6-0.9,2.4-1.4c0.7-0.4,1.4-0.9,2.1-1.5c0.6-0.6,1.2-1.1,1.7-1.7l1.5-1.6l0.7-0.7c0.2-0.2,0.4-0.4,0.6-0.6
	c0.2-0.2,0.4-0.4,0.6-0.5l0.5-0.5l0.4-0.3l0.3-0.2l0.3-0.2L152.5,94.6z"/>
<path class="st1" d="M156.8,95.2l-1,1.6c-0.3,0.5-0.7,1.1-1.2,1.8l-1.5,2.3c-0.5,0.8-1.2,1.8-1.8,2.7c-0.3,0.5-0.6,1-1,1.5l-1,1.6
	c-0.3,0.5-0.6,1.1-0.9,1.7l-0.2,0.4c-0.1,0.2-0.2,0.3-0.2,0.4l-0.5,0.9l-0.2,0.4c0,0.1-0.1,0.1-0.1,0.2l-0.1,0.2l-0.4,0.9l-0.8,1.8
	l-0.8,1.8l-0.4,0.9c-0.1,0.3-0.3,0.6-0.4,0.9l-1.6,3.6l-0.4,0.9l-0.2,0.4l-0.1,0.2l-0.1,0.2c-0.1,0.3-0.2,0.6-0.3,0.8l-0.1,0.4
	c0,0.1-0.1,0.3-0.1,0.4c-0.3,1.1-0.5,2.1-0.7,3.2c-0.2,1-0.2,1.9-0.3,2.7c-0.1,0.8-0.1,1.5-0.2,2.2c0,0.6,0,1.1,0,1.4v0.4
	c0,0,0-0.2,0-0.5c0-0.3,0-0.8,0-1.4c0-0.6,0-1.3,0.1-2.2c0.1-0.9,0.1-1.8,0.3-2.8c0.1-1.1,0.3-2.2,0.6-3.2c0-0.1,0.1-0.3,0.1-0.4
	c0-0.1,0.1-0.3,0.1-0.4c0.1-0.3,0.2-0.6,0.3-0.9l0.1-0.2l0.1-0.2c0.1-0.1,0.1-0.3,0.2-0.4l0.4-0.9l1.5-3.6c0.1-0.3,0.3-0.6,0.4-0.9
	c0.1-0.3,0.3-0.6,0.4-0.9l0.8-1.9c0.3-0.6,0.5-1.2,0.8-1.9c0.1-0.3,0.3-0.6,0.4-0.9l0.1-0.2c0-0.1,0.1-0.2,0.1-0.2l0.2-0.5
	c0.2-0.3,0.3-0.6,0.4-0.9c0.2-0.3,0.1-0.3,0.2-0.5l0.2-0.4c0.3-0.6,0.6-1.2,0.9-1.7c0.3-0.5,0.6-1.1,0.9-1.6
	c0.3-0.5,0.6-1.1,0.9-1.5c0.6-1,1.2-1.9,1.7-2.8l1.5-2.3c0.4-0.7,0.8-1.3,1.1-1.8l0.9-1.6L156.8,95.2z"/>
<path class="st1" d="M167.2,98.5l-0.9,1.8c-0.6,1.1-1.4,2.8-2.2,4.8c-0.4,1-0.9,2.1-1.2,3.2c-0.4,1.2-0.8,2.5-1,3.8
	c-0.3,1.4-0.4,2.7-0.5,4.1c0,0.7,0,1.4,0,2.2c0,0.4,0,0.7,0,1.1l0.1,1.1c0.1,1.4,0.3,2.9,0.5,4.3c0.2,1.4,0.4,2.8,0.6,4.2
	c0.1,0.7,0.2,1.3,0.4,2c0.1,0.6,0.3,1.3,0.4,1.9c0.3,1.2,0.5,2.4,0.8,3.4c0.3,1.1,0.5,2,0.8,2.9c0.1,0.4,0.3,0.8,0.4,1.2l0.3,1
	c0.2,0.6,0.4,1.1,0.5,1.4l0.2,0.5l-0.2-0.5c-0.1-0.3-0.3-0.8-0.5-1.4c-0.1-0.3-0.2-0.6-0.4-1l-0.4-1.2c-0.3-0.9-0.6-1.8-0.8-2.9
	c-0.3-1.1-0.6-2.2-0.9-3.4c-0.1-0.6-0.3-1.3-0.4-1.9c-0.2-0.6-0.3-1.3-0.4-2c-0.3-1.3-0.5-2.7-0.7-4.2c-0.2-1.4-0.4-2.9-0.6-4.3
	c-0.2-1.5-0.2-2.9-0.2-4.4c0-1.4,0.2-2.8,0.4-4.2c0.2-1.3,0.5-2.6,0.9-3.9c0.4-1.2,0.8-2.3,1.2-3.4c0.8-2,1.6-3.7,2.2-4.9l0.9-1.8
	L167.2,98.5z"/>
<path class="st1" d="M161.8,95.6l0.3-0.3c0.2-0.2,0.5-0.5,0.9-0.8l1.3-1.3l1.7-1.7c0.6-0.6,1.3-1.3,2.1-1.9c0.4-0.3,0.8-0.7,1.2-1
	c0.4-0.3,0.8-0.7,1.3-1c0.5-0.3,0.9-0.6,1.4-0.9c0.5-0.3,1-0.6,1.5-0.8l0.4-0.2l0.2-0.1l0.2-0.1l0.8-0.4c0.3-0.1,0.5-0.2,0.8-0.3
	l0.8-0.3l1.6-0.6l1.6-0.5l0.8-0.2l0.8-0.2l1.6-0.5l3-0.9l1.4-0.4l1.3-0.4l1.2-0.4l1.1-0.3l0.9-0.3l0.8-0.3l1.5-0.5l-1.5,0.6
	l-0.8,0.3l-0.9,0.3l-1.1,0.4l-1.2,0.4l-1.3,0.4l-1.4,0.4l-3,0.9l-1.6,0.5l-0.8,0.3l-0.8,0.3c-0.5,0.2-1.1,0.4-1.6,0.6l-1.6,0.6
	l-0.8,0.3l-0.8,0.3l-0.8,0.4l-0.2,0.1l-0.2,0.1l-0.4,0.2c-0.5,0.3-1,0.6-1.4,0.9c-0.5,0.3-0.9,0.6-1.3,0.9c-0.4,0.3-0.8,0.7-1.2,1
	c-0.4,0.3-0.8,0.7-1.1,1c-0.7,0.7-1.4,1.3-2,1.9l-1.6,1.7c-0.5,0.5-0.9,1-1.3,1.3l-0.8,0.8l-0.3,0.3L161.8,95.6z"/>
<path class="st1" d="M152.7,94v-0.4c0-0.2,0-0.6,0-1.1s0.1-1,0.2-1.6c0-0.3,0.1-0.6,0.1-1c0.1-0.3,0.1-0.7,0.2-1.1
	c0.1-0.4,0.2-0.8,0.2-1.2c0-0.2,0.1-0.4,0.1-0.6l0.2-0.6c0.1-0.4,0.2-0.9,0.4-1.3c0.1-0.2,0.1-0.4,0.2-0.7c0.1-0.2,0.1-0.5,0.2-0.7
	c0.3-0.9,0.7-1.8,1.1-2.7c0.4-0.9,0.9-1.8,1.3-2.7c0.5-0.9,1.1-1.8,1.6-2.6c0.5-0.8,1.1-1.6,1.8-2.3l0.2-0.3l0.2-0.3l0.5-0.5
	l0.5-0.5c0.1-0.1,0.2-0.2,0.2-0.2l0.2-0.2l0.5-0.4l0.5-0.4c0.3-0.3,0.6-0.5,0.9-0.7c0.1-0.1,0.3-0.2,0.4-0.3l0.4-0.3l0.8-0.5
	c0.5-0.3,1-0.6,1.4-0.7c0.4-0.2,0.7-0.3,0.9-0.4l0.3-0.1l-0.3,0.2c-0.2,0.1-0.5,0.2-0.9,0.4c-0.4,0.2-0.9,0.5-1.4,0.8l-0.8,0.5
	l-0.4,0.3l-0.4,0.3c-0.3,0.2-0.6,0.5-0.9,0.8l-0.5,0.4l-0.5,0.5l-0.2,0.2l-0.2,0.2l-0.5,0.5l-0.4,0.5l-0.2,0.3l-0.2,0.3
	c-0.6,0.8-1.1,1.5-1.7,2.4c-0.5,0.8-1,1.7-1.5,2.6c-0.5,0.9-0.9,1.8-1.2,2.7c-0.4,0.9-0.7,1.8-1,2.7c-0.1,0.2-0.1,0.5-0.2,0.7
	c-0.1,0.2-0.1,0.4-0.2,0.7c-0.1,0.4-0.2,0.9-0.3,1.3c0,0.2-0.1,0.4-0.1,0.6c-0.1,0.2-0.1,0.4-0.1,0.6c-0.1,0.4-0.1,0.8-0.2,1.1
	c-0.1,0.4-0.1,0.7-0.2,1.1c-0.1,0.4-0.1,0.7-0.1,1c0,0.6-0.1,1.1-0.1,1.5c0,0.4,0,0.8,0,1V94L152.7,94z"/>
<path class="st1" d="M146.6,94.5c1.5-0.2,3-0.2,4.5-0.2c2,0.2,3.9,0.5,5.8,1c2.3,0.6,4.5,1.2,6.7,2.1c1.2,0.5,2.3,0.9,3.5,1.5
	l1.8,0.9c0.6,0.3,1.2,0.6,1.8,1c2.3,1.4,4.7,2.9,7.1,4.6c2.4,1.6,4.8,3.3,7.2,5c4.8,3.4,9.6,6.7,14.1,9.9c4.5,3.1,8.8,6,12.5,8.3
	c3,1.9,6.1,3.7,9.3,5.2c0.9,0.4,1.8,0.7,2.8,0.9c0.3,0,0.6,0.1,0.8,0.1c-0.2,0-0.4-0.1-0.8-0.1c-1-0.2-1.9-0.5-2.8-0.9
	c-3.2-1.6-6.2-3.4-9.2-5.4c-3.7-2.4-7.9-5.3-12.3-8.5c-4.5-3.2-9.2-6.7-13.9-10.1c-2.4-1.7-4.7-3.4-7.1-5.1
	c-1.2-0.8-2.4-1.7-3.5-2.4c-1.2-0.8-2.3-1.6-3.5-2.3c-0.6-0.4-1.2-0.7-1.8-1c-0.6-0.3-1.2-0.6-1.8-0.9c-1.2-0.6-2.4-1.1-3.6-1.5
	c-2.2-0.9-4.5-1.6-6.8-2.2c-2-0.5-4-0.8-6-0.9c-1.6-0.1-3.3-0.2-4.9-0.1c-1.3,0.2-1.9,0.2-2.7,0.3c-0.1,0.6-0.3,1.2-0.5,1.8
	c0.2,0,0.5-0.2,0.7-0.2C144.7,94.7,145.7,94.6,146.6,94.5L146.6,94.5z"/>
<path class="st6" d="M19.1,36.6c-4,3.5-5.9,16.3-5.6,17.6c0.3,1.3,24.8-2.6,23.6,1.1C36,59,17.7,57.2,15.2,57.5
	c-4.4,0.6-7.8,6.7-8.5,8.8c-1.5,4.2-2,11.9-2.4,13.2c-0.4,1.3,11.6,6.5,14.8,6c3.2-0.5,8.4-4.8,8.9-6.3c0.5-1.5,6.7-8.7,6.6-5.2
	C34.5,77.5,24,88.8,23.4,89.3c-0.6,0.5,10.6,3.4,13.9,4.1c2.6,0.6,9-0.6,10.5-8.3c1.9-10.1,2.9-16.5,6.9-18.8
	c5.4-3.1-1.3,16.6-2.9,19c-1.7,2.3-2.2,5.5-4.2,8.5c-2,2.9,33.6,4.5,31.8-5.8c-1.9-10.3-7.5-14.3-5.7-18.1c1.8-3.7,5.2-2.8,4.9,1.7
	c-0.4,5.2,1.7,12.8,2.9,17.2c1.1,3.9,19.7-3.9,21-8.2c1.3-4.4-10.4-13.8-11.8-17.2c-1.4-3.5,1.4-8.3,2.9-4.7
	c1.5,3.6,4.5,14.4,12,18.5c0,0,8.8-5,7.8-12.5c-1-7.6-8.5-15.9-19.4-19.7c-10.9-3.8-8-7.6-7-10.2c0,0,8.6-24.8-3.2-30.7
	C68.3-3.9,50.2,5.6,47.6,6.9c-5,2.6-3.2,6-3.2,6s19.1,4,25.3,13.2c1.8,2.6-1.1,4.1-2.9,2.9c-1.8-1.2-9.4-9.7-15.5-10.8
	c-6.1-1.1-17.6,0.2-20.3,2c-6.5,4.2-7.8,11.8-7.8,11.8s11.3,2.9,17.2,3.5c5.9,0.6,13.1,3.7,12.6,5.4c-0.4,1.4-2.5,1-6.9-0.2
	C43.7,40.1,23.2,33,19.1,36.6z M73.7,49.7c1.1,2.4,2.8,5.3,3.1,8.1c0.4,2.4-1,5.7-3.5,3c-1.3-1.5-1.6-5.4-1.7-7
	C71.5,51.1,71.4,44.3,73.7,49.7L73.7,49.7z M59.3,51.5c1.4,1.5,2,5.8,2.4,7.9c0.2,1.8-1.6,5.6-4,3.9c-1.4-1-0.8-5.5-0.5-7
	c0.1-1.1,0.3-2.2,0.6-3.2C58.2,51.8,58.6,50.8,59.3,51.5z M57.8,37.7c-1.6-0.1-9-2.3-5.2-4.8C54.9,31.2,60.9,37.4,57.8,37.7
	L57.8,37.7z M41.6,59.2c2.3-1.3,1.6,3.2-0.1,4c-1.2,0.6-2.2-0.1-1.9-1.4C40.2,60.8,40.9,59.9,41.6,59.2L41.6,59.2z M40.4,49.6
	c1.5,1.1,1.5,2.4-0.4,2.7c-1.6-0.1-3.2-0.4-4.7-0.9C32,49.3,38.2,48,40.4,49.6L40.4,49.6z"/>
<path class="st1" d="M80.1,39.1l0.1-0.2c0.1-0.2,0.2-0.3,0.3-0.5c0.1-0.3,0.3-0.5,0.4-0.8c0.1-0.4,0.2-0.7,0.3-1.1l0.1-0.3
	c0-0.1,0-0.2,0-0.3c0-0.1,0-0.5,0.1-0.7c0-0.5,0-1,0-1.5c0-0.5-0.1-1-0.2-1.5c-0.1-0.5-0.2-1.1-0.3-1.6c-0.2-1.1-0.5-2.1-0.7-3
	c-0.1-0.5-0.2-0.9-0.3-1.4c-0.1-0.4-0.2-0.9-0.2-1.3c0-0.2,0-0.4-0.1-0.6c-0.1-0.2,0-0.4-0.1-0.5c0-0.3,0-0.6-0.1-0.8
	c-0.1-0.2,0-0.4,0-0.5c0,0.1,0,0.3,0,0.5c0,0.2,0,0.5,0,0.8c0,0.2,0,0.3,0,0.5c0,0.2,0,0.4,0,0.6c0,0.4,0.1,0.8,0.2,1.3
	c0.1,0.5,0.1,0.9,0.2,1.4c0.2,1,0.3,2,0.5,3c0.1,0.5,0.1,1.1,0.2,1.5c0,0.5,0.1,1,0.1,1.5c0,0.5,0,0.9-0.1,1.4
	c0,0.2-0.1,0.4-0.1,0.6c0,0.2,0,0.2-0.1,0.3c0,0.1,0,0.2-0.1,0.3c-0.1,0.3-0.2,0.6-0.3,0.9c-0.1,0.2-0.2,0.5-0.4,0.7
	c-0.1,0.2-0.2,0.3-0.3,0.4l-0.1,0.2L80.1,39.1z"/>
<path class="st1" d="M77,39.6l0.3,0.2l0.3,0.2l0.4,0.3c0.2,0.1,0.3,0.2,0.5,0.4c0.2,0.2,0.4,0.3,0.6,0.5c0.2,0.2,0.4,0.4,0.6,0.6
	l0.7,0.7l1.6,1.6c0.6,0.6,1.2,1.1,1.9,1.7c0.7,0.6,1.5,1.1,2.2,1.5c0.8,0.4,1.6,0.9,2.4,1.3c1.6,0.8,3.2,1.7,4.7,2.5
	c1.4,0.8,2.7,1.6,3.9,2.6c0.9,0.7,1.7,1.4,2.3,2.3c0.1,0.2,0.2,0.3,0.3,0.5c0.1,0.1,0.1,0.2,0.2,0.3l0.1,0.3l-0.1-0.3
	c0-0.1-0.1-0.2-0.2-0.4c-0.1-0.1-0.2-0.3-0.3-0.5c-0.6-0.9-1.4-1.7-2.3-2.4c-1.2-1-2.5-1.9-3.9-2.7c-1.5-0.9-3.1-1.8-4.7-2.7
	l-2.4-1.4c-0.7-0.4-1.4-1-2.1-1.5c-0.6-0.5-1.2-1.1-1.8-1.7l-1.5-1.6l-0.7-0.7l-0.6-0.6c-0.2-0.2-0.4-0.4-0.6-0.5
	c-0.2-0.2-0.4-0.3-0.5-0.5l-0.4-0.4l-0.3-0.2l-0.3-0.2L77,39.6z"/>
<path class="st1" d="M72.7,40.3l1,1.6c0.3,0.5,0.7,1.1,1.2,1.8l1.5,2.3c0.5,0.8,1.2,1.8,1.8,2.7c0.3,0.5,0.6,1,1,1.5
	c0.3,0.5,0.6,1.1,1,1.6c0.3,0.5,0.6,1.1,0.9,1.7l0.2,0.4l0.2,0.4c0.1,0.3,0.3,0.6,0.4,0.9l0.2,0.4c0,0.1,0.1,0.1,0.1,0.2l0.1,0.2
	l0.4,0.9l0.8,1.9l0.8,1.8l0.4,0.9l0.4,0.9c0.5,1.2,1.1,2.4,1.6,3.6l0.4,0.9c0,0.1,0.1,0.3,0.2,0.4l0.1,0.2l0.1,0.2
	c0.1,0.3,0.2,0.6,0.3,0.8l0.1,0.4c0,0.1,0.1,0.3,0.1,0.4c0.3,1.1,0.5,2.1,0.7,3.2c0.2,1,0.2,1.9,0.3,2.7c0.1,0.8,0.1,1.5,0.2,2.2
	c0,0.6,0,1.1,0,1.4v0.4c0,0,0-0.2,0-0.5c0-0.3,0-0.8,0-1.4c0-0.6,0-1.3-0.1-2.2c-0.1-0.8-0.1-1.8-0.3-2.8c-0.1-1.1-0.3-2.2-0.6-3.2
	c0-0.1-0.1-0.3-0.1-0.4c0-0.2-0.1-0.3-0.1-0.4c0-0.2-0.2-0.6-0.3-0.9l-0.1-0.2l-0.1-0.2c-0.1-0.1-0.1-0.3-0.2-0.4L87.1,66
	c-0.5-1.2-1-2.4-1.5-3.6c-0.1-0.3-0.3-0.6-0.4-0.9c-0.1-0.3-0.3-0.6-0.4-0.9l-0.8-1.9c-0.3-0.6-0.5-1.2-0.8-1.9
	c-0.1-0.3-0.3-0.6-0.4-0.9l-0.1-0.2c0-0.1-0.1-0.2-0.1-0.2l-0.2-0.5L82,54c-0.1-0.2-0.1-0.3-0.2-0.4l-0.2-0.4
	c-0.3-0.6-0.6-1.2-0.9-1.7l-0.9-1.6c-0.3-0.5-0.6-1.1-0.9-1.5c-0.6-1-1.2-1.9-1.7-2.8l-1.5-2.3c-0.4-0.7-0.8-1.3-1.1-1.8l-0.9-1.6
	L72.7,40.3z"/>
<path class="st1" d="M62.3,43.6l0.9,1.8c0.6,1.1,1.4,2.8,2.2,4.8c0.4,1,0.9,2.1,1.2,3.2c0.4,1.2,0.7,2.5,1,3.8
	c0.3,1.4,0.4,2.7,0.5,4.1c0,0.7,0,1.4,0,2.2c0,0.4,0,0.7,0,1.1l-0.1,1.1c-0.1,1.5-0.3,2.9-0.5,4.3c-0.2,1.4-0.4,2.8-0.6,4.2
	c-0.1,0.7-0.2,1.3-0.4,2c-0.1,0.6-0.3,1.3-0.4,1.9c-0.3,1.2-0.5,2.4-0.8,3.4c-0.3,1.1-0.5,2-0.8,2.9c-0.1,0.4-0.3,0.8-0.4,1.2
	c-0.1,0.4-0.2,0.7-0.3,1c-0.2,0.6-0.4,1.1-0.5,1.4l-0.2,0.5l0.2-0.5c0.1-0.3,0.3-0.8,0.5-1.4c0.1-0.3,0.2-0.6,0.4-1
	c0.1-0.4,0.3-0.8,0.4-1.2c0.3-0.9,0.6-1.8,0.9-2.9c0.3-1.1,0.6-2.2,0.9-3.4c0.1-0.6,0.3-1.2,0.4-1.9c0.1-0.6,0.3-1.3,0.4-2
	c0.3-1.3,0.5-2.7,0.7-4.2c0.2-1.4,0.4-2.9,0.6-4.3c0.2-1.5,0.2-2.9,0.2-4.4c0-1.4-0.2-2.8-0.4-4.2c-0.2-1.3-0.5-2.6-0.9-3.9
	c-0.4-1.2-0.8-2.3-1.2-3.4c-0.8-2.1-1.6-3.7-2.2-4.9c-0.5-1.2-0.9-1.8-0.9-1.8L62.3,43.6z"/>
<path class="st1" d="M67.7,40.7l-0.3-0.3c-0.2-0.2-0.5-0.5-0.9-0.8l-1.3-1.3l-1.7-1.6c-0.6-0.6-1.3-1.3-2.1-1.9
	c-0.4-0.3-0.8-0.6-1.2-1c-0.4-0.3-0.8-0.7-1.3-1c-0.5-0.3-0.9-0.6-1.4-0.9c-0.5-0.3-1-0.6-1.5-0.8l-0.4-0.2l-0.2-0.1l-0.2-0.1
	l-0.8-0.4c-0.3-0.1-0.5-0.2-0.8-0.3l-0.8-0.3l-1.6-0.6l-1.6-0.5l-0.8-0.3L48,28.1l-1.6-0.5l-3-0.9l-1.4-0.4L40.8,26l-1.2-0.4
	l-1.1-0.3L37.6,25l-0.8-0.3l-1.5-0.5l1.5,0.6l0.8,0.3l0.9,0.3l1.1,0.4l1.2,0.4l1.3,0.4l1.4,0.4l3,0.9l1.6,0.5l0.8,0.3l0.8,0.3
	c0.5,0.2,1.1,0.4,1.6,0.6l1.6,0.6l0.8,0.3l0.8,0.3l0.8,0.4l0.2,0.1l0.2,0.1l0.4,0.2c0.5,0.3,1,0.6,1.4,0.9c0.5,0.3,0.9,0.6,1.3,0.9
	c0.4,0.3,0.8,0.6,1.2,1c0.4,0.3,0.8,0.7,1.1,1c0.7,0.7,1.4,1.3,2,1.9l1.6,1.7l1.3,1.3l0.8,0.8l0.3,0.3L67.7,40.7z"/>
<path class="st1" d="M76.7,39.1c0,0,0-0.1,0-0.4c0-0.2,0-0.6-0.1-1.1c-0.1-0.5-0.1-1-0.2-1.6c0-0.3-0.1-0.6-0.1-1
	c-0.1-0.3-0.1-0.7-0.2-1.1c-0.1-0.4-0.2-0.8-0.2-1.2c0-0.2-0.1-0.4-0.1-0.6l-0.2-0.6c-0.1-0.4-0.2-0.9-0.4-1.3l-0.2-0.7l-0.2-0.7
	c-0.3-0.9-0.7-1.8-1.1-2.7c-0.4-0.9-0.9-1.8-1.3-2.7c-0.5-0.9-1.1-1.8-1.6-2.6c-0.5-0.8-1.2-1.6-1.8-2.3l-0.2-0.3L68.6,18l-0.5-0.5
	L67.7,17l-0.2-0.2l-0.2-0.2l-0.5-0.4l-0.5-0.4c-0.3-0.3-0.6-0.5-0.9-0.7l-0.5-0.3l-0.4-0.3l-0.8-0.5c-0.5-0.3-1-0.6-1.4-0.8
	c-0.4-0.2-0.7-0.3-0.9-0.4L61,12.4l0.3,0.2c0.2,0.1,0.5,0.2,0.9,0.4c0.4,0.2,0.9,0.5,1.4,0.8c0.2,0.2,0.5,0.3,0.8,0.6l0.4,0.3
	c0.1,0.1,0.3,0.2,0.4,0.3c0.1,0.1,0.6,0.5,0.9,0.8l0.5,0.4l0.5,0.5l0.2,0.2l0.2,0.2l0.5,0.5l0.4,0.5l0.2,0.3l0.2,0.3
	c0.6,0.8,1.1,1.6,1.7,2.4c0.5,0.8,1,1.7,1.5,2.6c0.5,0.9,0.9,1.8,1.2,2.7c0.4,0.9,0.7,1.8,1,2.7c0.1,0.2,0.1,0.4,0.2,0.7
	c0.1,0.2,0.1,0.4,0.2,0.7c0.1,0.4,0.2,0.9,0.3,1.3c0,0.2,0.1,0.4,0.1,0.6c0.1,0.2,0.1,0.4,0.1,0.6c0.1,0.4,0.1,0.8,0.2,1.2
	c0.1,0.4,0.1,0.7,0.2,1.1c0.1,0.4,0.1,0.7,0.1,1c0,0.6,0.1,1.1,0.1,1.6c0,0.4,0,0.8,0,1v0.4L76.7,39.1z"/>
<path class="st1" d="M82.9,39.6c-1.5-0.2-3-0.2-4.5-0.1c-2,0.2-3.9,0.5-5.8,1c-2.3,0.5-4.5,1.2-6.7,2.1c-1.2,0.4-2.3,0.9-3.5,1.5
	c-0.6,0.3-1.2,0.6-1.8,0.9c-0.6,0.3-1.2,0.6-1.8,1c-2.3,1.4-4.7,2.9-7.1,4.6c-2.4,1.6-4.8,3.2-7.2,5c-4.8,3.4-9.6,6.7-14.1,9.9
	c-4.5,3.1-8.8,6-12.5,8.3c-3,1.9-6.1,3.7-9.3,5.2c-0.9,0.4-1.8,0.7-2.8,0.9c-0.3,0-0.6,0.1-0.8,0.1c0.2,0,0.4-0.1,0.8-0.1
	c1-0.2,1.9-0.5,2.8-1c3.2-1.6,6.2-3.3,9.2-5.3c3.7-2.4,7.9-5.4,12.3-8.5c4.5-3.2,9.2-6.7,13.9-10.1c2.4-1.7,4.7-3.4,7.1-5.1
	c1.2-0.8,2.4-1.7,3.5-2.5c1.2-0.8,2.3-1.6,3.5-2.3c0.6-0.4,1.2-0.7,1.8-1c0.6-0.3,1.2-0.6,1.8-0.9c1.2-0.6,2.4-1.1,3.6-1.5
	c2.2-0.9,4.5-1.6,6.8-2.2c2-0.5,4-0.7,6-0.9c1.6-0.1,3.3-0.2,4.9-0.1c1.3,0.2,1.9,0.2,2.7,0.3c0.1,0.6,0.3,1.2,0.5,1.8
	c-0.2,0-0.5-0.2-0.7-0.2C84.8,39.9,83.8,39.7,82.9,39.6z"/>
<path class="st7" d="M178.7,211.5c0-7.8-30.7-15.4-68.6-15.4h-0.1c-37.9,0-68.6,7.6-68.6,15.4c0,7.8,30.7,14.1,68.6,14.1h0.1
	C148,225.6,178.7,219.3,178.7,211.5z"/>
<path class="st8" d="M49.4,212.3c0,0,23.2-11,35.3-6.5c0,0,9-3.4,9.9,1.1c0,0,15.5-7.6,29.9,4c0,0,10.5-7.5,15-2.5
	c0,0,16.7-5.9,16.7,0c0,0,8.2-2,10.8,2.5c0,0,4-3.1,3.7,0c0,0-3.7,8.8-56.2,10.8C61.8,223.7,49.4,212.3,49.4,212.3z"/>
<path class="st9" d="M120,156.1c0.6,4.6,1.4,9.2,2.2,13.7c0.8,4.5,1.7,8.9,2.6,13.2c0.9,4.3,1.7,8.4,2.4,12.3
	c0.7,3.7,1.2,7.4,1.5,11.2c0.1,1.7,0.2,3.3,0.1,5c0,0.8-0.1,1.6-0.2,2.3c-0.1,0.7-0.2,1.2-0.3,1.8h0.5c0.1-0.6,0.2-1.1,0.3-1.7
	c0.1-0.6,0.2-1.5,0.2-2.3c0.1-1.7,0-3.4-0.1-5c-0.3-3.8-0.7-7.5-1.4-11.2c-0.7-3.9-1.5-8.1-2.3-12.4c-1.7-8.6-3.4-17.7-4.5-26.9
	c-0.6-4.6-1-9.2-1.2-13.8c-0.2-4.6-0.3-9-0.2-13.4c0.2-4.1,0.8-8.2,2.1-12.2c1.1-3.5,2.6-6.9,4.6-10c1.7-2.6,3.7-4.9,6.1-6.9
	c0.5-0.4,1-0.8,1.6-1.2c0.5-0.4,1.1-0.7,1.6-1c0.9-0.5,1.9-1,2.9-1.3c1.4-0.5,2.9-0.9,4.4-1.1c0.2,0,0.5-0.1,0.7-0.1h0.5
	c0.1,0,0.2,0,0.3-0.1c0,0,0.1,0,0.1-0.1l-0.1-1.5h-0.1c-0.1,0-0.2,0-0.3,0h-0.5c-0.2,0-0.5,0-0.8,0.1c-1.6,0.2-3.2,0.6-4.7,1.2
	c-1.1,0.4-2.1,0.9-3.2,1.5c-0.5,0.3-1.1,0.7-1.7,1.1c-0.6,0.4-1.1,0.8-1.7,1.3c-2.5,2.1-4.7,4.5-6.4,7.3c-2,3.2-3.6,6.8-4.6,10.4
	c-1.2,4.1-1.8,8.2-1.9,12.5c-0.1,4.4,0,8.9,0.3,13.5C119,146.9,119.4,151.5,120,156.1z"/>
<path class="st9" d="M109.5,101.2c-0.6,4.6-1.4,9.2-2.2,13.7c-0.8,4.5-1.7,8.9-2.6,13.2c-0.9,4.3-8.3,54.7-9,58.6
	c-0.7,3.7-1.2,7.4-1.5,11.1c-0.1,1.7-0.2,3.3-0.1,5c0,0.8,0.1,1.6,0.2,2.3c0.1,0.7,0.2,1.2,0.3,1.8h-0.5c-0.1-0.6-0.2-1.1-0.3-1.7
	c-0.1-0.8-0.2-1.5-0.2-2.3c-0.1-1.7,0-3.3,0.1-5c0.3-3.8,0.7-7.5,1.4-11.2c0.7-3.9,8-54.4,8.8-58.7c1.7-8.6,3.4-17.7,4.5-26.9
	c0.6-4.6,1-9.2,1.2-13.8c0.2-4.6,0.3-9,0.2-13.4c-0.1-4.1-0.8-8.2-2-12.2c-1.1-3.5-2.6-6.9-4.6-10c-1.7-2.6-3.7-4.9-6.1-6.9
	c-0.5-0.4-1.1-0.8-1.6-1.2c-0.5-0.4-1.1-0.7-1.6-1c-0.9-0.5-1.9-1-2.9-1.3c-1.4-0.5-2.9-0.9-4.4-1.1L86,40.2h-0.5
	c-0.1,0-0.2,0-0.3-0.1L85.1,40l0.1-1.5c0,0,0.1,0,0.1-0.1c0.1,0,0.2,0,0.3,0l0.5,0.1c0.2,0,0.5,0,0.8,0.1c1.6,0.2,3.2,0.6,4.7,1.2
	c1.1,0.4,2.1,0.9,3.2,1.5c0.5,0.3,1.1,0.7,1.7,1.1c0.6,0.4,1.1,0.8,1.7,1.3c2.5,2.1,4.7,4.6,6.4,7.3c2,3.2,3.6,6.8,4.6,10.4
	c1.2,4.1,1.8,8.3,1.9,12.5c0.1,4.4,0,8.9-0.3,13.5C110.6,92,110.1,96.6,109.5,101.2z"/>
<path d="M50.4,118.6c-0.2,0.6-0.2,1.2-0.2,1.9c0,1.8,0.3,3.6,0.9,5.3c0.7,1.8,4.2,6.2,6.2,3.2c1-1.6,0.3-3.8-0.4-5.4
	c-0.6-1.6-1.6-3.2-2.2-4.8c-0.6-1.2-0.7-2.7-0.3-4c0.7-1.4,1.7-2.6,2.9-3.6c2.7-2.8,5.8-5.2,9.1-7.2c0.2-0.1,0.4-0.3,0.5-0.5
	c0.1-0.2,0.2-0.4,0.2-0.7s-0.1-0.5-0.2-0.7c-0.1-0.2-0.3-0.4-0.5-0.5c-2.7-1.5-5.7-2.6-8.7-3.1c-1.9-0.3-3.8-0.5-5.7-0.5
	c-2.9,0-5.8,0.7-8.4,2.1c-2.6,1.4-4.8,3.4-6.4,5.8c-0.1,0.2-0.2,0.4-0.2,0.7s0.1,0.5,0.2,0.7c0.1,0.2,0.3,0.4,0.5,0.5
	c0.2,0.1,0.4,0.2,0.7,0.2c2-0.1,4.1,0,6.1,0.1c1.3,0.1,2.6,0.3,3.8,0.8c0.3,0.1,0.5,0.3,0.7,0.5c0.1,0.1-0.1-0.1,0,0.1
	c0,0-0.2,0.3,0.1,0.1c0.3-0.2-0.1,0-0.4,0c-0.3,0-0.7-0.1-1-0.2c-0.9-0.2-1.7-0.6-2.6-0.9c-1.9-0.8-3.9-1.3-5.9-1.4
	c-3.6-0.1-6.7,2.9-9,5.3c-2.3,2.4-6.1,6.3-5.5,10.1c0.1,0.3,0.2,0.5,0.5,0.7c0.2,0.2,0.5,0.3,0.8,0.3c2.3-0.3,4.6-0.4,6.8-0.2
	c1.9,0.1,6.7,0.4,6.5,2.9c0,0.2-0.1,0.4-0.2,0.6c0-0.1,0.1-0.1,0.2-0.1c-0.7-0.1-1.3-0.2-2-0.5c-1.9-0.8-3.6-1.8-5.5-2.5
	c-1.8-0.8-3.8-1.2-5.8-1.1c-1.9,0.3-3.6,1.3-4.8,2.9c-3.6,3.9-7.1,9.5-7.4,15c0,0.2,0.1,0.5,0.2,0.7c0.1,0.2,0.3,0.4,0.5,0.5
	c0.2,0.1,0.4,0.2,0.7,0.2c0.2,0,0.5-0.1,0.7-0.2c1.4-0.9,2.8-1.8,4.3-2.5c1.6-0.8,4.7-2.6,6.5-1.6c0.2,0.1,0.7,0.5,0.6,0.5
	c-0.1,0.1,0-0.5,0-0.5c-0.1-0.2,0.1,0-0.1,0c-0.7,0.2-1.5,0.7-2.3,0.9c-1.9,0.5-3.8,0.8-5.7,1.1c-2.4,0.4-4.6,1.1-6,3.2
	c-1.4,2.2-1.3,4.8-1.6,7.3c-0.5,4.7-1.3,9.3-1.7,14c-0.1,1.6-0.5,3.8,0.2,5.3c1,2.2,4.2,0.3,5.7-0.4c2.7-1.3,5.2-2.8,7.5-4.6
	c1.4-1.1,2.6-2.6,3.3-4.3c1.1-2,1.9-4,3-6c0.2-0.3,0.4-0.6,0.5-0.9c0-0.2,0,0.1,0,0c0-0.1-2.5-0.5-2.2-0.8c0,0,0,0.2,0,0.2
	c0,0-0.2,0.7-0.3,0.9c-0.3,0.6-0.7,1.2-1.1,1.8c-0.9,1.3-1.7,2.8-2.3,4.2c-0.4,0.9-0.9,2.3-0.1,3.2c1.7,1.7,3.6-2,4.2-3.1
	c1.2-1.8,2.3-3.8,3.2-5.8c0.7-1.9,1-3.9,1.7-5.8c0.7-1.9,1.5-4,2.4-5.9c3.3-6.7,7.3-13.1,11.8-19.1c0.6-0.8,1.2-1.6,1.9-2.4
	c0.2-0.2,0.5-0.4,0.7-0.7c0.2-0.2,0.2-0.1,0.3-0.2c-0.2,0.1-0.6-0.4-0.2,0.2c1.1,1.4,2.9-0.5,1.9-1.9c-2.5-3.2-6,2.4-7.3,4.1
	c-2,2.8-4,5.6-5.9,8.5c-2.2,3.5-4.2,7.1-6,10.9c-0.9,1.9-1.7,3.9-2.4,5.9c-0.6,1.8-1,3.8-1.6,5.6c-0.4,0.9-0.9,1.8-1.5,2.7
	c-0.6,1.2-1.3,2.3-2,3.4c-0.3,0.4-0.5,0.9-0.9,1.3c-0.1,0.1-0.2,0.2-0.2,0.3c0,0-0.1,0.1-0.1,0.1c0.6-0.5,1.2-0.1,1.9,1
	c0.2-0.4,0.3-1.2,0.6-1.6c0.4-0.7,0.8-1.4,1.2-2.2c0.9-1.5,3.3-4.4,2.2-6.3c-1.3-2.3-3.1,1-3.7,2c-1.1,2-2,4.1-3.1,6.1
	c-0.3,0.6-0.7,1.2-1.2,1.6c-1,0.8-2,1.6-3.1,2.3c-2.3,1.7-4.9,3-7.6,3.9c0,0-0.7,0.1-0.7,0.2c0,0.2,1.4,0.4,1.2,0.6
	c0.1-0.1-0.1-0.5-0.1-0.7c0-1,0-1.9,0.1-2.9c0.3-4.9,1.2-9.7,1.7-14.5c0.2-2.2,0-5.1,1.7-6.8c1.4-1.3,3.7-1.3,5.5-1.6
	c2.2-0.3,11.3-1.9,7.7-5.8c-3.5-3.9-10.1,0.3-13.5,2.4c-0.4,0.3-0.9,0.5-1.3,0.8l2,1.2c0.3-2.7,1.2-5.3,2.7-7.5
	c1.2-2.3,2.7-4.3,4.5-6.2c0.6-0.7,1.4-1.1,2.2-1.4c0.8-0.2,1.7-0.2,2.6,0.1c2.1,0.6,4.1,1.4,6,2.5c1.5,0.7,3.2,1.7,5,1.6
	c1.7-0.2,2.5-1.8,2.5-3.5c0-3.7-4.4-4.8-7.3-5.2c-2.9-0.3-5.8-0.3-8.7,0.1l1.3,1c-0.2-1.1,1.1-2.8,1.7-3.8c1.2-1.8,2.7-3.4,4.3-4.8
	c1.3-1.4,2.8-2.4,4.5-3.2c1.7-0.6,3.8,0.1,5.4,0.7c2.3,0.8,7.5,3.4,8.4-0.6c0.7-3.1-3.3-4.1-5.6-4.4c-2.6-0.4-5.1-0.5-7.7-0.3l1.2,2
	c1.4-2.1,3.3-3.8,5.6-5c2.3-1.2,4.8-1.7,7.3-1.7c4.4,0,8.7,1.1,12.6,3.2v-2.3c-2.6,1.6-5.1,3.4-7.4,5.4c-2.2,1.7-4.1,3.8-5.5,6.2
	c-1.3,2.5-0.5,5.3,0.6,7.8c0.8,1.4,1.4,2.9,1.9,4.4c0.1,0.4,0.2,0.8,0.3,1.3c0,0,0,0.6,0,0.6c0,0,0.7,0,0.7-0.1c0-0.1-1-0.7-1.2-0.9
	c-1.3-1.4-1.5-3.5-1.7-5.4c-0.1-0.6-0.1-1.1,0.1-1.7C53.6,117.7,51,117,50.4,118.6z"/>
<path d="M81,101.6c-1,2.4-1.9,4.8-2.6,7.3c-0.4,1.9-1.1,3.6-2,5.3c-0.4,0.8-1,1.5-1.7,2.1l-0.9,0.7c0-0.1,0.7,0.5,0.7,0.5
	c0-0.2,0-0.5,0-0.7c0.1-0.6,0.3-1.2,0.5-1.7c0.6-1.9,1.4-3.7,2.3-5.5c0.9-1.7,2-3.3,3.1-4.9c0.5-0.8,1.2-1.4,1-2.4
	c-0.2-0.6-0.5-1.2-0.9-1.6c-2.3-2.6-6.7-2.3-9.7-1.5c-3.9,1.2-7.5,3.2-10.6,5.8c-2.3,1.8-4.5,3.8-6.4,6c-1.9,2.3-2.9,4.6-2.1,7.6
	c0.6,1.7,1.4,3.4,2.2,5c0.5,0.9,0.8,1.9,1,3c0,0.1,0.1,0.9,0.1,0.8l0.7-0.1l-0.2-0.1c-0.1-0.2-0.5-0.3-0.7-0.5
	c-1.5-1.3-1.9-3.4-2-5.3c-0.1-0.7-0.1-1.4,0-2.2c0.1-0.2,0.1-0.5,0-0.7c-0.1-0.2-0.2-0.4-0.3-0.6c-2.5-3.2-6,2.4-7.3,4.1
	c-2,2.7-3.9,5.4-5.7,8.3c-4.4,6.9-8.4,14.5-10.2,22.6c-0.1,0.3-0.1,0.7,0.1,1c0.1,0.3,0.4,0.5,0.7,0.7c0.3,0.1,0.6,0.1,1,0
	c0.3-0.1,0.6-0.3,0.8-0.6c2.6-4.5,5.9-8.5,9.9-11.8c2.6-2.4,5.5-4.4,8.6-6c3.3-1.4,6.8-2.5,10.2-3.4c3.9-1.2,7.8-2.2,11.8-2.9
	c1.9-0.3,3.8-0.5,5.8-0.6c0.9,0,1.7,0,2.6,0.1c0.9,0.1,2.1,0.4,3-0.1c5.8-3.2,13.2-9.2,10.3-16.6c-1.5-3.9-4.4-7.2-6.9-10.5
	c-0.9-1.1-1.9-2.7-3.3-3c-1.8-0.4-2.7,1.3-3.2,2.7c-0.6,1.6,2,2.3,2.6,0.7c0.1-0.3,0.3-0.6,0.5-0.9c-0.4,0.8-0.4-0.3-0.2,0.3
	c0.4,0.6,0.9,1.2,1.4,1.7l3.2,4.3c1.8,2.5,4.3,5.6,3.9,8.9c-0.4,3.3-3.5,5.8-6,7.5c-1.1,0.8-2.7,2.4-4.2,2.3
	c-1.8-0.2-3.6-0.2-5.3-0.1c-7.1,0.4-14,2.6-20.7,4.7c-3.1,0.8-6,2-8.8,3.5c-2.7,1.6-5.2,3.5-7.5,5.7c-4.1,3.5-7.5,7.6-10.2,12.2
	l2.5,1.1c1.6-7.1,4.8-13.7,8.6-19.9c1.6-2.6,3.3-5.2,5.1-7.7c0.8-1.2,1.7-2.3,2.5-3.5c0.5-0.7,1.1-1.5,1.8-2.2
	c0.2-0.2,0.6-0.4,0.7-0.6c0.1-0.1,0.1-0.1,0.2-0.1c-0.4-0.2-0.5-0.1-0.2,0.2l-0.3-1.3c-0.3,0.9-0.3,1.9-0.1,2.9
	c0,2.3,0.8,4.6,2.2,6.5c0.9,1.1,2.6,2.6,4.1,1.9c2.2-1.1,1.2-4.2,0.6-5.9c-0.8-2-2-3.9-2.6-6c-0.2-0.8-0.3-1.6-0.1-2.4
	c0.2-0.8,0.6-1.5,1.1-2.2c2.6-3.1,5.6-5.9,9.1-8c2.5-1.8,5.4-3.1,8.4-3.7c1.6-0.3,5.4-0.6,5.9,1.6l0.1-1.1
	c-2.7,3.5-4.9,7.4-6.4,11.5c-0.6,1.6-2,5.9,1.2,6.1c1.5,0.1,3-1.5,3.8-2.5c1.3-1.6,2.3-3.5,2.9-5.6c0.5-1.8,0.9-3.6,1.5-5.4
	c0.3-0.8,0.6-1.6,0.9-2.4c0.1-0.2,0.2-0.5,0.3-0.8c0.1-0.2-0.1,0.2,0,0C84,101.4,81.7,100,81,101.6z"/>
<path class="st9" d="M83.1,128.2c0,0,23.2-9.4,28.3,84.9h2.3c0,0-6.8-92.2-28.5-86.3L83.1,128.2z"/>
<linearGradient id="SVGID_2_" gradientUnits="userSpaceOnUse" x1="76.8829" y1="106.5925" x2="154.5337" y2="102.7944" gradientTransform="matrix(1 0 0 -1 0 328)">
	<stop  offset="0" style="stop-color:#FFFFFF;stop-opacity:0.5"/>
	<stop  offset="1" style="stop-color:#C0DFDF;stop-opacity:0"/>
</linearGradient>
<path class="st10" d="M39.2,215.5c0,0,5.1,13.7,72.2,13.4c67.1-0.3,70.7-15.8,70.7-15.8s7.7,21.9-70.7,22.8
	C34,236.7,39.2,215.5,39.2,215.5z"/>
<path class="st0" d="M229.6,196.6c0,0,0.3,0.7-0.2,3.2c-0.1,0.6-0.3,1.2-0.7,1.7c-0.4,0.5-0.8,0.9-1.4,1.2c-0.5,0.2-0.8-0.4-0.7-1.2
	c0.5-3,2.6-4.5,2.2-7.1c0,0,0-0.1,0-0.1c-0.3-1.8-3.8-4.8-5.2-5.8l-0.2-0.1c-0.8-0.6-1.9-1.4-2.8-1.9c1.4-0.9,3-1.5,4.7-1.8
	c1.4-0.2,8.6-1.9,12.6,4.2c0,0-8.9-0.4-7.4,2.3c0.7,1.4,5.3-1.9,7.8-1.1c2.6,0.8,7.8,6.4,7.4,8.5c0,0-10.4-1.3-9.2,3.1
	c0.7,2.5,6.6-3.4,10-1.8c1.9,0.9,5.9,6.6,6,10.2c0,0-5.6-3.8-7.6-2.6c-3.4,2,4.4,2.8,5.2,3c3,0.3,3.6,2.2,3.8,5.4
	c0.1,1.6,1.9,12.2,0.9,12.4c-1.9-0.2-7.1-3.4-8-4.7c-0.8-1-3.8-8.1-3.2-5.3c0.2,1,2.4,3.7,2.6,5.3c0.1,1.1-2.8-4.1-3.3-5.2
	c-1.5-7.2-6.6-14.8-9.6-18.9C231.9,197.7,230.5,195.4,229.6,196.6z"/>
<path class="st1" d="M241.3,212.5h0.5h0.2l0.3,0c0.2,0,0.4,0,0.7,0.1l0.4,0.1l0.2,0.1l0.2,0.1l0.2,0.1h0.1h0.1l0.4,0.2l0.1,0l0.1,0
	l0.2,0.1c0.2,0.1,0.3,0.1,0.4,0.2l0.4,0.2c0.2,0.1,0.3,0.2,0.4,0.3l0.1,0.1l0.1,0.1c0.1,0,0.1,0.1,0.2,0.1l0.2,0.2l0.2,0.2
	c0.2,0.2,0.4,0.5,0.7,0.7c0.4,0.5,0.8,0.9,1.1,1.3l0.2,0.3l0.2,0.2c0.1,0.1,0.3,0.3,0.4,0.4c0.1,0.1,0.1,0.1,0.2,0.1l0.1,0.1
	l0.1,0.1l-0.1-0.1l-0.1-0.1l-0.1-0.1c-0.2-0.1-0.3-0.2-0.4-0.3l-0.2-0.2l-0.2-0.3c-0.3-0.4-0.7-0.8-1.1-1.3
	c-0.2-0.2-0.4-0.5-0.7-0.7l-0.2-0.2l-0.2-0.2c-0.1-0.1-0.1-0.1-0.2-0.1c0,0-0.1,0-0.1-0.1l-0.1-0.1l-0.4-0.3l-0.4-0.2
	c-0.1-0.1-0.3-0.1-0.4-0.2l-0.2-0.1l-0.1,0h-0.1l-0.4-0.1H244h-0.1l-0.2-0.1l-0.2-0.1c-0.1,0-0.1,0-0.2,0l-0.4-0.1
	c-0.2,0-0.5-0.1-0.7-0.1h-0.3h-0.2h-0.5L241.3,212.5z"/>
<path class="st1" d="M234.9,205.5l0.2,0l0.2,0l0.3-0.1l0.3-0.1l0.4-0.1l0.4-0.1h0.2h0.3c0.3,0,0.7,0,1.1-0.1c0.4,0,0.8,0,1.2,0
	l1.3,0h0.7h0.3h0.3h0.7h0.7h0.3h0.3c0.2,0,0.4,0,0.7,0l0.6,0.1h0.3l0.3,0l0.3,0l0.3,0l0.5,0.1c0.3,0.1,0.6,0.1,0.9,0.2l0.4,0.1
	l0.3,0.1l0.6,0.2l-0.6-0.2l-0.3-0.1l-0.4-0.1c-0.3-0.1-0.6-0.1-0.9-0.2l-0.5-0.1h-0.3H246l-0.3,0h-0.3l-0.6,0c-0.2,0-0.4,0-0.6,0
	h-0.3h-1h-0.7h-0.3h-1.1h-1.3c-0.4,0-0.8,0-1.2,0c-0.4,0-0.8,0-1.1,0.1h-0.2h-0.2c-0.2,0-0.3,0-0.4,0.1l-0.4,0.1l-0.3,0.1l-0.3,0.1
	l-0.2,0l-0.2,0L234.9,205.5z"/>
<path class="st1" d="M225.4,198.1l0.2-0.1l0.4-0.3l0.7-0.4l0.9-0.5c0.3-0.2,0.7-0.4,1.1-0.6c0.2-0.1,0.4-0.2,0.6-0.3
	c0.2-0.1,0.4-0.2,0.7-0.3c0.3-0.1,0.5-0.2,0.7-0.3c0.2-0.1,0.5-0.1,0.7-0.2l0.2,0h0.1h0.1l0.4-0.1l0.4,0l0.4,0l0.8-0.1
	c0.3,0,0.5,0,0.8-0.1h0.4h0.4h0.7l1.4-0.1h0.7h0.6h0.6h0.5l0.4,0h0.4l0.7-0.1l-0.7,0.1l-0.4,0l-0.4,0l-0.5,0l-0.6,0l-0.6,0l-0.7,0
	L236,195l-0.7,0.1h-0.4l-0.4,0c-0.3,0-0.5,0-0.8,0.1l-0.8,0.1l-0.4,0.1c-0.1,0-0.3,0-0.4,0.1l-0.4,0.1h-0.1h-0.1l-0.2,0
	c-0.2,0.1-0.5,0.1-0.7,0.2c-0.2,0.1-0.5,0.2-0.7,0.3c-0.2,0.1-0.4,0.2-0.6,0.3c-0.2,0.1-0.4,0.2-0.6,0.3c-0.4,0.2-0.7,0.4-1.1,0.6
	l-0.9,0.6c-0.3,0.2-0.5,0.3-0.7,0.4l-0.4,0.3l-0.2,0.1L225.4,198.1z"/>
<path class="st1" d="M221.2,196l0.1-0.2c0-0.1,0.1-0.2,0.2-0.4c0.1-0.2,0.2-0.4,0.3-0.7c0.1-0.1,0.1-0.3,0.2-0.4
	c0.1-0.1,0.1-0.3,0.2-0.4c0.1-0.2,0.2-0.3,0.3-0.5l0.1-0.2l0.2-0.2c0.1-0.2,0.2-0.3,0.3-0.5c0.1-0.2,0.1-0.2,0.2-0.3
	c0.1-0.1,0.1-0.2,0.2-0.3c0.3-0.4,0.5-0.7,0.8-1c0.3-0.3,0.6-0.7,0.9-1c0.3-0.3,0.7-0.6,1-0.9c0.3-0.3,0.7-0.5,1.1-0.8l0.1-0.1
	l0.1-0.1l0.3-0.2l0.3-0.1l0.1-0.1l0.1-0.1l0.3-0.1l0.3-0.1c0.2-0.1,0.3-0.1,0.5-0.2l0.2-0.1l0.2-0.1l0.4-0.1
	c0.3-0.1,0.5-0.1,0.7-0.1c0.2,0,0.3,0,0.5,0h0.2h-0.2c-0.1,0-0.3,0-0.4,0.1c-0.2,0-0.5,0.1-0.7,0.2l-0.4,0.1l-0.2,0.1
	c-0.1,0-0.2,0-0.2,0.1c-0.1,0-0.3,0.1-0.5,0.2l-0.3,0.1l-0.3,0.1l-0.1,0.1l-0.1,0.1l-0.3,0.2l-0.3,0.2l-0.1,0.1l-0.1,0.1
	c-0.4,0.2-0.7,0.5-1,0.8c-0.3,0.3-0.7,0.6-1,0.9c-0.3,0.3-0.6,0.7-0.9,1c-0.3,0.3-0.5,0.7-0.8,1l-0.2,0.3l-0.2,0.3
	c-0.1,0.2-0.2,0.3-0.3,0.5l-0.1,0.2l-0.1,0.2c-0.1,0.2-0.2,0.3-0.2,0.5c-0.1,0.2-0.1,0.3-0.2,0.4c-0.1,0.1-0.1,0.3-0.2,0.4
	c-0.1,0.3-0.2,0.5-0.3,0.7c-0.1,0.2-0.1,0.3-0.1,0.4c0,0.1,0,0.1,0,0.1L221.2,196z"/>
<path class="st1" d="M230.5,205.5c0.6,0.1,1.1,0.2,1.6,0.4c0.7,0.3,1.4,0.6,2,0.9c0.8,0.4,1.5,0.9,2.2,1.4c0.4,0.3,0.8,0.6,1.1,0.9
	l0.6,0.5c0.2,0.2,0.4,0.3,0.5,0.5c0.7,0.7,1.4,1.5,2.1,2.3c0.7,0.8,1.4,1.7,2.1,2.5c1.4,1.7,2.8,3.4,4.1,4.9c1.3,1.5,2.6,3,3.7,4.2
	c0.9,1,1.8,1.9,2.8,2.8c0.3,0.2,0.6,0.4,0.9,0.6c0.1,0,0.2,0.1,0.3,0.1h0.1h-0.1l-0.3-0.1c-0.3-0.2-0.6-0.4-0.9-0.6
	c-1-0.9-1.9-1.8-2.8-2.8c-1.1-1.2-2.3-2.7-3.6-4.3c-1.3-1.6-2.7-3.3-4-5c-0.7-0.9-1.4-1.7-2-2.5c-0.3-0.4-0.7-0.8-1-1.2
	c-0.4-0.4-0.7-0.8-1.1-1.2c-0.2-0.2-0.4-0.4-0.6-0.5l-0.6-0.5c-0.4-0.3-0.8-0.6-1.1-0.9c-0.7-0.5-1.5-1-2.2-1.4
	c-0.7-0.4-1.4-0.7-2.1-0.9c-0.6-0.2-1.2-0.4-1.8-0.5c-0.5-0.1-0.7-0.1-1-0.2c-0.1,0.2-0.2,0.4-0.4,0.6h0.3
	C229.8,205.4,230.1,205.5,230.5,205.5L230.5,205.5z"/>
<path class="st2" d="M210.4,186.1c0.8,1.8,1.4,3.6,1.8,5.4c0.1,0.4,0.2,0.8,0.4,1.2c0.4,0.8,0.8,1.6,1.4,2.2c2.3,2.5,2.3,0.4,2-0.4
	c-0.4-1.2-0.8-2.3-1.3-3.4c-0.8-1.7-1.9-3.3-3-4.8c0.2-1.1,1.6-1.9,3.9-1.7c1.8,0.2,3.6,0.8,5.2,1.8l0,0c0.9,0.5,2,1.3,2.8,1.9
	l0.2,0.1c1.4,1.1,4.9,4.1,5.2,5.8c0,0,0,0.1,0,0.1c0.3,2.5-1.7,4.1-2.2,7.1c-0.1,0.8,0.2,1.4,0.7,1.2c0.5-0.3,1-0.7,1.4-1.2
	c0.4-0.5,0.6-1.1,0.7-1.7c0.5-2.5,0.2-3.2,0.2-3.2c0.8-1.2,2.2,1.1,3.6,2.9c3,4,8.1,11.7,9.6,18.9c-1.1-1.9-2.5-3.7-4-5.4
	c-1.8-1.8-3.8-3.5-5.9-5c-2.4-1.7-6.4-2.7-9.2-3.6c-4.8-1.4-8.7-2.4-12.7-2.1c-0.4,0-0.8,0.1-1.2,0.1c-1.2-0.7-2.3-1.5-3.4-2.4
	c-2.1-1.7-3.6-3.7-3.2-6c0.4-2.3,2.5-4.8,4-6.8C208.6,185.3,209.6,183.8,210.4,186.1z"/>
<path class="st3" d="M214.5,191.9c0,0,0.1,0.1-0.4,0.5c-0.3,0.3,0.4,0,1-0.3l0.2,0.4c-0.2,0.2-0.3,0.4-0.5,0.6
	c-0.3,0.3,0.4,0.7,1,0.9l0.2,0.6c0.1,0.4,0.1,0.8,0.1,1.1c-0.1,0.1-0.2,0.3-0.3,0.4c-0.3,0.1-0.8-0.1-1.8-1.2
	c-0.5-0.7-1-1.4-1.4-2.2l1-0.8L214.5,191.9z"/>
<path class="st0" d="M186.7,219.9c-0.4,2.9-0.9,5.8-1.4,8.7c-0.5,2.8-1.1,5.6-1.6,8.3c-0.5,2.7-1.1,5.3-1.5,7.8
	c-0.4,2.3-0.8,4.7-0.9,7c-0.1,1-0.1,2.1-0.1,3.1c0,0.5,0.1,1,0.1,1.5c0.1,0.5,0.1,0.9,0.2,1.3h-0.3c-0.1-0.4-0.2-0.8-0.2-1.3
	c-0.1-0.4-0.1-1-0.1-1.5c0-1.1,0-2.1,0-3.2c0.2-2.4,0.5-4.7,0.9-7.1c0.4-2.5,0.9-5.1,1.4-7.8c1-5.4,2.1-11.2,2.9-17
	c0.4-2.9,0.6-5.8,0.8-8.7c0.2-2.9,0.2-5.7,0.1-8.4c-0.1-2.6-0.5-5.2-1.3-7.7c-0.7-2.2-1.7-4.3-2.9-6.3c-1-1.6-2.4-3.1-3.9-4.4
	c-0.3-0.3-0.7-0.5-1-0.7c-0.3-0.2-0.7-0.4-1-0.6c-0.6-0.3-1.2-0.6-1.9-0.8c-0.9-0.3-1.8-0.6-2.8-0.7c-0.2,0-0.3,0-0.4,0h-0.3
	c-0.1,0-0.1,0-0.2,0l-0.1,0l0.1-1c0,0,0,0,0.1,0c0.1,0,0.1,0,0.2,0l0.3,0c0.1,0,0.3,0,0.5,0.1c1,0.1,2,0.4,3,0.8
	c0.7,0.3,1.4,0.6,2,0.9c0.3,0.2,0.7,0.4,1.1,0.7c0.4,0.3,0.7,0.5,1.1,0.8c1.6,1.3,2.9,2.9,4,4.6c1.3,2,2.3,4.3,2.9,6.6
	c0.7,2.6,1.2,5.2,1.2,7.9c0.1,2.8,0,5.6-0.2,8.5C187.4,214.1,187,217,186.7,219.9z"/>
<path class="st0" d="M193,185.2c0.4,2.9,0.9,5.8,1.4,8.7c0.5,2.8,1.1,5.6,1.6,8.3c0.5,2.7,5.2,34.5,5.7,37c0.4,2.3,0.7,4.7,0.9,7
	c0.1,1,0.1,2.1,0.1,3.1c0,0.5-0.1,1-0.1,1.4s-0.1,0.9-0.2,1.3h0.3c0.1-0.4,0.2-0.8,0.2-1.3c0.1-0.4,0.1-1,0.1-1.5c0-1.1,0-2.1,0-3.2
	c-0.2-2.4-0.5-4.7-0.9-7.1c-0.4-2.5-5.1-34.3-5.6-37c-1.1-5.4-2.1-11.2-2.9-17c-0.4-2.9-0.6-5.8-0.8-8.7c-0.2-2.9-0.2-5.7-0.1-8.4
	c0.1-2.6,0.5-5.2,1.3-7.7c0.7-2.2,1.6-4.4,2.9-6.3c1-1.7,2.4-3.1,3.9-4.4c0.3-0.3,0.7-0.5,1-0.7c0.3-0.2,0.7-0.4,1-0.6
	c0.6-0.3,1.2-0.6,1.9-0.9c0.9-0.3,1.8-0.6,2.8-0.7c0.2,0,0.3,0,0.4,0h0.3c0.1,0,0.1,0,0.2,0c0,0,0,0,0.1,0l-0.1-1l-0.1,0
	c-0.1,0-0.1,0-0.2,0h-0.3l-0.5,0.1c-1,0.1-2,0.4-3,0.8c-0.7,0.3-1.4,0.6-2,0.9c-0.3,0.2-0.7,0.4-1.1,0.7c-0.4,0.3-0.7,0.5-1.1,0.8
	c-1.6,1.3-2.9,2.9-4,4.6c-1.3,2-2.3,4.3-2.9,6.6c-0.7,2.6-1.2,5.2-1.2,7.9c-0.1,2.8,0,5.6,0.2,8.5
	C192.3,179.3,192.6,182.3,193,185.2z"/>
<path class="st11" d="M146.6,181.9c2.8,0.7,4.1,1,4.4,0.1c0.3-1.1-4.2-3-7.9-3.4c-3.8-0.4-10.9-2.2-10.9-2.2s0.9-4.8,4.9-7.5
	c1.7-1.1,9-1.9,12.8-1.2c3.8,0.7,8.7,6,9.8,6.8c1.1,0.8,2.9-0.2,1.8-1.8c-3.9-5.8-16-8.3-16-8.3s-1.1-2.2,2-3.8
	c1.6-0.8,13-6.8,22.9-1.8c7.5,3.8,2,19.4,2,19.4c-0.7,1.6-2.5,4.1,4.4,6.4c6.9,2.4,11.6,7.7,12.2,12.5c0.6,4.8-4.9,7.9-4.9,7.9
	c-4.8-2.6-6.6-9.4-7.6-11.7c-1-2.3-2.7,0.7-1.8,2.9c0.9,2.2,8.2,8.2,7.4,10.9c-0.8,2.7-12.6,7.6-13.2,5.2c-0.8-2.8-2-7.5-1.8-10.9
	c0.2-2.8-2-3.4-3.1-1.1c-1.2,2.3,2.4,4.9,3.6,11.4c1.2,6.5-21.4,5.5-20.1,3.6c1.3-1.8,1.6-3.9,2.6-5.3c1-1.5,5.3-13.9,1.9-12
	c-2.6,1.5-3.2,5.5-4.4,11.9c-0.9,4.9-5,5.6-6.6,5.2c-2-0.5-9.2-2.3-8.8-2.6c0.4-0.3,7-7.5,7.1-9.7c0.1-2.2-3.9,2.3-4.2,3.3
	c-0.3,1-3.6,3.7-5.6,4c-2,0.3-9.6-2.9-9.4-3.8c0.2-0.8,0.6-5.7,1.5-8.4c0.5-1.3,2.6-5.2,5.4-5.5c1.6-0.2,13.1,0.9,13.8-1.4
	s-14.7,0.1-14.9-0.7c-0.2-0.8,1-8.9,3.5-11.1C131.9,177.1,145,181.5,146.6,181.9z M162.6,190.2c0,1.1,0.2,3.5,1,4.4
	c1.6,1.7,2.5-0.4,2.2-1.9c-0.2-1.8-1.3-3.6-2-5.1C162.5,184.1,162.5,188.4,162.6,190.2z M153.9,189.6c-0.2,0.7-0.4,1.3-0.4,2
	c-0.2,1-0.6,3.8,0.3,4.4c1.5,1,2.7-1.3,2.5-2.5c-0.2-1.4-0.6-4-1.5-5C154.4,188.2,154.2,188.8,153.9,189.6L153.9,189.6z
	 M150.6,176.9c-2.4,1.6,2.3,3,3.3,3C155.8,179.8,152.1,175.9,150.6,176.9L150.6,176.9z M142.5,195.2c-0.2,0.8,0.4,1.3,1.2,0.9
	c1.1-0.5,1.5-3.4,0-2.5C143.2,194,142.8,194.5,142.5,195.2L142.5,195.2z M139.7,188.6c1,0.3,2,0.5,3,0.6c1.2-0.2,1.2-1,0.3-1.7
	C141.5,186.4,137.6,187.3,139.7,188.6L139.7,188.6z"/>
<linearGradient id="SVGID_3_" gradientUnits="userSpaceOnUse" x1="192.8003" y1="78.933" x2="192.8003" y2="7.7343" gradientTransform="matrix(1 0 0 -1 0 328)">
	<stop  offset="0" style="stop-color:#323534"/>
	<stop  offset="6.000000e-02" style="stop-color:#484F4E"/>
	<stop  offset="0.18" style="stop-color:#738382"/>
	<stop  offset="0.3" style="stop-color:#95ABAB"/>
	<stop  offset="0.4" style="stop-color:#ADC8C8"/>
	<stop  offset="0.49" style="stop-color:#BCDADA"/>
	<stop  offset="0.56" style="stop-color:#C1E0E0"/>
	<stop  offset="0.64" style="stop-color:#BDDBDC"/>
	<stop  offset="0.73" style="stop-color:#B0CECF"/>
	<stop  offset="0.82" style="stop-color:#9BB7B9"/>
	<stop  offset="0.92" style="stop-color:#7E989B"/>
	<stop  offset="1" style="stop-color:#60787C"/>
</linearGradient>
<path class="st12" d="M192.8,241.6c0,0,47.6,0.1,47.1,13.3c-0.5,13.1-14.3,62.6-21.6,67.1c-8.2,5-25.4,5-25.5,5
	c-14.4,0.1-21.8-2.8-25.5-4.9c-7.5-4.2-21.1-53.9-21.6-67.1C145.2,241.9,192.8,241.6,192.8,241.6z"/>
<path class="st1" d="M168,180.9l0.1-0.1c0.1-0.1,0.1-0.2,0.2-0.3c0.1-0.2,0.2-0.3,0.2-0.5c0.1-0.2,0.2-0.4,0.2-0.7l0-0.2
	c0-0.1,0-0.1,0-0.2c0-0.1,0-0.3,0-0.4c0-0.3,0-0.6,0-0.9c0-0.3-0.1-0.7-0.1-1c0-0.3-0.1-0.7-0.2-1c-0.1-0.7-0.3-1.3-0.4-1.9
	c-0.1-0.3-0.1-0.6-0.2-0.9c-0.1-0.3-0.1-0.5-0.1-0.8c0-0.1,0-0.2,0-0.4c0-0.1,0-0.2,0-0.3c0-0.1,0-0.4,0-0.5c0-0.1,0-0.3,0-0.3
	c0,0.1,0,0.2,0,0.3c0,0.2,0,0.3,0,0.5c0,0.2,0,0.2,0,0.3c0,0.1,0,0.2,0,0.4c0,0.2,0.1,0.5,0.1,0.8c0,0.3,0.1,0.6,0.1,0.9
	c0.1,0.6,0.2,1.3,0.3,1.9c0,0.3,0.1,0.7,0.1,1c0,0.3,0,0.6,0,0.9c0,0.3,0,0.6-0.1,0.9c0,0.1,0,0.3-0.1,0.4l0,0.2c0,0.1,0,0.1,0,0.2
	c-0.1,0.2-0.1,0.4-0.2,0.6c-0.1,0.1-0.1,0.3-0.2,0.4c-0.1,0.1-0.1,0.2-0.2,0.3l-0.1,0.1L168,180.9z"/>
<path class="st1" d="M166,181.2l0.2,0.1l0.2,0.1l0.3,0.2c0.1,0.1,0.2,0.2,0.3,0.3c0.1,0.1,0.2,0.2,0.4,0.3l0.4,0.4l0.4,0.4
	c0.3,0.3,0.6,0.6,1,1c0.3,0.4,0.7,0.7,1.2,1.1c0.4,0.4,0.9,0.7,1.4,1c0.5,0.3,1,0.5,1.5,0.8c1,0.5,2,1.1,3,1.6
	c0.9,0.5,1.7,1,2.5,1.6c0.6,0.4,1.1,0.9,1.5,1.5c0.1,0.1,0.1,0.2,0.2,0.3c0,0.1,0.1,0.2,0.1,0.2c0,0.1,0.1,0.2,0.1,0.2l-0.1-0.2
	c0-0.1-0.1-0.1-0.1-0.2s-0.1-0.2-0.2-0.3c-0.4-0.6-0.9-1.1-1.4-1.5c-0.8-0.6-1.6-1.2-2.4-1.7c-0.9-0.6-1.9-1.1-2.9-1.7
	c-0.5-0.3-1-0.6-1.5-0.9c-0.5-0.3-0.9-0.6-1.3-1c-0.4-0.4-0.8-0.7-1.1-1.1l-1-1l-0.4-0.5c-0.1-0.1-0.3-0.3-0.4-0.4
	c-0.1-0.1-0.3-0.2-0.4-0.3l-0.3-0.3l-0.3-0.2l-0.2-0.2l-0.2-0.1L166,181.2z"/>
<path class="st1" d="M163.3,181.6l0.6,1c0.2,0.3,0.4,0.7,0.7,1.1l1,1.5c0.3,0.5,0.7,1.1,1.1,1.7c0.2,0.3,0.4,0.6,0.6,0.9l0.6,1
	c0.2,0.3,0.4,0.7,0.6,1.1l0.2,0.3c0,0.1,0.1,0.2,0.1,0.3l0.3,0.6l0.1,0.3c0,0,0.1,0.1,0.1,0.1l0.1,0.1l0.3,0.6l0.5,1.2l0.5,1.2
	l0.3,0.6c0.1,0.2,0.2,0.4,0.3,0.6l1,2.3l0.2,0.5l0.1,0.3l0.1,0.1l0.1,0.1c0.1,0.2,0.1,0.4,0.2,0.5l0.1,0.3c0,0.1,0,0.2,0.1,0.3
	c0.2,0.7,0.3,1.4,0.4,2c0.1,0.6,0.2,1.2,0.2,1.7c0,0.5,0.1,1,0.1,1.4c0,0.4,0,0.7,0,0.9v0.3c0,0,0-0.1,0-0.3c0-0.2,0-0.5,0-0.9
	c0-0.4,0-0.8-0.1-1.4c-0.1-0.5-0.1-1.1-0.2-1.7c-0.1-0.7-0.2-1.4-0.4-2c0-0.1,0-0.2-0.1-0.3c0-0.1,0-0.2-0.1-0.3
	c-0.1-0.2-0.1-0.4-0.2-0.6l0-0.1l-0.1-0.1c0-0.1-0.1-0.2-0.1-0.3l-0.2-0.6l-0.9-2.3c-0.1-0.2-0.2-0.4-0.2-0.6
	c-0.1-0.2-0.2-0.4-0.3-0.6l-0.5-1.2c-0.2-0.4-0.3-0.8-0.5-1.2c-0.1-0.2-0.2-0.4-0.3-0.6l-0.1-0.1c0-0.1,0-0.1-0.1-0.2l-0.1-0.3
	c-0.1-0.2-0.2-0.4-0.3-0.6c-0.1-0.2-0.1-0.2-0.1-0.3l-0.1-0.3c-0.2-0.4-0.4-0.7-0.6-1.1c-0.2-0.3-0.4-0.7-0.6-1
	c-0.2-0.3-0.4-0.7-0.6-1c-0.4-0.6-0.8-1.2-1.1-1.8l-0.9-1.5c-0.3-0.4-0.5-0.8-0.7-1.1l-0.6-1L163.3,181.6z"/>
<path class="st1" d="M156.7,183.7l0.6,1.1c0.4,0.7,0.9,1.7,1.4,3c0.3,0.6,0.5,1.3,0.8,2c0.3,0.8,0.5,1.6,0.6,2.4
	c0.2,0.9,0.3,1.7,0.3,2.6c0,0.4,0,0.9,0,1.4c0,0.2,0,0.5,0,0.7l0,0.7c-0.1,0.9-0.2,1.8-0.3,2.7c-0.1,0.9-0.3,1.8-0.4,2.6
	c-0.1,0.4-0.2,0.8-0.2,1.3c-0.1,0.4-0.2,0.8-0.2,1.2c-0.2,0.8-0.3,1.5-0.5,2.2c-0.2,0.7-0.3,1.3-0.5,1.8c-0.1,0.3-0.2,0.5-0.2,0.8
	l-0.2,0.6c-0.1,0.4-0.2,0.7-0.3,0.9l-0.1,0.3l0.1-0.3c0.1-0.2,0.2-0.5,0.3-0.9c0.1-0.2,0.1-0.4,0.2-0.6l0.2-0.7
	c0.2-0.5,0.4-1.1,0.5-1.8c0.2-0.7,0.4-1.4,0.6-2.2c0.1-0.4,0.2-0.8,0.3-1.2c0.1-0.4,0.2-0.8,0.3-1.3c0.2-0.8,0.3-1.7,0.5-2.6
	c0.1-0.9,0.3-1.8,0.4-2.7c0.1-0.9,0.1-1.8,0.1-2.8c0-0.9-0.1-1.8-0.3-2.7c-0.1-0.8-0.3-1.6-0.6-2.4c-0.2-0.8-0.5-1.5-0.8-2.1
	c-0.5-1.3-1-2.3-1.4-3.1l-0.6-1.1L156.7,183.7z"/>
<path class="st1" d="M160.1,181.8l-0.2-0.2c-0.1-0.1-0.3-0.3-0.5-0.5l-0.8-0.8l-1.1-1c-0.4-0.4-0.8-0.8-1.3-1.2
	c-0.2-0.2-0.5-0.4-0.7-0.6c-0.3-0.2-0.5-0.4-0.8-0.6c-0.3-0.2-0.6-0.4-0.9-0.6c-0.3-0.2-0.6-0.4-0.9-0.5l-0.2-0.1l-0.1-0.1l-0.1-0.1
	l-0.5-0.2c-0.2-0.1-0.3-0.1-0.5-0.2l-0.5-0.2l-1-0.4l-1-0.3l-0.5-0.2l-0.5-0.2l-1-0.3l-1.9-0.5l-0.9-0.3l-0.8-0.2l-0.8-0.2l-0.7-0.2
	l-0.6-0.2l-0.5-0.2l-0.9-0.3l0.9,0.4l0.5,0.2l0.6,0.2l0.7,0.2l0.7,0.2l0.8,0.3l0.9,0.3l1.9,0.6l1,0.3l0.5,0.2l0.5,0.2
	c0.3,0.1,0.7,0.2,1,0.4l1,0.4l0.5,0.2l0.5,0.2l0.5,0.2l0.1,0.1l0.1,0.1l0.2,0.1c0.3,0.2,0.6,0.4,0.9,0.5c0.3,0.2,0.6,0.4,0.8,0.6
	c0.3,0.2,0.5,0.4,0.8,0.6c0.2,0.2,0.5,0.4,0.7,0.6c0.5,0.4,0.9,0.8,1.2,1.2l1,1.1c0.3,0.3,0.6,0.6,0.8,0.8l0.5,0.5l0.2,0.2
	L160.1,181.8z"/>
<path class="st1" d="M165.8,180.8v-0.2c0-0.2,0-0.4,0-0.7s0-0.6-0.1-1c0-0.2-0.1-0.4-0.1-0.6s-0.1-0.4-0.1-0.7
	c0-0.2-0.1-0.5-0.2-0.7c0-0.1-0.1-0.3-0.1-0.4l-0.1-0.4c-0.1-0.3-0.2-0.5-0.2-0.8c0-0.1-0.1-0.3-0.1-0.4c0-0.1-0.1-0.3-0.1-0.4
	c-0.2-0.6-0.4-1.1-0.7-1.7c-0.3-0.6-0.5-1.2-0.8-1.7c-0.3-0.6-0.7-1.1-1-1.6c-0.3-0.5-0.7-1-1.1-1.5l-0.1-0.2l-0.2-0.2l-0.3-0.3
	l-0.3-0.3c-0.1,0-0.1-0.1-0.2-0.2l-0.2-0.1l-0.3-0.3l-0.3-0.3c-0.2-0.2-0.4-0.3-0.6-0.5c-0.1-0.1-0.2-0.1-0.3-0.2l-0.3-0.2l-0.5-0.3
	c-0.3-0.2-0.6-0.4-0.9-0.5c-0.3-0.1-0.5-0.2-0.6-0.3l-0.2-0.1l0.2,0.1c0.1,0.1,0.3,0.2,0.6,0.3c0.2,0.1,0.5,0.3,0.9,0.5l0.5,0.3
	l0.3,0.2l0.3,0.2c0.2,0.2,0.4,0.3,0.6,0.5l0.3,0.3l0.3,0.3l0.1,0.2l0.1,0.2l0.3,0.3l0.3,0.3l0.1,0.2l0.1,0.2c0.4,0.5,0.7,1,1,1.5
	c0.3,0.5,0.6,1.1,0.9,1.6c0.3,0.6,0.5,1.1,0.8,1.7c0.2,0.6,0.4,1.1,0.6,1.7c0,0.1,0.1,0.3,0.1,0.4c0,0.1,0.1,0.3,0.1,0.4
	c0.1,0.3,0.2,0.5,0.2,0.8c0,0.1,0.1,0.3,0.1,0.4c0,0.1,0,0.3,0.1,0.4c0,0.2,0.1,0.5,0.1,0.7c0,0.2,0.1,0.5,0.1,0.7
	c0,0.2,0,0.4,0.1,0.6c0,0.4,0.1,0.7,0.1,1c0,0.3,0,0.5,0,0.6v0.2L165.8,180.8z"/>
<path class="st1" d="M169.7,181.2c-0.9-0.1-1.9-0.2-2.8-0.1c-1.2,0.1-2.5,0.3-3.7,0.6c-1.4,0.3-2.8,0.8-4.2,1.3
	c-0.7,0.3-1.5,0.6-2.2,0.9l-1.1,0.5c-0.4,0.2-0.7,0.4-1.1,0.6c-1.5,0.9-3,1.9-4.5,2.9c-1.5,1-3,2.1-4.5,3.1c-3,2.1-6,4.3-8.9,6.2
	c-2.9,2-5.5,3.8-7.9,5.3c-1.9,1.2-3.8,2.3-5.9,3.3c-0.6,0.3-1.2,0.5-1.8,0.6c-0.2,0-0.4,0.1-0.5,0.1c0.1,0,0.3-0.1,0.5-0.1
	c0.6-0.1,1.2-0.3,1.8-0.6c2-1,3.9-2.1,5.8-3.4c2.3-1.5,5-3.4,7.8-5.4c2.8-2,5.8-4.2,8.8-6.4c1.5-1.1,3-2.2,4.5-3.2
	c0.7-0.5,1.5-1,2.2-1.5c0.7-0.5,1.5-1,2.2-1.4c0.4-0.2,0.8-0.4,1.1-0.6c0.4-0.2,0.8-0.4,1.1-0.6c0.8-0.4,1.5-0.7,2.3-1
	c1.4-0.6,2.8-1,4.3-1.4c1.3-0.3,2.5-0.5,3.8-0.6c1-0.1,2.1-0.1,3.1-0.1c0.8,0.1,1.2,0.1,1.7,0.2c0.1,0.4,0.2,0.8,0.3,1.1
	c-0.1,0-0.3-0.1-0.5-0.1C170.9,181.3,170.3,181.2,169.7,181.2L169.7,181.2z"/>
<path class="st13" d="M250.2,144.6c2.5,2.2,3.7,10.3,3.5,11.1c-0.2,0.8-15.6-1.6-14.9,0.7c0.7,2.3,12.3,1.2,13.8,1.4
	c2.8,0.4,4.9,4.2,5.4,5.5c0.9,2.6,1.3,7.5,1.5,8.4c0.2,0.8-7.3,4.1-9.4,3.8c-2-0.3-5.3-3-5.6-4c-0.3-1-4.3-5.5-4.2-3.3
	c0.1,2.2,6.7,9.4,7.1,9.7c0.4,0.3-6.7,2.1-8.8,2.6c-1.6,0.4-5.7-0.4-6.6-5.2c-1.2-6.4-1.8-10.4-4.4-11.9c-3.4-1.9,0.8,10.5,1.9,12
	c1,1.5,1.4,3.5,2.6,5.3c1.3,1.9-21.2,2.8-20.1-3.6c1.2-6.5,4.8-9.1,3.6-11.4c-1.2-2.3-3.3-1.7-3.1,1.1c0.2,3.3-1.1,8.1-1.8,10.9
	c-0.7,2.4-12.4-2.5-13.2-5.2c-0.8-2.7,6.5-8.7,7.4-10.9c0.9-2.2-0.9-5.2-1.8-2.9c-1,2.3-2.8,9.1-7.6,11.7c0,0-5.6-3.1-4.9-7.9
	c0.7-4.8,5.3-10.1,12.2-12.4c6.9-2.4,5-4.8,4.4-6.5c0,0-5.4-15.6,2-19.4c9.9-5,21.3,1,22.9,1.8c3.2,1.6,2,3.8,2,3.8
	s-12.1,2.6-16,8.3c-1.1,1.6,0.7,2.6,1.8,1.8c1.1-0.8,5.9-6.1,9.8-6.8c3.8-0.7,11.1,0.1,12.8,1.2c4.1,2.7,4.9,7.5,4.9,7.5
	s-7.1,1.8-10.9,2.2c-3.7,0.4-8.3,2.3-7.9,3.4c0.3,0.9,1.6,0.6,4.4-0.1C234.7,146.8,247.6,142.3,250.2,144.6z M215.8,152.9
	c-0.7,1.5-1.8,3.4-2,5.1c-0.3,1.5,0.6,3.6,2.2,1.9c0.8-0.9,1-3.4,1-4.4C217.1,153.7,217.2,149.4,215.8,152.9L215.8,152.9z
	 M224.8,154c-0.9,1-1.3,3.6-1.5,5c-0.1,1.1,1,3.5,2.5,2.5c0.9-0.6,0.5-3.5,0.3-4.4c0-0.7-0.2-1.4-0.4-2
	C225.6,154.2,225.3,153.6,224.8,154z M225.8,145.3c1,0,5.7-1.5,3.3-3C227.6,141.2,223.9,145.1,225.8,145.3L225.8,145.3z M236,158.9
	c-1.5-0.8-1,2,0,2.5c0.7,0.4,1.4,0,1.2-0.9C236.9,159.9,236.5,159.3,236,158.9L236,158.9z M236.8,152.8c-0.9,0.7-1,1.5,0.3,1.7
	c1,0,2-0.2,3-0.5C242.1,152.6,238.2,151.8,236.8,152.8L236.8,152.8z"/>
<path class="st1" d="M211.7,146.2l-0.1-0.1c-0.1-0.1-0.1-0.2-0.2-0.3c-0.1-0.2-0.2-0.3-0.2-0.5c-0.1-0.2-0.2-0.4-0.2-0.7l0-0.2
	c0-0.1,0-0.1,0-0.2c0-0.1,0-0.3,0-0.4c0-0.3,0-0.6,0-0.9c0-0.3,0.1-0.6,0.1-1c0-0.3,0.1-0.7,0.2-1c0.1-0.7,0.3-1.3,0.4-1.9
	c0.1-0.3,0.1-0.6,0.2-0.9c0.1-0.3,0.1-0.5,0.1-0.8c0-0.1,0-0.2,0-0.4c0-0.1,0-0.2,0-0.3c0-0.2,0-0.4,0-0.5c0-0.1,0-0.3,0-0.3
	c0,0.1,0,0.2,0,0.3s0,0.3,0,0.5c0,0.1,0,0.2,0,0.3c0,0.1,0,0.2,0,0.4c0,0.3-0.1,0.5-0.1,0.8c0,0.3-0.1,0.6-0.1,0.9
	c-0.1,0.6-0.2,1.3-0.3,1.9c0,0.3-0.1,0.7-0.1,1c0,0.3,0,0.6,0,0.9c0,0.3,0,0.6,0.1,0.9c0,0.1,0,0.3,0.1,0.4c0,0.1,0,0.1,0,0.2
	c0,0.1,0,0.1,0,0.2c0.1,0.2,0.1,0.4,0.2,0.6c0.1,0.1,0.1,0.3,0.2,0.4c0.1,0.1,0.1,0.2,0.2,0.3l0.1,0.1L211.7,146.2z"/>
<path class="st1" d="M213.7,146.5l-0.2,0.1l-0.2,0.1l-0.3,0.2c-0.1,0.1-0.2,0.2-0.3,0.3c-0.1,0.1-0.2,0.2-0.4,0.3
	c-0.1,0.1-0.3,0.2-0.4,0.4l-0.4,0.4l-1,1c-0.4,0.4-0.7,0.7-1.2,1.1c-0.4,0.4-0.9,0.7-1.4,1c-0.5,0.3-1,0.5-1.5,0.8
	c-1,0.5-2,1.1-3,1.6c-0.9,0.5-1.7,1-2.5,1.6c-0.6,0.4-1.1,0.9-1.5,1.5c-0.1,0.1-0.1,0.2-0.2,0.3c0,0.1-0.1,0.2-0.1,0.2l-0.1,0.2
	l0.1-0.2c0-0.1,0.1-0.1,0.1-0.2c0-0.1,0.1-0.2,0.2-0.3c0.4-0.6,0.9-1.1,1.4-1.5c0.8-0.6,1.6-1.2,2.4-1.7c0.9-0.6,1.9-1.1,2.9-1.7
	l1.5-0.9c0.5-0.3,0.9-0.6,1.3-1c0.4-0.3,0.8-0.7,1.1-1.1l1-1l0.4-0.5l0.4-0.4c0.1-0.1,0.3-0.2,0.4-0.3c0.1-0.1,0.2-0.2,0.3-0.3
	l0.3-0.2l0.2-0.1l0.2-0.1L213.7,146.5z"/>
<path class="st1" d="M216.4,146.9l-0.6,1c-0.2,0.3-0.4,0.7-0.7,1.1l-1,1.5c-0.3,0.5-0.7,1.1-1.1,1.7c-0.2,0.3-0.4,0.6-0.6,0.9
	c-0.2,0.3-0.4,0.7-0.6,1c-0.2,0.3-0.4,0.7-0.6,1.1l-0.2,0.3l-0.1,0.3c-0.1,0.2-0.2,0.4-0.3,0.6l-0.1,0.3c0,0-0.1,0.1-0.1,0.1
	l-0.1,0.1l-0.3,0.6l-0.5,1.2l-0.5,1.2l-0.3,0.6l-0.3,0.6c-0.3,0.8-0.7,1.5-1,2.3l-0.2,0.5c0,0.1-0.1,0.2-0.1,0.3l-0.1,0.1l-0.1,0.1
	c-0.1,0.2-0.1,0.4-0.2,0.5l-0.1,0.3c0,0.1,0,0.2-0.1,0.3c-0.2,0.7-0.3,1.4-0.4,2c-0.1,0.6-0.2,1.2-0.2,1.7c0,0.5-0.1,1-0.1,1.4
	c0,0.4,0,0.7,0,0.9v0.3c0,0,0-0.1,0-0.3c0-0.2,0-0.5,0-0.9c0-0.4,0-0.8,0.1-1.4c0.1-0.5,0.1-1.1,0.2-1.7c0.1-0.7,0.2-1.4,0.4-2
	c0-0.1,0-0.2,0.1-0.3c0-0.1,0-0.2,0.1-0.3c0-0.1,0.1-0.4,0.2-0.5l0-0.1l0.1-0.1c0-0.1,0.1-0.2,0.1-0.3l0.2-0.5
	c0.3-0.7,0.6-1.5,0.9-2.3c0.1-0.2,0.2-0.4,0.2-0.6c0.1-0.2,0.2-0.4,0.3-0.6l0.5-1.2c0.2-0.4,0.3-0.8,0.5-1.2
	c0.1-0.2,0.2-0.4,0.3-0.6l0.1-0.1c0-0.1,0-0.1,0.1-0.2l0.1-0.3l0.3-0.6c0-0.1,0.1-0.2,0.1-0.3l0.1-0.3c0.2-0.4,0.4-0.7,0.6-1.1
	l0.6-1c0.2-0.3,0.4-0.7,0.6-1c0.4-0.6,0.8-1.2,1.1-1.8l0.9-1.5c0.3-0.4,0.5-0.8,0.7-1.1l0.6-1L216.4,146.9z"/>
<path class="st1" d="M223,149l-0.6,1.1c-0.4,0.7-0.9,1.7-1.4,3c-0.3,0.6-0.5,1.3-0.8,2c-0.3,0.8-0.5,1.6-0.6,2.4
	c-0.2,0.9-0.3,1.7-0.3,2.6c0,0.4,0,0.9,0,1.4c0,0.2,0,0.5,0,0.7l0,0.7c0.1,0.9,0.2,1.8,0.3,2.7c0.1,0.9,0.3,1.8,0.4,2.6
	c0.1,0.4,0.2,0.8,0.2,1.3c0.1,0.4,0.2,0.8,0.2,1.2c0.2,0.8,0.3,1.5,0.5,2.2c0.2,0.7,0.3,1.3,0.5,1.8c0.1,0.3,0.2,0.5,0.2,0.7
	c0.1,0.2,0.1,0.4,0.2,0.6c0.1,0.4,0.2,0.7,0.3,0.9l0.1,0.3l-0.1-0.3c-0.1-0.2-0.2-0.5-0.3-0.9c-0.1-0.2-0.2-0.4-0.2-0.6
	c-0.1-0.2-0.2-0.5-0.2-0.7c-0.2-0.5-0.4-1.1-0.5-1.8c-0.2-0.7-0.4-1.4-0.6-2.2c-0.1-0.4-0.2-0.8-0.3-1.2c-0.1-0.4-0.2-0.8-0.3-1.2
	c-0.2-0.9-0.3-1.7-0.5-2.6c-0.1-0.9-0.3-1.8-0.4-2.7c-0.1-0.9-0.1-1.8-0.1-2.8c0-0.9,0.1-1.8,0.3-2.7c0.1-0.8,0.3-1.6,0.6-2.4
	c0.2-0.8,0.5-1.5,0.8-2.1c0.5-1.3,1-2.3,1.4-3.1c0.3-0.7,0.6-1.1,0.6-1.1L223,149z"/>
<path class="st1" d="M219.5,147.2l0.2-0.2c0.1-0.1,0.3-0.3,0.5-0.5l0.8-0.8l1.1-1c0.4-0.4,0.8-0.8,1.3-1.2c0.2-0.2,0.5-0.4,0.7-0.6
	c0.3-0.2,0.5-0.4,0.8-0.6c0.3-0.2,0.6-0.4,0.9-0.6c0.3-0.2,0.6-0.4,0.9-0.5l0.2-0.1l0.1-0.1l0.1-0.1l0.5-0.2
	c0.2-0.1,0.3-0.1,0.5-0.2l0.5-0.2l1-0.4l1-0.3l0.5-0.2l0.5-0.2l1-0.3l1.9-0.5l0.9-0.2l0.8-0.2l0.8-0.2l0.7-0.2l0.6-0.2l0.5-0.2
	l0.9-0.3l-0.9,0.4l-0.5,0.2l-0.6,0.2l-0.7,0.2l-0.7,0.2l-0.8,0.3l-0.9,0.3l-1.9,0.6l-1,0.3l-0.5,0.2l-0.5,0.2
	c-0.3,0.1-0.7,0.2-1,0.4l-1,0.4l-0.5,0.2L228,141l-0.5,0.2l-0.1,0.1l-0.1,0.1l-0.2,0.1c-0.3,0.2-0.6,0.4-0.9,0.5
	c-0.3,0.2-0.6,0.4-0.8,0.6c-0.3,0.2-0.5,0.4-0.8,0.6c-0.3,0.2-0.5,0.4-0.7,0.6c-0.5,0.4-0.9,0.8-1.3,1.2l-1,1.1l-0.8,0.8l-0.5,0.5
	l-0.2,0.2L219.5,147.2z"/>
<path class="st1" d="M213.8,146.1c0,0,0-0.1,0-0.2s0-0.4,0-0.7c0-0.3,0-0.6,0.1-1c0-0.2,0-0.4,0.1-0.6c0-0.2,0.1-0.4,0.1-0.7
	c0-0.2,0.1-0.5,0.2-0.7c0-0.1,0.1-0.2,0.1-0.4l0.1-0.4c0.1-0.3,0.2-0.5,0.2-0.8l0.1-0.4l0.1-0.4c0.2-0.6,0.4-1.1,0.7-1.7
	c0.3-0.6,0.5-1.2,0.8-1.7c0.3-0.6,0.7-1.1,1-1.6c0.3-0.5,0.7-1,1.1-1.5l0.1-0.2l0.2-0.2l0.3-0.3l0.3-0.3l0.1-0.2l0.2-0.1l0.3-0.3
	l0.3-0.3c0.2-0.2,0.4-0.3,0.6-0.5l0.3-0.2l0.3-0.2l0.5-0.3c0.3-0.2,0.6-0.4,0.9-0.5c0.3-0.1,0.5-0.2,0.6-0.3l0.2-0.1l-0.2,0.1
	c-0.1,0.1-0.3,0.1-0.6,0.3c-0.2,0.1-0.5,0.3-0.9,0.5c-0.2,0.1-0.3,0.2-0.5,0.3l-0.3,0.2c-0.1,0.1-0.2,0.1-0.3,0.2
	c-0.1,0.1-0.4,0.3-0.6,0.5l-0.3,0.3l-0.3,0.3l-0.1,0.1l-0.1,0.2l-0.3,0.3l-0.3,0.3l-0.1,0.2l-0.1,0.2c-0.4,0.5-0.7,1-1,1.5
	c-0.3,0.5-0.6,1.1-0.9,1.6c-0.3,0.6-0.5,1.1-0.8,1.7c-0.2,0.6-0.4,1.2-0.6,1.7c0,0.1-0.1,0.3-0.1,0.4c0,0.1-0.1,0.3-0.1,0.4
	c-0.1,0.3-0.2,0.5-0.2,0.8c0,0.1-0.1,0.3-0.1,0.4c0,0.1,0,0.3-0.1,0.4c0,0.3-0.1,0.5-0.1,0.7c0,0.2-0.1,0.5-0.1,0.7
	c0,0.2,0,0.4-0.1,0.6c0,0.4-0.1,0.7-0.1,1c0,0.3,0,0.5,0,0.6v0.2L213.8,146.1z"/>
<path class="st1" d="M210,146.5c0.9-0.1,1.9-0.1,2.8-0.1c1.2,0.1,2.5,0.3,3.7,0.6c1.4,0.3,2.8,0.8,4.2,1.3c0.7,0.3,1.5,0.6,2.2,0.9
	c0.4,0.2,0.8,0.4,1.1,0.5c0.4,0.2,0.7,0.4,1.1,0.6c1.5,0.9,3,1.9,4.5,2.9c1.5,1,3,2,4.5,3.1c3,2.1,6,4.3,8.9,6.2
	c2.9,2,5.5,3.8,7.9,5.2c1.9,1.2,3.8,2.3,5.9,3.3c0.6,0.3,1.2,0.5,1.8,0.6c0.2,0,0.4,0.1,0.5,0.1c-0.1,0-0.3-0.1-0.5-0.1
	c-0.6-0.1-1.2-0.3-1.8-0.6c-2-1-3.9-2.1-5.8-3.4c-2.3-1.5-5-3.4-7.8-5.4c-2.8-2-5.8-4.2-8.8-6.4c-1.5-1.1-3-2.2-4.5-3.2
	c-0.7-0.5-1.5-1-2.2-1.6c-0.7-0.5-1.5-1-2.2-1.4c-0.4-0.2-0.8-0.4-1.1-0.6c-0.4-0.2-0.8-0.4-1.1-0.6c-0.8-0.4-1.5-0.7-2.3-1
	c-1.4-0.6-2.8-1-4.3-1.4c-1.3-0.3-2.5-0.5-3.8-0.6c-1-0.1-2.1-0.1-3.1-0.1c-0.8,0.1-1.2,0.1-1.7,0.2c-0.1,0.4-0.2,0.8-0.3,1.1
	c0.1,0,0.3-0.1,0.5-0.1C208.8,146.6,209.4,146.5,210,146.5z"/>
<path class="st7" d="M236.1,255c0-4.9-19.4-9.7-43.3-9.7h0c-23.9,0-43.3,4.8-43.3,9.7s19.4,8.9,43.3,8.9h0
	C216.7,263.9,236.1,259.9,236.1,255z"/>
<path class="st8" d="M154.5,255.5c0,0,14.6-7,22.3-4.1c0,0,5.7-2.1,6.2,0.7c0,0,9.8-4.8,18.9,2.5c0,0,6.6-4.8,9.5-1.6
	c0,0,10.5-3.7,10.5,0c0,0,5.2-1.3,6.8,1.6c0,0,2.5-2,2.3,0c0,0-2.3,5.5-35.5,6.8C162.3,262.7,154.5,255.5,154.5,255.5z"/>
<path class="st14" d="M186.5,220.1c-0.4,2.9-0.9,5.8-1.4,8.7c-0.5,2.8-1.1,5.6-1.6,8.3c-0.5,2.7-1.1,5.3-1.5,7.8
	c-0.4,2.3-0.8,4.7-1,7.1c-0.1,1-0.1,2.1-0.1,3.1c0,0.5,0.1,1,0.1,1.4c0.1,0.5,0.1,0.8,0.2,1.1h-0.3c-0.1-0.4-0.1-0.7-0.2-1.1
	c0-0.4-0.1-1-0.1-1.5c0-1.1,0-2.1,0-3.2c0.2-2.4,0.5-4.7,0.9-7.1c0.4-2.5,0.9-5.1,1.4-7.8c1.1-5.4,2.1-11.2,2.9-17
	c0.4-2.9,0.6-5.8,0.8-8.7c0.2-2.9,0.2-5.7,0.1-8.4c-0.1-2.6-0.5-5.2-1.3-7.7c-0.7-2.2-1.6-4.4-2.9-6.3c-1-1.7-2.4-3.1-3.9-4.4
	c-0.3-0.3-0.7-0.5-1-0.7c-0.3-0.2-0.7-0.4-1-0.6c-0.6-0.3-1.2-0.6-1.9-0.9c-0.9-0.3-1.8-0.6-2.8-0.7c-0.1,0-0.3,0-0.4,0h-0.3
	c-0.1,0-0.1,0-0.2,0c0,0,0,0-0.1,0l0.1-0.9h0.1c0.1,0,0.1,0,0.2,0h0.3c0.1,0,0.3,0,0.5,0.1c1,0.1,2,0.4,3,0.8c0.7,0.3,1.4,0.6,2,0.9
	c0.3,0.2,0.7,0.4,1.1,0.7c0.4,0.3,0.7,0.5,1.1,0.8c1.6,1.3,2.9,2.9,4,4.6c1.3,2,2.3,4.3,2.9,6.6c0.7,2.6,1.1,5.2,1.2,7.9
	c0.1,2.8,0,5.6-0.2,8.5C187.2,214.2,186.9,217.1,186.5,220.1z"/>
<path class="st14" d="M193.2,185.4c0.4,2.9,0.9,5.8,1.4,8.7c0.5,2.8,1.1,5.6,1.6,8.3c0.5,2.7,5.2,34.5,5.7,37c0.4,2.3,0.7,4.7,0.9,7
	c0.1,1,0.1,2.1,0.1,3.1c0,0.5-0.1,1-0.1,1.4c-0.1,0.5-0.1,0.8-0.2,1.1h0.3c0.1-0.3,0.1-0.7,0.2-1.1c0.1-0.5,0.1-1,0.1-1.5
	c0-1.1,0-2.1,0-3.2c-0.2-2.4-0.5-4.7-0.9-7.1c-0.4-2.5-5.1-34.3-5.6-37c-1.1-5.4-2.1-11.2-2.9-17c-0.4-2.9-0.6-5.8-0.8-8.7
	c-0.2-2.9-0.2-5.7-0.1-8.4c0.1-2.6,0.5-5.2,1.3-7.7c0.7-2.2,1.6-4.4,2.9-6.3c1-1.6,2.4-3.1,3.9-4.4c0.3-0.3,0.7-0.5,1-0.7
	c0.3-0.2,0.7-0.4,1-0.6c0.6-0.3,1.2-0.6,1.9-0.8c0.9-0.3,1.8-0.6,2.8-0.7l0.4,0h0.3c0.1,0,0.1,0,0.2,0l0.1,0l-0.1-1c0,0,0,0-0.1,0
	c-0.1,0-0.1,0-0.2,0l-0.3,0c-0.1,0-0.3,0-0.5,0.1c-1,0.1-2,0.4-3,0.8c-0.7,0.3-1.4,0.6-2,0.9c-0.3,0.2-0.7,0.4-1.1,0.7
	c-0.4,0.3-0.7,0.5-1.1,0.8c-1.6,1.3-2.9,2.9-4,4.6c-1.3,2-2.3,4.3-2.9,6.6c-0.7,2.6-1.2,5.2-1.2,7.9c-0.1,2.8,0,5.6,0.2,8.5
	C192.5,179.6,192.8,182.5,193.2,185.4z"/>
<path d="M230.5,196.4c0.1,0.4,0.2,0.8,0.1,1.2c0,1.1-0.2,2.3-0.6,3.4c-0.5,1.1-2.7,3.9-3.9,2c-0.6-1-0.2-2.4,0.2-3.4
	c0.4-1,1-2,1.4-3c0.4-0.8,0.4-1.7,0.2-2.5c-0.5-0.9-1.1-1.6-1.8-2.3c-1.7-1.7-3.7-3.3-5.8-4.5c-0.1-0.1-0.2-0.2-0.3-0.3
	c-0.1-0.1-0.1-0.3-0.1-0.4c0-0.1,0-0.3,0.1-0.4c0.1-0.1,0.2-0.2,0.3-0.3c1.7-1,3.6-1.6,5.5-2c1.2-0.2,2.4-0.3,3.6-0.3
	c1.8,0,3.7,0.5,5.3,1.3c1.6,0.9,3,2.1,4,3.7c0.1,0.1,0.1,0.3,0.1,0.4c0,0.1,0,0.3-0.1,0.4c-0.1,0.1-0.2,0.2-0.3,0.3
	c-0.1,0.1-0.3,0.1-0.4,0.1c-1.3-0.1-2.6,0-3.8,0.1c-0.8,0-1.6,0.2-2.4,0.5c-0.2,0.1-0.3,0.2-0.5,0.3c-0.1,0,0,0,0,0.1
	c0,0,0.1,0.2,0,0c-0.2-0.1,0.1,0,0.2,0c0.2,0,0.4-0.1,0.6-0.1c0.6-0.2,1.1-0.4,1.6-0.5c1.2-0.5,2.4-0.8,3.7-0.9
	c2.2-0.1,4.2,1.8,5.7,3.3c1.5,1.5,3.9,4,3.5,6.4c0,0.2-0.2,0.3-0.3,0.5c-0.1,0.1-0.3,0.2-0.5,0.2c-1.4-0.2-2.9-0.2-4.3-0.1
	c-1.2,0.1-4.2,0.2-4.1,1.8c0,0.1,0,0.3,0.1,0.4c0-0.1,0-0.1-0.1-0.1c0.4,0,0.9-0.1,1.2-0.3c1.2-0.5,2.3-1.1,3.4-1.6
	c1.1-0.5,2.4-0.8,3.6-0.7c1.2,0.2,2.3,0.8,3,1.8c2.3,2.5,4.5,6,4.7,9.5c0,0.2,0,0.3-0.1,0.4c-0.1,0.1-0.2,0.2-0.3,0.3
	c-0.1,0.1-0.3,0.1-0.4,0.1s-0.3,0-0.4-0.1c-0.9-0.6-1.8-1.1-2.7-1.6c-1-0.5-3-1.6-4.1-1c-0.1,0.1-0.4,0.3-0.4,0.3c0,0,0-0.3,0-0.3
	c0-0.1-0.1,0,0.1,0c0.4,0.1,1,0.4,1.4,0.6c1.2,0.3,2.4,0.5,3.6,0.7c1.5,0.2,2.9,0.7,3.8,2c0.9,1.4,0.8,3.1,1,4.6
	c0.3,2.9,0.8,5.9,1.1,8.8c0.1,1,0.3,2.4-0.1,3.4c-0.6,1.4-2.7,0.2-3.6-0.2c-1.7-0.8-3.3-1.8-4.8-2.9c-0.9-0.7-1.6-1.6-2.1-2.7
	c-0.7-1.3-1.2-2.6-1.9-3.8c-0.1-0.2-0.2-0.4-0.3-0.6c0-0.1,0,0,0,0c0,0,1.6-0.3,1.4-0.5c0,0,0,0.1,0,0.1c0,0,0.1,0.4,0.2,0.6
	c0.2,0.4,0.4,0.8,0.7,1.1c0.6,0.9,1,1.7,1.5,2.7c0.2,0.6,0.6,1.5,0.1,2c-1.1,1.1-2.2-1.3-2.6-1.9c-0.8-1.2-1.5-2.4-2-3.7
	c-0.4-1.2-0.6-2.5-1.1-3.7c-0.4-1.2-1-2.5-1.5-3.7c-2.1-4.2-4.6-8.3-7.5-12c-0.4-0.5-0.8-1-1.2-1.5c-0.1-0.2-0.3-0.3-0.4-0.4
	c-0.1-0.2-0.2-0.1-0.2-0.1c0.1,0.1,0.4-0.2,0.1,0.1c-0.7,0.9-1.9-0.3-1.2-1.2c1.6-2,3.8,1.5,4.6,2.6c1.3,1.7,2.5,3.5,3.7,5.3
	c1.4,2.2,2.7,4.5,3.8,6.9c0.6,1.2,1.1,2.5,1.5,3.7c0.4,1.1,0.6,2.4,1,3.5c0.3,0.6,0.6,1.2,0.9,1.7c0.4,0.7,0.8,1.5,1.3,2.2
	c0.2,0.3,0.3,0.6,0.5,0.8c0.1,0.1,0.1,0.1,0.1,0.2c0,0,0.1,0,0.1,0.1c-0.4-0.3-0.8-0.1-1.2,0.6c-0.1-0.2-0.2-0.7-0.4-1
	c-0.2-0.5-0.5-0.9-0.7-1.4c-0.6-0.9-2.1-2.8-1.4-4c0.8-1.5,2,0.6,2.3,1.3c0.7,1.3,1.3,2.6,1.9,3.9c0.2,0.4,0.4,0.7,0.7,1
	c0.6,0.5,1.3,1,1.9,1.4c1.5,1.1,3.1,1.9,4.8,2.5c0,0,0.4,0.1,0.4,0.1c0,0.1-0.9,0.2-0.8,0.4c0,0,0.1-0.3,0.1-0.4c0-0.6,0-1.2,0-1.8
	c-0.2-3.1-0.7-6.1-1.1-9.2c-0.2-1.4,0-3.2-1.1-4.3c-0.9-0.8-2.3-0.8-3.4-1c-1.4-0.2-7.1-1.2-4.9-3.7c2.2-2.5,6.4,0.2,8.5,1.5
	c0.3,0.2,0.5,0.3,0.8,0.5l-1.3,0.7c-0.2-1.7-0.8-3.3-1.7-4.8c-0.8-1.4-1.7-2.7-2.9-3.9c-0.4-0.4-0.9-0.7-1.4-0.9
	c-0.5-0.1-1.1-0.1-1.6,0c-1.3,0.4-2.6,0.9-3.8,1.6c-0.9,0.5-2,1.1-3.1,1c-1.1-0.1-1.6-1.2-1.6-2.2c0-2.4,2.8-3,4.6-3.3
	c1.8-0.2,3.7-0.2,5.5,0l-0.8,0.6c0.1-0.7-0.7-1.8-1.1-2.4c-0.8-1.1-1.7-2.1-2.7-3.1c-0.8-0.9-1.8-1.5-2.9-2
	c-1.1-0.4-2.4,0.1-3.4,0.4c-1.5,0.5-4.8,2.2-5.3-0.4c-0.4-2,2.1-2.6,3.5-2.8c1.6-0.2,3.2-0.3,4.9-0.2l-0.7,1.3
	c-0.9-1.3-2.1-2.4-3.5-3.1c-1.4-0.7-3-1.1-4.6-1c-2.8,0-5.5,0.7-8,2v-1.5c1.7,1,3.2,2.1,4.7,3.4c1.4,1.1,2.6,2.4,3.5,3.9
	c0.8,1.6,0.3,3.4-0.4,4.9c-0.5,0.9-0.9,1.8-1.2,2.8c-0.1,0.3-0.2,0.5-0.2,0.8c0,0,0,0.4,0,0.4c0,0-0.4,0-0.4-0.1
	c0-0.1,0.6-0.4,0.7-0.6c0.8-0.9,1-2.2,1-3.4c0.1-0.4,0-0.7,0-1.1C228.4,195.8,230.1,195.4,230.5,196.4z"/>
<path d="M211.2,185.6c0.7,1.5,1.2,3,1.6,4.6c0.3,1.2,0.7,2.3,1.3,3.3c0.3,0.5,0.6,0.9,1,1.3l0.5,0.4c0-0.1-0.5,0.3-0.4,0.3
	c0-0.2,0-0.3,0-0.4c-0.1-0.4-0.2-0.7-0.3-1.1c-0.4-1.2-0.9-2.3-1.5-3.4c-0.6-1.1-1.2-2.1-2-3.1c-0.3-0.5-0.8-0.9-0.6-1.5
	c0.1-0.4,0.3-0.7,0.6-1c1.4-1.6,4.3-1.4,6.1-0.9c2.4,0.8,4.7,2,6.7,3.7c1.5,1.1,2.8,2.4,4,3.8c1.2,1.4,1.8,2.9,1.3,4.8
	c-0.4,1.1-0.9,2.2-1.4,3.2c-0.3,0.6-0.5,1.2-0.6,1.9c0,0.1,0,0.5,0,0.5l-0.5-0.1l0.1-0.1c0.1-0.1,0.3-0.2,0.4-0.3
	c0.9-0.8,1.2-2.1,1.3-3.3c0.1-0.4,0.1-0.9,0-1.4c0-0.1,0-0.3,0-0.4c0-0.1,0.1-0.3,0.2-0.4c1.6-2,3.8,1.5,4.6,2.6
	c1.3,1.7,2.5,3.4,3.6,5.2c2.8,4.4,5.3,9.2,6.4,14.3c0.1,0.2,0,0.4,0,0.6s-0.2,0.3-0.4,0.4c-0.2,0.1-0.4,0.1-0.6,0
	c-0.2-0.1-0.4-0.2-0.5-0.4c-1.6-2.8-3.8-5.3-6.2-7.4c-1.6-1.5-3.5-2.8-5.4-3.8c-2.1-0.9-4.3-1.6-6.5-2.2c-2.5-0.8-5-1.4-7.5-1.9
	c-1.2-0.2-2.4-0.3-3.7-0.4c-0.6,0-1.1,0-1.7,0c-0.6,0-1.3,0.3-1.9-0.1c-3.6-2-8.3-5.8-6.5-10.5c0.9-2.4,2.8-4.5,4.3-6.6
	c0.5-0.7,1.2-1.7,2.1-1.9c1.1-0.2,1.7,0.8,2,1.7c0.4,1-1.3,1.5-1.6,0.5c-0.1-0.2-0.2-0.4-0.3-0.6c0.3,0.5,0.3-0.2,0.1,0.2
	c-0.3,0.4-0.6,0.7-0.9,1.1l-2,2.7c-1.1,1.6-2.7,3.6-2.4,5.6c0.3,2.1,2.2,3.6,3.8,4.8c0.7,0.5,1.7,1.5,2.6,1.5c1.1-0.1,2.2-0.1,3.4,0
	c4.4,0.3,8.8,1.7,13.1,3c1.9,0.5,3.8,1.3,5.6,2.2c1.7,1,3.3,2.2,4.8,3.6c2.6,2.2,4.8,4.8,6.5,7.7l-1.6,0.7c-1-4.5-3.1-8.6-5.4-12.5
	c-1-1.6-2.1-3.3-3.2-4.8c-0.5-0.7-1.1-1.5-1.6-2.2c-0.3-0.5-0.7-0.9-1.1-1.4c-0.1-0.1-0.4-0.3-0.4-0.4c0,0-0.1-0.1-0.1-0.1
	c0.2-0.1,0.3-0.1,0.1,0.1l0.2-0.8c0.2,0.6,0.2,1.2,0.1,1.8c0,1.5-0.5,2.9-1.4,4.1c-0.6,0.7-1.6,1.6-2.6,1.2
	c-1.4-0.7-0.8-2.7-0.4-3.7c0.5-1.3,1.3-2.5,1.7-3.8c0.1-0.5,0.2-1,0-1.5c-0.1-0.5-0.4-1-0.7-1.4c-1.6-2-3.6-3.7-5.7-5.1
	c-1.6-1.2-3.4-2-5.3-2.4c-1-0.2-3.4-0.4-3.8,1l-0.1-0.7c1.7,2.2,3.1,4.6,4,7.3c0.4,1,1.2,3.7-0.7,3.8c-1,0-1.9-0.9-2.4-1.6
	c-0.8-1-1.5-2.2-1.8-3.5c-0.3-1.1-0.6-2.3-1-3.4c-0.2-0.5-0.4-1-0.6-1.5c-0.1-0.2-0.1-0.3-0.2-0.5c-0.1-0.2,0.1,0.1,0,0
	C209.3,185.5,210.7,184.6,211.2,185.6z"/>
<path class="st14" d="M209.8,202.4c0,0-14.7-6-17.9,53.6h-1.5c0,0,4.3-58.2,18-54.5L209.8,202.4z"/>
<linearGradient id="SVGID_4_" gradientUnits="userSpaceOnUse" x1="171.8496" y1="66.7265" x2="220.8771" y2="64.3294" gradientTransform="matrix(1 0 0 -1 0 328)">
	<stop  offset="0" style="stop-color:#FFFFFF;stop-opacity:0.5"/>
	<stop  offset="1" style="stop-color:#C0DFDF;stop-opacity:0"/>
</linearGradient>
<path class="st15" d="M148.1,257.6c0,0,3.2,8.6,45.6,8.4s44.7-9.9,44.7-9.9s4.9,13.8-44.7,14.4C144.7,270.9,148.1,257.6,148.1,257.6
	z"/>
</svg>
