<svg width="28" height="28" viewBox="0 0 28 28" fill="none" xmlns="http://www.w3.org/2000/svg">
<path d="M11.7553 12.8333C12.4553 12.8333 13.0223 13.3583 13.0095 13.9999C13.0095 14.6416 12.4565 15.1666 11.7553 15.1666C11.067 15.1666 10.5 14.6416 10.5 13.9999C10.5 13.3583 11.0542 12.8333 11.7553 12.8333ZM16.2447 12.8333C16.9458 12.8333 17.5 13.3583 17.5 13.9999C17.5 14.6416 16.9458 15.1666 16.2447 15.1666C15.5563 15.1666 14.9905 14.6416 14.9905 13.9999C14.9905 13.3583 15.5435 12.8333 16.2447 12.8333ZM22.0395 2.33325C23.3963 2.33325 24.5 3.46025 24.5 4.85675V26.8333L21.9205 24.5058L20.468 23.1338L18.9315 21.6754L19.5685 23.9423H5.9605C4.60367 23.9423 3.5 22.8153 3.5 21.4188V4.85675C3.5 3.46025 4.60367 2.33325 5.9605 2.33325H22.0383H22.0395ZM17.4078 18.3318C20.0597 18.2466 21.0805 16.4698 21.0805 16.4698C21.0805 12.5253 19.3515 9.32742 19.3515 9.32742C17.6248 8.00558 15.9798 8.04175 15.9798 8.04175L15.8118 8.23775C17.8523 8.87475 18.7997 9.79409 18.7997 9.79409C17.6856 9.1664 16.4577 8.76664 15.1877 8.61809C14.382 8.52709 13.5683 8.53493 12.7645 8.64142C12.6922 8.64142 12.6315 8.65425 12.5603 8.66592C12.1403 8.70325 11.1195 8.86192 9.83617 9.43825C9.39283 9.64592 9.128 9.79409 9.128 9.79409C9.128 9.79409 10.1243 8.82575 12.2838 8.18875L12.1637 8.04175C12.1637 8.04175 10.5198 8.00558 8.792 9.32858C8.792 9.32858 7.06417 12.5253 7.06417 16.4698C7.06417 16.4698 8.07217 18.2454 10.724 18.3318C10.724 18.3318 11.1673 17.7811 11.529 17.3156C10.0042 16.8489 9.429 15.8689 9.429 15.8689C9.429 15.8689 9.548 15.9553 9.76383 16.0778C9.7755 16.0894 9.78717 16.1023 9.81167 16.1139C9.84783 16.1396 9.884 16.1513 9.92017 16.1758C10.22 16.3473 10.5198 16.4814 10.7952 16.5923C11.2875 16.7883 11.8755 16.9843 12.5603 17.1196C13.5862 17.3207 14.641 17.3246 15.6683 17.1313C16.2667 17.0244 16.8506 16.8479 17.4078 16.6051C17.8278 16.4453 18.2957 16.2119 18.788 15.8818C18.788 15.8818 18.1883 16.8863 16.6157 17.3401C16.9762 17.8056 17.409 18.3318 17.409 18.3318H17.4078Z" fill="white"/>
</svg>
