<svg width="28" height="28" viewBox="0 0 28 28" fill="none" xmlns="http://www.w3.org/2000/svg">
<path d="M25.8557 6.5987C24.965 6.99268 24.0205 7.25142 23.0533 7.36637C24.0727 6.75671 24.8357 5.79722 25.2 4.6667C24.2433 5.23604 23.1945 5.63504 22.1013 5.85087C21.367 5.06521 20.3938 4.54416 19.3328 4.36872C18.2718 4.19328 17.1826 4.37328 16.2345 4.88073C15.2864 5.38819 14.5325 6.19467 14.09 7.17479C13.6475 8.15492 13.5412 9.25378 13.7877 10.3005C11.8476 10.2033 9.94972 9.69915 8.21717 8.82081C6.48462 7.94248 4.95615 6.70959 3.731 5.2022C3.29734 5.94706 3.06945 6.7938 3.07067 7.6557C3.07067 9.34737 3.93167 10.8419 5.24067 11.7169C4.46601 11.6925 3.7084 11.4833 3.031 11.1067V11.1674C3.03123 12.294 3.4211 13.3859 4.13449 14.2579C4.84788 15.13 5.8409 15.7284 6.94517 15.9519C6.22605 16.1467 5.47203 16.1755 4.74017 16.0359C5.05151 17.0056 5.65834 17.8538 6.47569 18.4615C7.29304 19.0692 8.27998 19.4061 9.29833 19.425C8.28623 20.2199 7.12737 20.8075 5.88803 21.1542C4.64868 21.501 3.35315 21.6 2.0755 21.4457C4.30581 22.88 6.90211 23.6415 9.55383 23.639C18.529 23.639 23.4372 16.2039 23.4372 9.7557C23.4372 9.5457 23.4313 9.33337 23.422 9.1257C24.3773 8.43523 25.2019 7.57989 25.8568 6.59987L25.8557 6.5987Z" fill="white"/>
</svg>
