<svg xmlns="http://www.w3.org/2000/svg" viewBox="0 0 160 100"><defs><style>.cls-1{fill:#4b002d;}.cls-2{fill:#f2f2f2;}.cls-3{fill:#faffdc;}.cls-4{font-size:13.74px;font-family:Montserrat-ExtraBold, Montserrat;font-weight:800;}.cls-5{letter-spacing:-0.02em;}.cls-6{letter-spacing:-0.02em;}</style></defs><g id="Minting_Is_Over_" data-name="Minting (Is Over)"><rect class="cls-1" x="5.61" y="10.44" width="142.87" height="79.88" rx="3.45" transform="translate(-6.03 10.72) rotate(-7.66)"/><rect class="cls-1" x="9.12" y="11.18" width="144.01" height="77.42" rx="2" transform="translate(-5.91 11.22) rotate(-7.64)"/><path class="cls-2" d="M17.2,98.84a4.06,4.06,0,0,1-4-3.51L3.64,24a4.07,4.07,0,0,1,3.48-4.56L144.5,1a4,4,0,0,1,4.55,3.47l9.55,71.38a4.06,4.06,0,0,1-3.48,4.55L17.74,98.8A3.27,3.27,0,0,1,17.2,98.84ZM145,3.64h-.18L7.48,22.07a1.35,1.35,0,0,0-1.16,1.52L15.86,95a1.35,1.35,0,0,0,1.52,1.16L154.77,77.71a1.35,1.35,0,0,0,1.15-1.52L146.38,4.81a1.35,1.35,0,0,0-.52-.89A1.38,1.38,0,0,0,145,3.64Z"/><rect class="cls-3" x="16.18" y="20.56" width="129.98" height="59.59" rx="2" transform="translate(-5.97 11.23) rotate(-7.64)"/><path d="M25.79,39.75l4.93-.67,4.9,6L38.76,38l4.93-.66L46,54.2l-4.64.63L40,45.14l-3.42,7.18-.09,0-5.17-6L32.63,56l-4.57.62Z"/><path d="M46.76,36.92l4.7-.63,2.27,16.86-4.7.64Z"/><path d="M54.53,35.87l4.36-.58,8.13,8-1.2-8.92,4.62-.62,2.27,16.86-4.09.56-8.44-8.29,1.24,9.26-4.62.62Z"/><path d="M78.08,36.87l-5,.68-.55-4.1,14.77-2,.55,4.09-5,.69L84.47,49l-4.67.63Z"/><path d="M89.39,31.17l4.69-.63L96.35,47.4,91.66,48Z"/><path d="M97.16,30.12l4.35-.58,8.13,8-1.2-8.92,4.62-.62,2.27,16.86-4.09.56-8.44-8.29,1.25,9.26L99.43,47Z"/><path d="M116.6,36.14v0a8.84,8.84,0,0,1,7.89-10,9.89,9.89,0,0,1,7.16,1.54l-2.3,3.67a6,6,0,0,0-4.28-1,4.47,4.47,0,0,0-3.68,5.21v0a4.48,4.48,0,0,0,5.2,4.06,4.81,4.81,0,0,0,2.6-1.06l-.28-2-3.32.45-.46-3.42,7.75-1.05,1,7.59a11.47,11.47,0,0,1-7,3.59C121.7,44.33,117.29,41.24,116.6,36.14Z"/><text class="cls-4" transform="translate(53.6 73.97) rotate(-7.76)">IS <tspan class="cls-5" x="17.54" y="0">O</tspan><tspan class="cls-6" x="28.83" y="0">V</tspan><tspan x="39.15" y="0">ER !</tspan></text></g></svg>